<svg width="747" height="374" viewBox="0 0 747 374" fill="none" xmlns="http://www.w3.org/2000/svg">
<rect width="747" height="374" fill="#24272B"/>
<rect x="24" y="24" width="140" height="150" rx="20" fill="white"/>
<path d="M50.125 159.099C49.59 159.099 49.1342 158.954 48.7578 158.663C48.3814 158.369 48.0938 157.944 47.8949 157.388C47.696 156.829 47.5966 156.154 47.5966 155.364C47.5966 154.578 47.696 153.906 47.8949 153.35C48.0961 152.791 48.3849 152.365 48.7614 152.072C49.1402 151.776 49.5947 151.628 50.125 151.628C50.6553 151.628 51.1087 151.776 51.4851 152.072C51.8639 152.365 52.1527 152.791 52.3516 153.35C52.5528 153.906 52.6534 154.578 52.6534 155.364C52.6534 156.154 52.554 156.829 52.3551 157.388C52.1562 157.944 51.8686 158.369 51.4922 158.663C51.1158 158.954 50.66 159.099 50.125 159.099ZM50.125 158.318C50.6553 158.318 51.0672 158.062 51.3608 157.551C51.6544 157.04 51.8011 156.311 51.8011 155.364C51.8011 154.734 51.7337 154.198 51.5987 153.755C51.4661 153.312 51.2744 152.975 51.0234 152.743C50.7749 152.511 50.4754 152.395 50.125 152.395C49.5994 152.395 49.1887 152.654 48.8928 153.173C48.5968 153.689 48.4489 154.419 48.4489 155.364C48.4489 155.993 48.5152 156.528 48.6477 156.969C48.7803 157.409 48.9709 157.744 49.2195 157.974C49.4704 158.203 49.7723 158.318 50.125 158.318ZM56.375 159.099C55.84 159.099 55.3842 158.954 55.0078 158.663C54.6314 158.369 54.3438 157.944 54.1449 157.388C53.946 156.829 53.8466 156.154 53.8466 155.364C53.8466 154.578 53.946 153.906 54.1449 153.35C54.3461 152.791 54.6349 152.365 55.0114 152.072C55.3902 151.776 55.8447 151.628 56.375 151.628C56.9053 151.628 57.3587 151.776 57.7351 152.072C58.1139 152.365 58.4027 152.791 58.6016 153.35C58.8028 153.906 58.9034 154.578 58.9034 155.364C58.9034 156.154 58.804 156.829 58.6051 157.388C58.4062 157.944 58.1186 158.369 57.7422 158.663C57.3658 158.954 56.91 159.099 56.375 159.099ZM56.375 158.318C56.9053 158.318 57.3172 158.062 57.6108 157.551C57.9044 157.04 58.0511 156.311 58.0511 155.364C58.0511 154.734 57.9837 154.198 57.8487 153.755C57.7161 153.312 57.5244 152.975 57.2734 152.743C57.0249 152.511 56.7254 152.395 56.375 152.395C55.8494 152.395 55.4387 152.654 55.1428 153.173C54.8468 153.689 54.6989 154.419 54.6989 155.364C54.6989 155.993 54.7652 156.528 54.8977 156.969C55.0303 157.409 55.2209 157.744 55.4695 157.974C55.7204 158.203 56.0223 158.318 56.375 158.318ZM62.5824 159.099C62.0947 159.099 61.6638 159.013 61.2898 158.84C60.9181 158.665 60.6281 158.425 60.4197 158.119C60.2114 157.812 60.1084 157.461 60.1108 157.068C60.1084 156.76 60.1688 156.476 60.2919 156.216C60.415 155.953 60.5831 155.734 60.7962 155.559C61.0116 155.381 61.2519 155.269 61.517 155.222V155.179C61.169 155.089 60.892 154.894 60.6861 154.593C60.4801 154.29 60.3783 153.946 60.3807 153.56C60.3783 153.19 60.4718 152.86 60.6612 152.569C60.8506 152.278 61.111 152.048 61.4425 151.88C61.7763 151.712 62.1563 151.628 62.5824 151.628C63.0038 151.628 63.3802 151.712 63.7116 151.88C64.0431 152.048 64.3035 152.278 64.4929 152.569C64.6847 152.86 64.7817 153.19 64.7841 153.56C64.7817 153.946 64.6764 154.29 64.468 154.593C64.2621 154.894 63.9886 155.089 63.6477 155.179V155.222C63.9105 155.269 64.1473 155.381 64.358 155.559C64.5687 155.734 64.7367 155.953 64.8622 156.216C64.9877 156.476 65.0516 156.76 65.054 157.068C65.0516 157.461 64.9451 157.812 64.7344 158.119C64.526 158.425 64.236 158.665 63.8643 158.84C63.495 159.013 63.0677 159.099 62.5824 159.099ZM62.5824 158.318C62.9115 158.318 63.1955 158.265 63.4347 158.158C63.6738 158.052 63.8584 157.902 63.9886 157.707C64.1188 157.513 64.1851 157.286 64.1875 157.026C64.1851 156.751 64.1141 156.508 63.9744 156.298C63.8348 156.087 63.6442 155.921 63.4027 155.8C63.1636 155.68 62.8902 155.619 62.5824 155.619C62.2723 155.619 61.9953 155.68 61.7514 155.8C61.5099 155.921 61.3194 156.087 61.1797 156.298C61.0424 156.508 60.9749 156.751 60.9773 157.026C60.9749 157.286 61.0376 157.513 61.1655 157.707C61.2957 157.902 61.4815 158.052 61.723 158.158C61.9645 158.265 62.2509 158.318 62.5824 158.318ZM62.5824 154.866C62.8428 154.866 63.0736 154.814 63.2749 154.71C63.4785 154.606 63.6383 154.46 63.7543 154.273C63.8703 154.086 63.9295 153.867 63.9318 153.616C63.9295 153.37 63.8714 153.156 63.7578 152.974C63.6442 152.789 63.4867 152.647 63.2855 152.548C63.0843 152.446 62.8499 152.395 62.5824 152.395C62.3101 152.395 62.0722 152.446 61.8686 152.548C61.665 152.647 61.5076 152.789 61.3963 152.974C61.285 153.156 61.2306 153.37 61.233 153.616C61.2306 153.867 61.2862 154.086 61.3999 154.273C61.5159 154.46 61.6757 154.606 61.8793 154.71C62.0829 154.814 62.3172 154.866 62.5824 154.866ZM66.5428 159V151.727H70.9036V152.509H67.4235V154.966H70.5769V155.747H67.4235V159H66.5428ZM74.5568 159.099C74.1402 159.099 73.7649 159.017 73.4311 158.851C73.0973 158.685 72.8298 158.458 72.6286 158.169C72.4273 157.88 72.3172 157.551 72.2983 157.182H73.1506C73.1837 157.511 73.3329 157.783 73.598 157.999C73.8655 158.212 74.1851 158.318 74.5568 158.318C74.8551 158.318 75.1203 158.248 75.3523 158.109C75.5866 157.969 75.7701 157.777 75.9027 157.533C76.0376 157.287 76.1051 157.009 76.1051 156.699C76.1051 156.382 76.0353 156.099 75.8956 155.85C75.7583 155.599 75.5689 155.402 75.3274 155.257C75.0859 155.113 74.8101 155.039 74.5 155.037C74.2775 155.035 74.049 155.069 73.8146 155.14C73.5803 155.209 73.3873 155.297 73.2358 155.406L72.4119 155.307L72.8523 151.727H76.6307V152.509H73.5909L73.3352 154.653H73.3778C73.527 154.535 73.714 154.437 73.9389 154.359C74.1638 154.281 74.3982 154.241 74.642 154.241C75.0871 154.241 75.4837 154.348 75.8317 154.561C76.1821 154.772 76.4567 155.061 76.6555 155.428C76.8568 155.795 76.9574 156.214 76.9574 156.685C76.9574 157.149 76.8532 157.563 76.6449 157.928C76.4389 158.29 76.1548 158.576 75.7926 158.787C75.4304 158.995 75.0185 159.099 74.5568 159.099ZM80.7402 159H78.4959V151.727H80.8397C81.5452 151.727 82.1489 151.873 82.6507 152.164C83.1526 152.453 83.5373 152.868 83.8049 153.411C84.0724 153.95 84.2061 154.597 84.2061 155.349C84.2061 156.107 84.0712 156.759 83.8013 157.306C83.5314 157.851 83.1384 158.27 82.6223 158.563C82.1062 158.854 81.4789 159 80.7402 159ZM79.3766 158.219H80.6834C81.2847 158.219 81.7831 158.103 82.1784 157.871C82.5738 157.639 82.8685 157.308 83.0627 156.88C83.2568 156.451 83.3539 155.941 83.3539 155.349C83.3539 154.762 83.258 154.257 83.0662 153.833C82.8745 153.407 82.588 153.08 82.2069 152.853C81.8257 152.623 81.351 152.509 80.7828 152.509H79.3766V158.219Z" fill="#008F5D"/>
<rect x="46" y="142" width="100" height="40" rx="20" transform="rotate(-90 46 142)" fill="#008F5D"/>
<path d="M106.625 159.099C106.09 159.099 105.634 158.954 105.258 158.663C104.881 158.369 104.594 157.944 104.395 157.388C104.196 156.829 104.097 156.154 104.097 155.364C104.097 154.578 104.196 153.906 104.395 153.35C104.596 152.791 104.885 152.365 105.261 152.072C105.64 151.776 106.095 151.628 106.625 151.628C107.155 151.628 107.609 151.776 107.985 152.072C108.364 152.365 108.653 152.791 108.852 153.35C109.053 153.906 109.153 154.578 109.153 155.364C109.153 156.154 109.054 156.829 108.855 157.388C108.656 157.944 108.369 158.369 107.992 158.663C107.616 158.954 107.16 159.099 106.625 159.099ZM106.625 158.318C107.155 158.318 107.567 158.062 107.861 157.551C108.154 157.04 108.301 156.311 108.301 155.364C108.301 154.734 108.234 154.198 108.099 153.755C107.966 153.312 107.774 152.975 107.523 152.743C107.275 152.511 106.975 152.395 106.625 152.395C106.099 152.395 105.689 152.654 105.393 153.173C105.097 153.689 104.949 154.419 104.949 155.364C104.949 155.993 105.015 156.528 105.148 156.969C105.28 157.409 105.471 157.744 105.719 157.974C105.97 158.203 106.272 158.318 106.625 158.318ZM110.929 159H110.006L112.676 151.727H113.585L116.256 159H115.332L113.159 152.878H113.102L110.929 159ZM111.27 156.159H114.991V156.94H111.27V156.159ZM117.687 159H116.763L119.434 151.727H120.343L123.013 159H122.09L119.917 152.878H119.86L117.687 159ZM118.028 156.159H121.749V156.94H118.028V156.159ZM126.348 159.099C125.86 159.099 125.429 159.013 125.055 158.84C124.684 158.665 124.394 158.425 124.185 158.119C123.977 157.812 123.874 157.461 123.876 157.068C123.874 156.76 123.934 156.476 124.058 156.216C124.181 155.953 124.349 155.734 124.562 155.559C124.777 155.381 125.018 155.269 125.283 155.222V155.179C124.935 155.089 124.658 154.894 124.452 154.593C124.246 154.29 124.144 153.946 124.146 153.56C124.144 153.19 124.237 152.86 124.427 152.569C124.616 152.278 124.877 152.048 125.208 151.88C125.542 151.712 125.922 151.628 126.348 151.628C126.769 151.628 127.146 151.712 127.477 151.88C127.809 152.048 128.069 152.278 128.259 152.569C128.45 152.86 128.547 153.19 128.55 153.56C128.547 153.946 128.442 154.29 128.234 154.593C128.028 154.894 127.754 155.089 127.413 155.179V155.222C127.676 155.269 127.913 155.381 128.124 155.559C128.334 155.734 128.502 155.953 128.628 156.216C128.753 156.476 128.817 156.76 128.82 157.068C128.817 157.461 128.711 157.812 128.5 158.119C128.292 158.425 128.002 158.665 127.63 158.84C127.261 159.013 126.833 159.099 126.348 159.099ZM126.348 158.318C126.677 158.318 126.961 158.265 127.2 158.158C127.439 158.052 127.624 157.902 127.754 157.707C127.884 157.513 127.951 157.286 127.953 157.026C127.951 156.751 127.88 156.508 127.74 156.298C127.6 156.087 127.41 155.921 127.168 155.8C126.929 155.68 126.656 155.619 126.348 155.619C126.038 155.619 125.761 155.68 125.517 155.8C125.276 155.921 125.085 156.087 124.945 156.298C124.808 156.508 124.741 156.751 124.743 157.026C124.741 157.286 124.803 157.513 124.931 157.707C125.061 157.902 125.247 158.052 125.489 158.158C125.73 158.265 126.017 158.318 126.348 158.318ZM126.348 154.866C126.608 154.866 126.839 154.814 127.04 154.71C127.244 154.606 127.404 154.46 127.52 154.273C127.636 154.086 127.695 153.867 127.697 153.616C127.695 153.37 127.637 153.156 127.523 152.974C127.41 152.789 127.252 152.647 127.051 152.548C126.85 152.446 126.616 152.395 126.348 152.395C126.076 152.395 125.838 152.446 125.634 152.548C125.431 152.647 125.273 152.789 125.162 152.974C125.051 153.156 124.996 153.37 124.999 153.616C124.996 153.867 125.052 154.086 125.165 154.273C125.281 154.46 125.441 154.606 125.645 154.71C125.848 154.814 126.083 154.866 126.348 154.866ZM130.408 159L133.661 152.565V152.509H129.911V151.727H134.57V152.551L131.331 159H130.408ZM138.45 151.727V159H137.57V152.651H137.527L135.751 153.83V152.935L137.57 151.727H138.45Z" fill="#0AA871"/>
<rect x="102" y="142" width="100" height="40" rx="20" transform="rotate(-90 102 142)" fill="#0AA871"/>
<rect x="188" y="24" width="140" height="150" rx="20" fill="white"/>
<path d="M211.881 159V151.727H216.27V152.509H212.761V154.966H216.043V155.747H212.761V158.219H216.327V159H211.881ZM217.857 159V151.727H220.4C220.906 151.727 221.324 151.815 221.653 151.99C221.982 152.163 222.228 152.396 222.388 152.69C222.549 152.981 222.63 153.304 222.63 153.659C222.63 153.972 222.574 154.23 222.463 154.433C222.354 154.637 222.21 154.798 222.03 154.916C221.852 155.035 221.659 155.122 221.451 155.179V155.25C221.674 155.264 221.897 155.342 222.122 155.484C222.347 155.626 222.535 155.83 222.687 156.095C222.838 156.36 222.914 156.685 222.914 157.068C222.914 157.433 222.831 157.761 222.665 158.052C222.5 158.343 222.238 158.574 221.881 158.744C221.523 158.915 221.058 159 220.485 159H217.857ZM218.738 158.219H220.485C221.06 158.219 221.469 158.107 221.71 157.885C221.954 157.66 222.076 157.388 222.076 157.068C222.076 156.822 222.013 156.595 221.888 156.386C221.762 156.176 221.584 156.008 221.352 155.882C221.12 155.754 220.845 155.69 220.528 155.69H218.738V158.219ZM218.738 154.923H220.371C220.637 154.923 220.876 154.871 221.089 154.767C221.304 154.663 221.475 154.516 221.6 154.327C221.728 154.137 221.792 153.915 221.792 153.659C221.792 153.339 221.681 153.068 221.458 152.846C221.236 152.621 220.883 152.509 220.4 152.509H218.738V154.923ZM226.563 159.099C226.075 159.099 225.644 159.013 225.27 158.84C224.899 158.665 224.609 158.425 224.4 158.119C224.192 157.812 224.089 157.461 224.091 157.068C224.089 156.76 224.149 156.476 224.272 156.216C224.395 155.953 224.564 155.734 224.777 155.559C224.992 155.381 225.232 155.269 225.498 155.222V155.179C225.15 155.089 224.873 154.894 224.667 154.593C224.461 154.29 224.359 153.946 224.361 153.56C224.359 153.19 224.452 152.86 224.642 152.569C224.831 152.278 225.092 152.048 225.423 151.88C225.757 151.712 226.137 151.628 226.563 151.628C226.984 151.628 227.361 151.712 227.692 151.88C228.024 152.048 228.284 152.278 228.473 152.569C228.665 152.86 228.762 153.19 228.765 153.56C228.762 153.946 228.657 154.29 228.449 154.593C228.243 154.894 227.969 155.089 227.628 155.179V155.222C227.891 155.269 228.128 155.381 228.338 155.559C228.549 155.734 228.717 155.953 228.843 156.216C228.968 156.476 229.032 156.76 229.034 157.068C229.032 157.461 228.926 157.812 228.715 158.119C228.507 158.425 228.217 158.665 227.845 158.84C227.475 159.013 227.048 159.099 226.563 159.099ZM226.563 158.318C226.892 158.318 227.176 158.265 227.415 158.158C227.654 158.052 227.839 157.902 227.969 157.707C228.099 157.513 228.166 157.286 228.168 157.026C228.166 156.751 228.095 156.508 227.955 156.298C227.815 156.087 227.625 155.921 227.383 155.8C227.144 155.68 226.871 155.619 226.563 155.619C226.253 155.619 225.976 155.68 225.732 155.8C225.49 155.921 225.3 156.087 225.16 156.298C225.023 156.508 224.955 156.751 224.958 157.026C224.955 157.286 225.018 157.513 225.146 157.707C225.276 157.902 225.462 158.052 225.703 158.158C225.945 158.265 226.231 158.318 226.563 158.318ZM226.563 154.866C226.823 154.866 227.054 154.814 227.255 154.71C227.459 154.606 227.619 154.46 227.735 154.273C227.851 154.086 227.91 153.867 227.912 153.616C227.91 153.37 227.852 153.156 227.738 152.974C227.625 152.789 227.467 152.647 227.266 152.548C227.065 152.446 226.83 152.395 226.563 152.395C226.291 152.395 226.053 152.446 225.849 152.548C225.645 152.647 225.488 152.789 225.377 152.974C225.266 153.156 225.211 153.37 225.213 153.616C225.211 153.867 225.267 154.086 225.38 154.273C225.496 154.46 225.656 154.606 225.86 154.71C226.063 154.814 226.298 154.866 226.563 154.866ZM232.725 159.099C232.237 159.099 231.806 159.013 231.432 158.84C231.061 158.665 230.771 158.425 230.562 158.119C230.354 157.812 230.251 157.461 230.253 157.068C230.251 156.76 230.311 156.476 230.434 156.216C230.558 155.953 230.726 155.734 230.939 155.559C231.154 155.381 231.394 155.269 231.66 155.222V155.179C231.312 155.089 231.035 154.894 230.829 154.593C230.623 154.29 230.521 153.946 230.523 153.56C230.521 153.19 230.614 152.86 230.804 152.569C230.993 152.278 231.254 152.048 231.585 151.88C231.919 151.712 232.299 151.628 232.725 151.628C233.146 151.628 233.523 151.712 233.854 151.88C234.186 152.048 234.446 152.278 234.635 152.569C234.827 152.86 234.924 153.19 234.927 153.56C234.924 153.946 234.819 154.29 234.611 154.593C234.405 154.894 234.131 155.089 233.79 155.179V155.222C234.053 155.269 234.29 155.381 234.501 155.559C234.711 155.734 234.879 155.953 235.005 156.216C235.13 156.476 235.194 156.76 235.197 157.068C235.194 157.461 235.088 157.812 234.877 158.119C234.669 158.425 234.379 158.665 234.007 158.84C233.638 159.013 233.21 159.099 232.725 159.099ZM232.725 158.318C233.054 158.318 233.338 158.265 233.577 158.158C233.816 158.052 234.001 157.902 234.131 157.707C234.261 157.513 234.328 157.286 234.33 157.026C234.328 156.751 234.257 156.508 234.117 156.298C233.977 156.087 233.787 155.921 233.545 155.8C233.306 155.68 233.033 155.619 232.725 155.619C232.415 155.619 232.138 155.68 231.894 155.8C231.653 155.921 231.462 156.087 231.322 156.298C231.185 156.508 231.117 156.751 231.12 157.026C231.117 157.286 231.18 157.513 231.308 157.707C231.438 157.902 231.624 158.052 231.866 158.158C232.107 158.265 232.394 158.318 232.725 158.318ZM232.725 154.866C232.985 154.866 233.216 154.814 233.417 154.71C233.621 154.606 233.781 154.46 233.897 154.273C234.013 154.086 234.072 153.867 234.074 153.616C234.072 153.37 234.014 153.156 233.9 152.974C233.787 152.789 233.629 152.647 233.428 152.548C233.227 152.446 232.992 152.395 232.725 152.395C232.453 152.395 232.215 152.446 232.011 152.548C231.808 152.647 231.65 152.789 231.539 152.974C231.428 153.156 231.373 153.37 231.376 153.616C231.373 153.867 231.429 154.086 231.542 154.273C231.658 154.46 231.818 154.606 232.022 154.71C232.225 154.814 232.46 154.866 232.725 154.866ZM238.93 159.099C238.395 159.099 237.939 158.954 237.562 158.663C237.186 158.369 236.898 157.944 236.7 157.388C236.501 156.829 236.401 156.154 236.401 155.364C236.401 154.578 236.501 153.906 236.7 153.35C236.901 152.791 237.19 152.365 237.566 152.072C237.945 151.776 238.399 151.628 238.93 151.628C239.46 151.628 239.913 151.776 240.29 152.072C240.669 152.365 240.957 152.791 241.156 153.35C241.357 153.906 241.458 154.578 241.458 155.364C241.458 156.154 241.359 156.829 241.16 157.388C240.961 157.944 240.673 158.369 240.297 158.663C239.92 158.954 239.465 159.099 238.93 159.099ZM238.93 158.318C239.46 158.318 239.872 158.062 240.165 157.551C240.459 157.04 240.606 156.311 240.606 155.364C240.606 154.734 240.538 154.198 240.403 153.755C240.271 153.312 240.079 152.975 239.828 152.743C239.58 152.511 239.28 152.395 238.93 152.395C238.404 152.395 237.993 152.654 237.697 153.173C237.402 153.689 237.254 154.419 237.254 155.364C237.254 155.993 237.32 156.528 237.452 156.969C237.585 157.409 237.776 157.744 238.024 157.974C238.275 158.203 238.577 158.318 238.93 158.318ZM245.18 159.099C244.645 159.099 244.189 158.954 243.812 158.663C243.436 158.369 243.148 157.944 242.95 157.388C242.751 156.829 242.651 156.154 242.651 155.364C242.651 154.578 242.751 153.906 242.95 153.35C243.151 152.791 243.44 152.365 243.816 152.072C244.195 151.776 244.649 151.628 245.18 151.628C245.71 151.628 246.163 151.776 246.54 152.072C246.919 152.365 247.207 152.791 247.406 153.35C247.607 153.906 247.708 154.578 247.708 155.364C247.708 156.154 247.609 156.829 247.41 157.388C247.211 157.944 246.923 158.369 246.547 158.663C246.17 158.954 245.715 159.099 245.18 159.099ZM245.18 158.318C245.71 158.318 246.122 158.062 246.415 157.551C246.709 157.04 246.856 156.311 246.856 155.364C246.856 154.734 246.788 154.198 246.653 153.755C246.521 153.312 246.329 152.975 246.078 152.743C245.83 152.511 245.53 152.395 245.18 152.395C244.654 152.395 244.243 152.654 243.947 153.173C243.652 153.689 243.504 154.419 243.504 155.364C243.504 155.993 243.57 156.528 243.702 156.969C243.835 157.409 244.026 157.744 244.274 157.974C244.525 158.203 244.827 158.318 245.18 158.318Z" fill="#EB8800"/>
<rect x="210" y="142" width="100" height="40" rx="20" transform="rotate(-90 210 142)" fill="#EB8800"/>
<path d="M267.381 159V151.727H271.741V152.509H268.261V154.966H271.415V155.747H268.261V159H267.381ZM273.25 159V151.727H277.611V152.509H274.131V154.966H277.284V155.747H274.131V159H273.25ZM278.509 159H277.586L280.256 151.727H281.165L283.836 159H282.912L280.739 152.878H280.682L278.509 159ZM278.85 156.159H282.572V156.94H278.85V156.159ZM287.213 159H284.969V151.727H287.312C288.018 151.727 288.622 151.873 289.123 152.164C289.625 152.453 290.01 152.868 290.278 153.411C290.545 153.95 290.679 154.597 290.679 155.349C290.679 156.107 290.544 156.759 290.274 157.306C290.004 157.851 289.611 158.27 289.095 158.563C288.579 158.854 287.952 159 287.213 159ZM285.849 158.219H287.156C287.757 158.219 288.256 158.103 288.651 157.871C289.046 157.639 289.341 157.308 289.535 156.88C289.729 156.451 289.827 155.941 289.827 155.349C289.827 154.762 289.731 154.257 289.539 153.833C289.347 153.407 289.061 153.08 288.68 152.853C288.298 152.623 287.824 152.509 287.256 152.509H285.849V158.219ZM294.486 159.099C294.017 159.099 293.599 159.019 293.232 158.858C292.867 158.697 292.577 158.473 292.362 158.187C292.149 157.898 292.033 157.563 292.014 157.182H292.909C292.928 157.416 293.008 157.619 293.15 157.789C293.292 157.957 293.478 158.087 293.708 158.18C293.938 158.272 294.192 158.318 294.471 158.318C294.784 158.318 295.061 158.264 295.302 158.155C295.544 158.046 295.733 157.894 295.871 157.7C296.008 157.506 296.077 157.281 296.077 157.026C296.077 156.758 296.01 156.522 295.878 156.319C295.745 156.113 295.551 155.952 295.295 155.836C295.04 155.72 294.727 155.662 294.358 155.662H293.775V154.881H294.358C294.647 154.881 294.9 154.829 295.118 154.724C295.338 154.62 295.51 154.473 295.633 154.284C295.758 154.095 295.821 153.872 295.821 153.616C295.821 153.37 295.766 153.156 295.657 152.974C295.549 152.791 295.395 152.649 295.196 152.548C294.999 152.446 294.767 152.395 294.5 152.395C294.249 152.395 294.012 152.441 293.79 152.533C293.569 152.623 293.39 152.755 293.25 152.928C293.11 153.098 293.034 153.304 293.023 153.545H292.17C292.184 153.164 292.299 152.83 292.515 152.544C292.73 152.255 293.012 152.03 293.36 151.869C293.71 151.708 294.095 151.628 294.514 151.628C294.964 151.628 295.35 151.719 295.672 151.901C295.994 152.081 296.241 152.319 296.414 152.615C296.587 152.911 296.673 153.231 296.673 153.574C296.673 153.983 296.565 154.333 296.35 154.621C296.137 154.91 295.847 155.11 295.48 155.222V155.278C295.939 155.354 296.298 155.549 296.556 155.864C296.814 156.177 296.943 156.564 296.943 157.026C296.943 157.421 296.835 157.776 296.62 158.091C296.407 158.403 296.116 158.65 295.746 158.83C295.377 159.009 294.957 159.099 294.486 159.099ZM300.768 159H298.523V151.727H300.867C301.573 151.727 302.176 151.873 302.678 152.164C303.18 152.453 303.565 152.868 303.832 153.411C304.1 153.95 304.233 154.597 304.233 155.349C304.233 156.107 304.099 156.759 303.829 157.306C303.559 157.851 303.166 158.27 302.65 158.563C302.134 158.854 301.506 159 300.768 159ZM299.404 158.219H300.711C301.312 158.219 301.81 158.103 302.206 157.871C302.601 157.639 302.896 157.308 303.09 156.88C303.284 156.451 303.381 155.941 303.381 155.349C303.381 154.762 303.285 154.257 303.094 153.833C302.902 153.407 302.615 153.08 302.234 152.853C301.853 152.623 301.378 152.509 300.81 152.509H299.404V158.219Z" fill="#FFAD3D"/>
<rect x="266" y="142" width="100" height="40" rx="20" transform="rotate(-90 266 142)" fill="#FFAD3D"/>
<rect x="352" y="24" width="140" height="150" rx="20" fill="white"/>
<path d="M376.253 159V158.361L378.653 155.733C378.935 155.425 379.167 155.158 379.349 154.93C379.532 154.701 379.667 154.485 379.754 154.284C379.844 154.08 379.889 153.867 379.889 153.645C379.889 153.389 379.828 153.168 379.705 152.981C379.584 152.794 379.418 152.649 379.207 152.548C378.997 152.446 378.76 152.395 378.497 152.395C378.218 152.395 377.974 152.453 377.766 152.569C377.56 152.683 377.4 152.842 377.286 153.048C377.175 153.254 377.119 153.496 377.119 153.773H376.281C376.281 153.347 376.379 152.973 376.576 152.651C376.772 152.329 377.04 152.078 377.379 151.898C377.719 151.718 378.102 151.628 378.526 151.628C378.952 151.628 379.329 151.718 379.658 151.898C379.987 152.078 380.246 152.32 380.433 152.626C380.62 152.931 380.713 153.271 380.713 153.645C380.713 153.912 380.665 154.174 380.567 154.43C380.473 154.683 380.307 154.966 380.07 155.278C379.836 155.589 379.51 155.967 379.094 156.415L377.46 158.162V158.219H380.841V159H376.253ZM384.68 159.099C384.145 159.099 383.689 158.954 383.312 158.663C382.936 158.369 382.648 157.944 382.45 157.388C382.251 156.829 382.151 156.154 382.151 155.364C382.151 154.578 382.251 153.906 382.45 153.35C382.651 152.791 382.94 152.365 383.316 152.072C383.695 151.776 384.149 151.628 384.68 151.628C385.21 151.628 385.663 151.776 386.04 152.072C386.419 152.365 386.707 152.791 386.906 153.35C387.107 153.906 387.208 154.578 387.208 155.364C387.208 156.154 387.109 156.829 386.91 157.388C386.711 157.944 386.423 158.369 386.047 158.663C385.67 158.954 385.215 159.099 384.68 159.099ZM384.68 158.318C385.21 158.318 385.622 158.062 385.915 157.551C386.209 157.04 386.356 156.311 386.356 155.364C386.356 154.734 386.288 154.198 386.153 153.755C386.021 153.312 385.829 152.975 385.578 152.743C385.33 152.511 385.03 152.395 384.68 152.395C384.154 152.395 383.743 152.654 383.447 153.173C383.152 153.689 383.004 154.419 383.004 155.364C383.004 155.993 383.07 156.528 383.202 156.969C383.335 157.409 383.526 157.744 383.774 157.974C384.025 158.203 384.327 158.318 384.68 158.318ZM388.589 159L391.842 152.565V152.509H388.092V151.727H392.751V152.551L389.513 159H388.589ZM396.25 159.099C395.834 159.099 395.458 159.017 395.124 158.851C394.791 158.685 394.523 158.458 394.322 158.169C394.121 157.88 394.011 157.551 393.992 157.182H394.844C394.877 157.511 395.026 157.783 395.291 157.999C395.559 158.212 395.878 158.318 396.25 158.318C396.548 158.318 396.814 158.248 397.046 158.109C397.28 157.969 397.463 157.777 397.596 157.533C397.731 157.287 397.798 157.009 397.798 156.699C397.798 156.382 397.729 156.099 397.589 155.85C397.452 155.599 397.262 155.402 397.021 155.257C396.779 155.113 396.503 155.039 396.193 155.037C395.971 155.035 395.742 155.069 395.508 155.14C395.274 155.209 395.081 155.297 394.929 155.406L394.105 155.307L394.546 151.727H398.324V152.509H395.284L395.029 154.653H395.071C395.22 154.535 395.407 154.437 395.632 154.359C395.857 154.281 396.092 154.241 396.335 154.241C396.78 154.241 397.177 154.348 397.525 154.561C397.875 154.772 398.15 155.061 398.349 155.428C398.55 155.795 398.651 156.214 398.651 156.685C398.651 157.149 398.547 157.563 398.338 157.928C398.132 158.29 397.848 158.576 397.486 158.787C397.124 158.995 396.712 159.099 396.25 159.099ZM400.189 159V151.727H404.578V152.509H401.07V154.966H404.351V155.747H401.07V158.219H404.635V159H400.189ZM406.166 159V151.727H408.708C409.215 151.727 409.633 151.815 409.962 151.99C410.291 152.163 410.536 152.396 410.697 152.69C410.858 152.981 410.939 153.304 410.939 153.659C410.939 153.972 410.883 154.23 410.772 154.433C410.663 154.637 410.518 154.798 410.338 154.916C410.161 155.035 409.968 155.122 409.76 155.179V155.25C409.982 155.264 410.206 155.342 410.431 155.484C410.656 155.626 410.844 155.83 410.995 156.095C411.147 156.36 411.223 156.685 411.223 157.068C411.223 157.433 411.14 157.761 410.974 158.052C410.808 158.343 410.547 158.574 410.189 158.744C409.832 158.915 409.367 159 408.794 159H406.166ZM407.047 158.219H408.794C409.369 158.219 409.777 158.107 410.019 157.885C410.263 157.66 410.385 157.388 410.385 157.068C410.385 156.822 410.322 156.595 410.196 156.386C410.071 156.176 409.892 156.008 409.66 155.882C409.428 155.754 409.154 155.69 408.836 155.69H407.047V158.219ZM407.047 154.923H408.68C408.945 154.923 409.184 154.871 409.397 154.767C409.613 154.663 409.783 154.516 409.909 154.327C410.037 154.137 410.1 153.915 410.1 153.659C410.1 153.339 409.989 153.068 409.767 152.846C409.544 152.621 409.191 152.509 408.708 152.509H407.047V154.923Z" fill="#2075EB"/>
<rect x="374" y="142" width="100" height="40" rx="20" transform="rotate(-90 374 142)" fill="#2075EB"/>
<path d="M432.082 157.509V156.784L435.278 151.727H435.804V152.849H435.449L433.034 156.67V156.727H437.338V157.509H432.082ZM435.506 159V157.288V156.951V151.727H436.344V159H435.506ZM440.984 151.628C441.282 151.63 441.581 151.687 441.879 151.798C442.177 151.91 442.45 152.094 442.696 152.352C442.942 152.608 443.14 152.957 443.289 153.4C443.438 153.843 443.513 154.398 443.513 155.065C443.513 155.712 443.451 156.286 443.328 156.788C443.207 157.287 443.032 157.709 442.802 158.052C442.575 158.395 442.298 158.656 441.971 158.833C441.647 159.011 441.28 159.099 440.871 159.099C440.463 159.099 440.1 159.019 439.78 158.858C439.463 158.695 439.203 158.469 438.999 158.18C438.798 157.888 438.669 157.551 438.612 157.168H439.479C439.557 157.501 439.712 157.777 439.944 157.995C440.178 158.21 440.487 158.318 440.871 158.318C441.432 158.318 441.874 158.073 442.199 157.583C442.525 157.093 442.689 156.401 442.689 155.506H442.632C442.499 155.705 442.342 155.876 442.16 156.021C441.977 156.165 441.775 156.276 441.552 156.354C441.33 156.433 441.093 156.472 440.842 156.472C440.425 156.472 440.043 156.369 439.695 156.163C439.349 155.954 439.073 155.669 438.864 155.307C438.658 154.942 438.555 154.526 438.555 154.057C438.555 153.612 438.655 153.205 438.854 152.835C439.055 152.464 439.336 152.168 439.699 151.947C440.063 151.727 440.492 151.621 440.984 151.628ZM440.984 152.409C440.686 152.409 440.417 152.484 440.178 152.633C439.941 152.78 439.753 152.978 439.613 153.229C439.476 153.478 439.407 153.754 439.407 154.057C439.407 154.36 439.474 154.636 439.606 154.884C439.741 155.13 439.925 155.327 440.157 155.474C440.391 155.618 440.657 155.69 440.956 155.69C441.181 155.69 441.39 155.647 441.584 155.559C441.778 155.469 441.948 155.347 442.092 155.193C442.239 155.037 442.354 154.861 442.437 154.664C442.519 154.465 442.561 154.258 442.561 154.043C442.561 153.759 442.492 153.492 442.355 153.244C442.22 152.995 442.033 152.794 441.794 152.64C441.557 152.486 441.287 152.409 440.984 152.409ZM447.224 151.628C447.523 151.63 447.821 151.687 448.119 151.798C448.418 151.91 448.69 152.094 448.936 152.352C449.182 152.608 449.38 152.957 449.529 153.4C449.678 153.843 449.753 154.398 449.753 155.065C449.753 155.712 449.691 156.286 449.568 156.788C449.447 157.287 449.272 157.709 449.043 158.052C448.815 158.395 448.538 158.656 448.212 158.833C447.887 159.011 447.52 159.099 447.111 159.099C446.704 159.099 446.34 159.019 446.021 158.858C445.703 158.695 445.443 158.469 445.239 158.18C445.038 157.888 444.909 157.551 444.852 157.168H445.719C445.797 157.501 445.952 157.777 446.184 157.995C446.418 158.21 446.727 158.318 447.111 158.318C447.672 158.318 448.115 158.073 448.439 157.583C448.766 157.093 448.929 156.401 448.929 155.506H448.872C448.74 155.705 448.582 155.876 448.4 156.021C448.218 156.165 448.015 156.276 447.793 156.354C447.57 156.433 447.333 156.472 447.082 156.472C446.666 156.472 446.283 156.369 445.935 156.163C445.59 155.954 445.313 155.669 445.104 155.307C444.898 154.942 444.795 154.526 444.795 154.057C444.795 153.612 444.895 153.205 445.094 152.835C445.295 152.464 445.577 152.168 445.939 151.947C446.304 151.727 446.732 151.621 447.224 151.628ZM447.224 152.409C446.926 152.409 446.657 152.484 446.418 152.633C446.182 152.78 445.993 152.978 445.854 153.229C445.716 153.478 445.648 153.754 445.648 154.057C445.648 154.36 445.714 154.636 445.847 154.884C445.982 155.13 446.165 155.327 446.397 155.474C446.631 155.618 446.898 155.69 447.196 155.69C447.421 155.69 447.63 155.647 447.825 155.559C448.019 155.469 448.188 155.347 448.332 155.193C448.479 155.037 448.594 154.861 448.677 154.664C448.76 154.465 448.801 154.258 448.801 154.043C448.801 153.759 448.732 153.492 448.595 153.244C448.46 152.995 448.273 152.794 448.034 152.64C447.797 152.486 447.527 152.409 447.224 152.409ZM451.181 159L454.434 152.565V152.509H450.684V151.727H455.343V152.551L452.105 159H451.181ZM456.795 159V151.727H461.156V152.509H457.675V154.966H460.829V155.747H457.675V159H456.795ZM462.054 159H461.131L463.801 151.727H464.71L467.381 159H466.457L464.284 152.878H464.227L462.054 159ZM462.395 156.159H466.116V156.94H462.395V156.159Z" fill="#4997FA"/>
<rect x="430" y="142" width="100" height="40" rx="20" transform="rotate(-90 430 142)" fill="#4997FA"/>
<rect x="516" y="24" width="200" height="150" rx="20" fill="white"/>
<rect x="540" y="142" width="100" height="40" rx="20" transform="rotate(-90 540 142)" fill="#00C2A1"/>
<path d="M544.625 159.099C544.09 159.099 543.634 158.954 543.258 158.663C542.881 158.369 542.594 157.944 542.395 157.388C542.196 156.829 542.097 156.154 542.097 155.364C542.097 154.578 542.196 153.906 542.395 153.35C542.596 152.791 542.885 152.365 543.261 152.072C543.64 151.776 544.095 151.628 544.625 151.628C545.155 151.628 545.609 151.776 545.985 152.072C546.364 152.365 546.653 152.791 546.852 153.35C547.053 153.906 547.153 154.578 547.153 155.364C547.153 156.154 547.054 156.829 546.855 157.388C546.656 157.944 546.369 158.369 545.992 158.663C545.616 158.954 545.16 159.099 544.625 159.099ZM544.625 158.318C545.155 158.318 545.567 158.062 545.861 157.551C546.154 157.04 546.301 156.311 546.301 155.364C546.301 154.734 546.234 154.198 546.099 153.755C545.966 153.312 545.774 152.975 545.523 152.743C545.275 152.511 544.975 152.395 544.625 152.395C544.099 152.395 543.689 152.654 543.393 153.173C543.097 153.689 542.949 154.419 542.949 155.364C542.949 155.993 543.015 156.528 543.148 156.969C543.28 157.409 543.471 157.744 543.719 157.974C543.97 158.203 544.272 158.318 544.625 158.318ZM550.875 159.099C550.34 159.099 549.884 158.954 549.508 158.663C549.131 158.369 548.844 157.944 548.645 157.388C548.446 156.829 548.347 156.154 548.347 155.364C548.347 154.578 548.446 153.906 548.645 153.35C548.846 152.791 549.135 152.365 549.511 152.072C549.89 151.776 550.345 151.628 550.875 151.628C551.405 151.628 551.859 151.776 552.235 152.072C552.614 152.365 552.903 152.791 553.102 153.35C553.303 153.906 553.403 154.578 553.403 155.364C553.403 156.154 553.304 156.829 553.105 157.388C552.906 157.944 552.619 158.369 552.242 158.663C551.866 158.954 551.41 159.099 550.875 159.099ZM550.875 158.318C551.405 158.318 551.817 158.062 552.111 157.551C552.404 157.04 552.551 156.311 552.551 155.364C552.551 154.734 552.484 154.198 552.349 153.755C552.216 153.312 552.024 152.975 551.773 152.743C551.525 152.511 551.225 152.395 550.875 152.395C550.349 152.395 549.939 152.654 549.643 153.173C549.347 153.689 549.199 154.419 549.199 155.364C549.199 155.993 549.265 156.528 549.398 156.969C549.53 157.409 549.721 157.744 549.969 157.974C550.22 158.203 550.522 158.318 550.875 158.318ZM560.733 154H559.852C559.8 153.747 559.709 153.524 559.579 153.332C559.451 153.141 559.295 152.98 559.11 152.849C558.928 152.717 558.725 152.617 558.503 152.551C558.28 152.485 558.048 152.452 557.807 152.452C557.366 152.452 556.968 152.563 556.61 152.786C556.255 153.008 555.972 153.336 555.761 153.769C555.553 154.202 555.449 154.734 555.449 155.364C555.449 155.993 555.553 156.525 555.761 156.958C555.972 157.391 556.255 157.719 556.61 157.942C556.968 158.164 557.366 158.276 557.807 158.276C558.048 158.276 558.28 158.242 558.503 158.176C558.725 158.11 558.928 158.012 559.11 157.881C559.295 157.749 559.451 157.587 559.579 157.395C559.709 157.201 559.8 156.978 559.852 156.727H560.733C560.667 157.099 560.546 157.432 560.371 157.725C560.196 158.019 559.978 158.268 559.717 158.474C559.457 158.678 559.165 158.833 558.84 158.94C558.518 159.046 558.174 159.099 557.807 159.099C557.187 159.099 556.635 158.948 556.152 158.645C555.669 158.342 555.289 157.911 555.012 157.352C554.735 156.794 554.597 156.131 554.597 155.364C554.597 154.597 554.735 153.934 555.012 153.375C555.289 152.816 555.669 152.385 556.152 152.082C556.635 151.779 557.187 151.628 557.807 151.628C558.174 151.628 558.518 151.681 558.84 151.788C559.165 151.894 559.457 152.05 559.717 152.256C559.978 152.46 560.196 152.709 560.371 153.002C560.546 153.293 560.667 153.626 560.733 154ZM562.028 159V158.361L564.429 155.733C564.711 155.425 564.943 155.158 565.125 154.93C565.307 154.701 565.442 154.485 565.53 154.284C565.62 154.08 565.665 153.867 565.665 153.645C565.665 153.389 565.603 153.168 565.48 152.981C565.359 152.794 565.193 152.649 564.983 152.548C564.772 152.446 564.535 152.395 564.273 152.395C563.993 152.395 563.749 152.453 563.541 152.569C563.335 152.683 563.175 152.842 563.062 153.048C562.95 153.254 562.895 153.496 562.895 153.773H562.057C562.057 153.347 562.155 152.973 562.351 152.651C562.548 152.329 562.815 152.078 563.154 151.898C563.495 151.718 563.877 151.628 564.301 151.628C564.727 151.628 565.105 151.718 565.434 151.898C565.763 152.078 566.021 152.32 566.208 152.626C566.395 152.931 566.488 153.271 566.488 153.645C566.488 153.912 566.44 154.174 566.343 154.43C566.248 154.683 566.082 154.966 565.846 155.278C565.611 155.589 565.286 155.967 564.869 156.415L563.236 158.162V158.219H566.616V159H562.028ZM568.509 159H567.586L570.256 151.727H571.165L573.836 159H572.912L570.739 152.878H570.682L568.509 159ZM568.85 156.159H572.572V156.94H568.85V156.159ZM577.056 151.727V159H576.175V152.651H576.132L574.357 153.83V152.935L576.175 151.727H577.056Z" fill="#00C2A1"/>
<rect x="596" y="142" width="100" height="40" rx="20" transform="rotate(-90 596 142)" fill="#10B9C9"/>
<path d="M600.31 151.727V159H599.429V152.651H599.386L597.611 153.83V152.935L599.429 151.727H600.31ZM604.773 159.099C604.238 159.099 603.783 158.954 603.406 158.663C603.03 158.369 602.742 157.944 602.543 157.388C602.344 156.829 602.245 156.154 602.245 155.364C602.245 154.578 602.344 153.906 602.543 153.35C602.745 152.791 603.033 152.365 603.41 152.072C603.789 151.776 604.243 151.628 604.773 151.628C605.304 151.628 605.757 151.776 606.134 152.072C606.512 152.365 606.801 152.791 607 153.35C607.201 153.906 607.302 154.578 607.302 155.364C607.302 156.154 607.202 156.829 607.004 157.388C606.805 157.944 606.517 158.369 606.141 158.663C605.764 158.954 605.308 159.099 604.773 159.099ZM604.773 158.318C605.304 158.318 605.716 158.062 606.009 157.551C606.303 157.04 606.45 156.311 606.45 155.364C606.45 154.734 606.382 154.198 606.247 153.755C606.115 153.312 605.923 152.975 605.672 152.743C605.423 152.511 605.124 152.395 604.773 152.395C604.248 152.395 603.837 152.654 603.541 153.173C603.245 153.689 603.097 154.419 603.097 155.364C603.097 155.993 603.164 156.528 603.296 156.969C603.429 157.409 603.619 157.744 603.868 157.974C604.119 158.203 604.421 158.318 604.773 158.318ZM608.779 159V151.727H611.322C611.828 151.727 612.246 151.815 612.575 151.99C612.904 152.163 613.149 152.396 613.31 152.69C613.471 152.981 613.552 153.304 613.552 153.659C613.552 153.972 613.496 154.23 613.385 154.433C613.276 154.637 613.132 154.798 612.952 154.916C612.774 155.035 612.581 155.122 612.373 155.179V155.25C612.595 155.264 612.819 155.342 613.044 155.484C613.269 155.626 613.457 155.83 613.609 156.095C613.76 156.36 613.836 156.685 613.836 157.068C613.836 157.433 613.753 157.761 613.587 158.052C613.422 158.343 613.16 158.574 612.803 158.744C612.445 158.915 611.98 159 611.407 159H608.779ZM609.66 158.219H611.407C611.982 158.219 612.391 158.107 612.632 157.885C612.876 157.66 612.998 157.388 612.998 157.068C612.998 156.822 612.935 156.595 612.81 156.386C612.684 156.176 612.505 156.008 612.273 155.882C612.041 155.754 611.767 155.69 611.45 155.69H609.66V158.219ZM609.66 154.923H611.293C611.558 154.923 611.798 154.871 612.011 154.767C612.226 154.663 612.397 154.516 612.522 154.327C612.65 154.137 612.714 153.915 612.714 153.659C612.714 153.339 612.603 153.068 612.38 152.846C612.157 152.621 611.805 152.509 611.322 152.509H609.66V154.923ZM617.471 151.628C617.769 151.63 618.067 151.687 618.365 151.798C618.664 151.91 618.936 152.094 619.182 152.352C619.428 152.608 619.626 152.957 619.775 153.4C619.924 153.843 619.999 154.398 619.999 155.065C619.999 155.712 619.937 156.286 619.814 156.788C619.694 157.287 619.518 157.709 619.289 158.052C619.061 158.395 618.784 158.656 618.458 158.833C618.133 159.011 617.766 159.099 617.357 159.099C616.95 159.099 616.586 159.019 616.267 158.858C615.949 158.695 615.689 158.469 615.485 158.18C615.284 157.888 615.155 157.551 615.098 157.168H615.965C616.043 157.501 616.198 157.777 616.43 157.995C616.664 158.21 616.973 158.318 617.357 158.318C617.918 158.318 618.361 158.073 618.685 157.583C619.012 157.093 619.175 156.401 619.175 155.506H619.118C618.986 155.705 618.828 155.876 618.646 156.021C618.464 156.165 618.261 156.276 618.039 156.354C617.816 156.433 617.579 156.472 617.328 156.472C616.912 156.472 616.529 156.369 616.181 156.163C615.836 155.954 615.559 155.669 615.35 155.307C615.145 154.942 615.042 154.526 615.042 154.057C615.042 153.612 615.141 153.205 615.34 152.835C615.541 152.464 615.823 152.168 616.185 151.947C616.55 151.727 616.978 151.621 617.471 151.628ZM617.471 152.409C617.172 152.409 616.904 152.484 616.664 152.633C616.428 152.78 616.239 152.978 616.1 153.229C615.962 153.478 615.894 153.754 615.894 154.057C615.894 154.36 615.96 154.636 616.093 154.884C616.228 155.13 616.411 155.327 616.643 155.474C616.877 155.618 617.144 155.69 617.442 155.69C617.667 155.69 617.877 155.647 618.071 155.559C618.265 155.469 618.434 155.347 618.578 155.193C618.725 155.037 618.84 154.861 618.923 154.664C619.006 154.465 619.047 154.258 619.047 154.043C619.047 153.759 618.979 153.492 618.841 153.244C618.706 152.995 618.519 152.794 618.28 152.64C618.043 152.486 617.774 152.409 617.471 152.409ZM627.376 154H626.495C626.443 153.747 626.352 153.524 626.221 153.332C626.094 153.141 625.937 152.98 625.753 152.849C625.57 152.717 625.368 152.617 625.145 152.551C624.923 152.485 624.691 152.452 624.449 152.452C624.009 152.452 623.61 152.563 623.253 152.786C622.898 153.008 622.615 153.336 622.404 153.769C622.196 154.202 622.091 154.734 622.091 155.364C622.091 155.993 622.196 156.525 622.404 156.958C622.615 157.391 622.898 157.719 623.253 157.942C623.61 158.164 624.009 158.276 624.449 158.276C624.691 158.276 624.923 158.242 625.145 158.176C625.368 158.11 625.57 158.012 625.753 157.881C625.937 157.749 626.094 157.587 626.221 157.395C626.352 157.201 626.443 156.978 626.495 156.727H627.376C627.309 157.099 627.189 157.432 627.013 157.725C626.838 158.019 626.62 158.268 626.36 158.474C626.099 158.678 625.807 158.833 625.483 158.94C625.161 159.046 624.816 159.099 624.449 159.099C623.829 159.099 623.278 158.948 622.795 158.645C622.312 158.342 621.932 157.911 621.655 157.352C621.378 156.794 621.239 156.131 621.239 155.364C621.239 154.597 621.378 153.934 621.655 153.375C621.932 152.816 622.312 152.385 622.795 152.082C623.278 151.779 623.829 151.628 624.449 151.628C624.816 151.628 625.161 151.681 625.483 151.788C625.807 151.894 626.099 152.05 626.36 152.256C626.62 152.46 626.838 152.709 627.013 153.002C627.189 153.293 627.309 153.626 627.376 154ZM630.986 151.628C631.284 151.63 631.583 151.687 631.881 151.798C632.179 151.91 632.452 152.094 632.698 152.352C632.944 152.608 633.142 152.957 633.291 153.4C633.44 153.843 633.515 154.398 633.515 155.065C633.515 155.712 633.453 156.286 633.33 156.788C633.209 157.287 633.034 157.709 632.804 158.052C632.577 158.395 632.3 158.656 631.973 158.833C631.649 159.011 631.282 159.099 630.873 159.099C630.465 159.099 630.102 159.019 629.782 158.858C629.465 158.695 629.205 158.469 629.001 158.18C628.8 157.888 628.671 157.551 628.614 157.168H629.48C629.559 157.501 629.714 157.777 629.946 157.995C630.18 158.21 630.489 158.318 630.873 158.318C631.434 158.318 631.876 158.073 632.201 157.583C632.527 157.093 632.691 156.401 632.691 155.506H632.634C632.501 155.705 632.344 155.876 632.162 156.021C631.979 156.165 631.777 156.276 631.554 156.354C631.332 156.433 631.095 156.472 630.844 156.472C630.427 156.472 630.045 156.369 629.697 156.163C629.351 155.954 629.074 155.669 628.866 155.307C628.66 154.942 628.557 154.526 628.557 154.057C628.557 153.612 628.657 153.205 628.855 152.835C629.057 152.464 629.338 152.168 629.701 151.947C630.065 151.727 630.494 151.621 630.986 151.628ZM630.986 152.409C630.688 152.409 630.419 152.484 630.18 152.633C629.943 152.78 629.755 152.978 629.615 153.229C629.478 153.478 629.409 153.754 629.409 154.057C629.409 154.36 629.476 154.636 629.608 154.884C629.743 155.13 629.927 155.327 630.159 155.474C630.393 155.618 630.659 155.69 630.958 155.69C631.183 155.69 631.392 155.647 631.586 155.559C631.78 155.469 631.95 155.347 632.094 155.193C632.241 155.037 632.356 154.861 632.439 154.664C632.521 154.465 632.563 154.258 632.563 154.043C632.563 153.759 632.494 153.492 632.357 153.244C632.222 152.995 632.035 152.794 631.796 152.64C631.559 152.486 631.289 152.409 630.986 152.409Z" fill="#10B9C9"/>
<rect x="652" y="142" width="100" height="40" rx="20" transform="rotate(-90 652 142)" fill="#E66060"/>
<path d="M653.881 159V151.727H658.27V152.509H654.761V154.966H658.043V155.747H654.761V158.219H658.327V159H653.881ZM662.144 159.099C661.846 159.095 661.548 159.038 661.249 158.929C660.951 158.82 660.679 158.637 660.433 158.379C660.186 158.118 659.989 157.767 659.839 157.324C659.69 156.879 659.616 156.32 659.616 155.648C659.616 155.004 659.676 154.433 659.797 153.936C659.918 153.437 660.093 153.016 660.322 152.675C660.552 152.332 660.829 152.072 661.153 151.894C661.48 151.717 661.848 151.628 662.258 151.628C662.665 151.628 663.027 151.71 663.344 151.873C663.664 152.034 663.924 152.259 664.126 152.548C664.327 152.836 664.457 153.169 664.516 153.545H663.65C663.569 153.219 663.413 152.948 663.181 152.732C662.949 152.517 662.641 152.409 662.258 152.409C661.694 152.409 661.25 152.654 660.926 153.144C660.604 153.634 660.442 154.322 660.44 155.207H660.496C660.629 155.006 660.786 154.835 660.969 154.692C661.153 154.548 661.357 154.437 661.58 154.359C661.802 154.281 662.038 154.241 662.286 154.241C662.703 154.241 663.084 154.346 663.43 154.554C663.775 154.76 664.052 155.045 664.261 155.41C664.469 155.772 664.573 156.188 664.573 156.656C664.573 157.106 664.473 157.518 664.271 157.892C664.07 158.264 663.787 158.56 663.423 158.78C663.06 158.998 662.634 159.104 662.144 159.099ZM662.144 158.318C662.442 158.318 662.71 158.244 662.947 158.094C663.186 157.945 663.374 157.745 663.511 157.494C663.651 157.243 663.721 156.964 663.721 156.656C663.721 156.356 663.653 156.082 663.518 155.836C663.386 155.587 663.202 155.39 662.968 155.243C662.736 155.096 662.471 155.023 662.173 155.023C661.948 155.023 661.738 155.068 661.544 155.158C661.35 155.245 661.179 155.366 661.033 155.52C660.888 155.674 660.775 155.85 660.692 156.049C660.609 156.246 660.567 156.453 660.567 156.67C660.567 156.959 660.635 157.229 660.77 157.48C660.907 157.731 661.094 157.933 661.331 158.087C661.57 158.241 661.841 158.318 662.144 158.318ZM668.384 159.099C668.086 159.095 667.788 159.038 667.49 158.929C667.191 158.82 666.919 158.637 666.673 158.379C666.427 158.118 666.229 157.767 666.08 157.324C665.931 156.879 665.856 156.32 665.856 155.648C665.856 155.004 665.916 154.433 666.037 153.936C666.158 153.437 666.333 153.016 666.563 152.675C666.792 152.332 667.069 152.072 667.394 151.894C667.72 151.717 668.088 151.628 668.498 151.628C668.905 151.628 669.267 151.71 669.585 151.873C669.904 152.034 670.165 152.259 670.366 152.548C670.567 152.836 670.697 153.169 670.757 153.545H669.89C669.81 153.219 669.653 152.948 669.421 152.732C669.189 152.517 668.882 152.409 668.498 152.409C667.935 152.409 667.491 152.654 667.166 153.144C666.844 153.634 666.682 154.322 666.68 155.207H666.737C666.869 155.006 667.027 154.835 667.209 154.692C667.394 154.548 667.597 154.437 667.82 154.359C668.042 154.281 668.278 154.241 668.526 154.241C668.943 154.241 669.324 154.346 669.67 154.554C670.016 154.76 670.293 155.045 670.501 155.41C670.709 155.772 670.813 156.188 670.813 156.656C670.813 157.106 670.713 157.518 670.512 157.892C670.31 158.264 670.027 158.56 669.663 158.78C669.301 158.998 668.874 159.104 668.384 159.099ZM668.384 158.318C668.683 158.318 668.95 158.244 669.187 158.094C669.426 157.945 669.614 157.745 669.752 157.494C669.891 157.243 669.961 156.964 669.961 156.656C669.961 156.356 669.894 156.082 669.759 155.836C669.626 155.587 669.443 155.39 669.208 155.243C668.976 155.096 668.711 155.023 668.413 155.023C668.188 155.023 667.978 155.068 667.784 155.158C667.59 155.245 667.42 155.366 667.273 155.52C667.128 155.674 667.015 155.85 666.932 156.049C666.849 156.246 666.808 156.453 666.808 156.67C666.808 156.959 666.875 157.229 667.01 157.48C667.147 157.731 667.334 157.933 667.571 158.087C667.81 158.241 668.081 158.318 668.384 158.318ZM674.582 159.099C674.047 159.099 673.591 158.954 673.215 158.663C672.838 158.369 672.551 157.944 672.352 157.388C672.153 156.829 672.054 156.154 672.054 155.364C672.054 154.578 672.153 153.906 672.352 153.35C672.553 152.791 672.842 152.365 673.218 152.072C673.597 151.776 674.052 151.628 674.582 151.628C675.112 151.628 675.566 151.776 675.942 152.072C676.321 152.365 676.61 152.791 676.809 153.35C677.01 153.906 677.11 154.578 677.11 155.364C677.11 156.154 677.011 156.829 676.812 157.388C676.613 157.944 676.326 158.369 675.949 158.663C675.573 158.954 675.117 159.099 674.582 159.099ZM674.582 158.318C675.112 158.318 675.524 158.062 675.818 157.551C676.111 157.04 676.258 156.311 676.258 155.364C676.258 154.734 676.191 154.198 676.056 153.755C675.923 153.312 675.731 152.975 675.48 152.743C675.232 152.511 674.932 152.395 674.582 152.395C674.056 152.395 673.646 152.654 673.35 153.173C673.054 153.689 672.906 154.419 672.906 155.364C672.906 155.993 672.972 156.528 673.105 156.969C673.237 157.409 673.428 157.744 673.676 157.974C673.927 158.203 674.229 158.318 674.582 158.318ZM680.875 159.099C680.576 159.095 680.278 159.038 679.98 158.929C679.681 158.82 679.409 158.637 679.163 158.379C678.917 158.118 678.719 157.767 678.57 157.324C678.421 156.879 678.346 156.32 678.346 155.648C678.346 155.004 678.407 154.433 678.527 153.936C678.648 153.437 678.823 153.016 679.053 152.675C679.283 152.332 679.56 152.072 679.884 151.894C680.211 151.717 680.579 151.628 680.988 151.628C681.395 151.628 681.758 151.71 682.075 151.873C682.395 152.034 682.655 152.259 682.856 152.548C683.057 152.836 683.188 153.169 683.247 153.545H682.38C682.3 153.219 682.144 152.948 681.912 152.732C681.68 152.517 681.372 152.409 680.988 152.409C680.425 152.409 679.981 152.654 679.657 153.144C679.335 153.634 679.172 154.322 679.17 155.207H679.227C679.359 155.006 679.517 154.835 679.699 154.692C679.884 154.548 680.087 154.437 680.31 154.359C680.533 154.281 680.768 154.241 681.017 154.241C681.433 154.241 681.815 154.346 682.16 154.554C682.506 154.76 682.783 155.045 682.991 155.41C683.199 155.772 683.304 156.188 683.304 156.656C683.304 157.106 683.203 157.518 683.002 157.892C682.801 158.264 682.518 158.56 682.153 158.78C681.791 158.998 681.365 159.104 680.875 159.099ZM680.875 158.318C681.173 158.318 681.44 158.244 681.677 158.094C681.916 157.945 682.105 157.745 682.242 157.494C682.382 157.243 682.451 156.964 682.451 156.656C682.451 156.356 682.384 156.082 682.249 155.836C682.116 155.587 681.933 155.39 681.699 155.243C681.467 155.096 681.201 155.023 680.903 155.023C680.678 155.023 680.469 155.068 680.275 155.158C680.08 155.245 679.91 155.366 679.763 155.52C679.619 155.674 679.505 155.85 679.422 156.049C679.339 156.246 679.298 156.453 679.298 156.67C679.298 156.959 679.365 157.229 679.5 157.48C679.638 157.731 679.825 157.933 680.061 158.087C680.301 158.241 680.572 158.318 680.875 158.318ZM687.072 159.099C686.537 159.099 686.081 158.954 685.705 158.663C685.329 158.369 685.041 157.944 684.842 157.388C684.643 156.829 684.544 156.154 684.544 155.364C684.544 154.578 684.643 153.906 684.842 153.35C685.043 152.791 685.332 152.365 685.709 152.072C686.087 151.776 686.542 151.628 687.072 151.628C687.603 151.628 688.056 151.776 688.432 152.072C688.811 152.365 689.1 152.791 689.299 153.35C689.5 153.906 689.601 154.578 689.601 155.364C689.601 156.154 689.501 156.829 689.302 157.388C689.104 157.944 688.816 158.369 688.439 158.663C688.063 158.954 687.607 159.099 687.072 159.099ZM687.072 158.318C687.603 158.318 688.015 158.062 688.308 157.551C688.602 157.04 688.748 156.311 688.748 155.364C688.748 154.734 688.681 154.198 688.546 153.755C688.413 153.312 688.222 152.975 687.971 152.743C687.722 152.511 687.423 152.395 687.072 152.395C686.547 152.395 686.136 152.654 685.84 153.173C685.544 153.689 685.396 154.419 685.396 155.364C685.396 155.993 685.462 156.528 685.595 156.969C685.728 157.409 685.918 157.744 686.167 157.974C686.418 158.203 686.72 158.318 687.072 158.318Z" fill="#E66060"/>
<rect x="24" y="197" width="376" height="150" rx="20" fill="white"/>
<path d="M54.2528 334V333.361L56.6534 330.733C56.9351 330.425 57.1671 330.158 57.3494 329.93C57.5317 329.701 57.6667 329.485 57.7543 329.284C57.8442 329.08 57.8892 328.867 57.8892 328.645C57.8892 328.389 57.8277 328.168 57.7045 327.981C57.5838 327.794 57.4181 327.649 57.2074 327.548C56.9967 327.446 56.7599 327.395 56.4972 327.395C56.2178 327.395 55.974 327.453 55.7656 327.569C55.5597 327.683 55.3999 327.842 55.2862 328.048C55.175 328.254 55.1193 328.496 55.1193 328.773H54.2812C54.2812 328.347 54.3795 327.973 54.576 327.651C54.7725 327.329 55.04 327.078 55.3786 326.898C55.7195 326.718 56.1018 326.628 56.5256 326.628C56.9517 326.628 57.3293 326.718 57.6584 326.898C57.9875 327.078 58.2455 327.32 58.4325 327.626C58.6196 327.931 58.7131 328.271 58.7131 328.645C58.7131 328.912 58.6645 329.174 58.5675 329.43C58.4728 329.683 58.3071 329.966 58.0703 330.278C57.8359 330.589 57.5104 330.967 57.0938 331.415L55.4602 333.162V333.219H58.8409V334H54.2528ZM59.9808 332.509V331.784L63.1768 326.727H63.7024V327.849H63.3473L60.9325 331.67V331.727H65.2365V332.509H59.9808ZM63.4041 334V332.288V331.951V326.727H64.2422V334H63.4041ZM66.5673 334V333.361L68.9679 330.733C69.2496 330.425 69.4816 330.158 69.6639 329.93C69.8462 329.701 69.9811 329.485 70.0687 329.284C70.1587 329.08 70.2037 328.867 70.2037 328.645C70.2037 328.389 70.1421 328.168 70.019 327.981C69.8983 327.794 69.7325 327.649 69.5218 327.548C69.3111 327.446 69.0744 327.395 68.8116 327.395C68.5323 327.395 68.2884 327.453 68.0801 327.569C67.8741 327.683 67.7143 327.842 67.6007 328.048C67.4894 328.254 67.4338 328.496 67.4338 328.773H66.5957C66.5957 328.347 66.694 327.973 66.8904 327.651C67.0869 327.329 67.3545 327.078 67.693 326.898C68.0339 326.718 68.4163 326.628 68.84 326.628C69.2662 326.628 69.6438 326.718 69.9728 326.898C70.3019 327.078 70.56 327.32 70.747 327.626C70.934 327.931 71.0275 328.271 71.0275 328.645C71.0275 328.912 70.979 329.174 70.8819 329.43C70.7872 329.683 70.6215 329.966 70.3848 330.278C70.1504 330.589 69.8249 330.967 69.4082 331.415L67.7747 333.162V333.219H71.1554V334H66.5673ZM72.8493 334L76.1021 327.565V327.509H72.3521V326.727H77.0112V327.551L73.7725 334H72.8493ZM78.3349 334V333.361L80.7354 330.733C81.0172 330.425 81.2492 330.158 81.4315 329.93C81.6138 329.701 81.7487 329.485 81.8363 329.284C81.9263 329.08 81.9712 328.867 81.9712 328.645C81.9712 328.389 81.9097 328.168 81.7866 327.981C81.6658 327.794 81.5001 327.649 81.2894 327.548C81.0787 327.446 80.842 327.395 80.5792 327.395C80.2998 327.395 80.056 327.453 79.8477 327.569C79.6417 327.683 79.4819 327.842 79.3683 328.048C79.257 328.254 79.2013 328.496 79.2013 328.773H78.3633C78.3633 328.347 78.4615 327.973 78.658 327.651C78.8545 327.329 79.122 327.078 79.4606 326.898C79.8015 326.718 80.1838 326.628 80.6076 326.628C81.0337 326.628 81.4113 326.718 81.7404 326.898C82.0695 327.078 82.3275 327.32 82.5146 327.626C82.7016 327.931 82.7951 328.271 82.7951 328.645C82.7951 328.912 82.7466 329.174 82.6495 329.43C82.5548 329.683 82.3891 329.966 82.1523 330.278C81.918 330.589 81.5924 330.967 81.1758 331.415L79.5423 333.162V333.219H82.9229V334H78.3349ZM84.5174 334V326.727H87.06C87.5666 326.727 87.9845 326.815 88.3136 326.99C88.6426 327.163 88.8877 327.396 89.0487 327.69C89.2096 327.981 89.2901 328.304 89.2901 328.659C89.2901 328.972 89.2345 329.23 89.1232 329.433C89.0143 329.637 88.8699 329.798 88.69 329.916C88.5124 330.035 88.3195 330.122 88.1112 330.179V330.25C88.3337 330.264 88.5574 330.342 88.7823 330.484C89.0072 330.626 89.1954 330.83 89.3469 331.095C89.4985 331.36 89.5742 331.685 89.5742 332.068C89.5742 332.433 89.4914 332.761 89.3256 333.052C89.1599 333.343 88.8983 333.574 88.5408 333.744C88.1834 333.915 87.7182 334 87.1452 334H84.5174ZM85.3981 333.219H87.1452C87.7205 333.219 88.1289 333.107 88.3704 332.885C88.6142 332.66 88.7362 332.388 88.7362 332.068C88.7362 331.822 88.6734 331.595 88.5479 331.386C88.4225 331.176 88.2437 331.008 88.0117 330.882C87.7797 330.754 87.5051 330.69 87.1879 330.69H85.3981V333.219ZM85.3981 329.923H87.0316C87.2968 329.923 87.5359 329.871 87.7489 329.767C87.9644 329.663 88.1348 329.516 88.2603 329.327C88.3881 329.137 88.4521 328.915 88.4521 328.659C88.4521 328.339 88.3408 328.068 88.1183 327.846C87.8957 327.621 87.543 327.509 87.06 327.509H85.3981V329.923Z" fill="#24272B"/>
<rect x="52" y="316" width="100" height="40" rx="20" transform="rotate(-90 52 316)" fill="#24272B"/>
<path d="M110.253 334V333.361L112.653 330.733C112.935 330.425 113.167 330.158 113.349 329.93C113.532 329.701 113.667 329.485 113.754 329.284C113.844 329.08 113.889 328.867 113.889 328.645C113.889 328.389 113.828 328.168 113.705 327.981C113.584 327.794 113.418 327.649 113.207 327.548C112.997 327.446 112.76 327.395 112.497 327.395C112.218 327.395 111.974 327.453 111.766 327.569C111.56 327.683 111.4 327.842 111.286 328.048C111.175 328.254 111.119 328.496 111.119 328.773H110.281C110.281 328.347 110.379 327.973 110.576 327.651C110.772 327.329 111.04 327.078 111.379 326.898C111.719 326.718 112.102 326.628 112.526 326.628C112.952 326.628 113.329 326.718 113.658 326.898C113.987 327.078 114.246 327.32 114.433 327.626C114.62 327.931 114.713 328.271 114.713 328.645C114.713 328.912 114.665 329.174 114.567 329.43C114.473 329.683 114.307 329.966 114.07 330.278C113.836 330.589 113.51 330.967 113.094 331.415L111.46 333.162V333.219H114.841V334H110.253ZM116.435 334V326.727H120.825V327.509H117.316V329.966H120.597V330.747H117.316V333.219H120.881V334H116.435ZM124.741 334.099C124.273 334.099 123.855 334.019 123.488 333.858C123.123 333.697 122.833 333.473 122.618 333.187C122.405 332.898 122.289 332.563 122.27 332.182H123.165C123.184 332.416 123.264 332.619 123.406 332.789C123.548 332.957 123.734 333.087 123.964 333.18C124.193 333.272 124.448 333.318 124.727 333.318C125.04 333.318 125.317 333.264 125.558 333.155C125.8 333.046 125.989 332.894 126.126 332.7C126.264 332.506 126.332 332.281 126.332 332.026C126.332 331.758 126.266 331.522 126.134 331.319C126.001 331.113 125.807 330.952 125.551 330.836C125.295 330.72 124.983 330.662 124.614 330.662H124.031V329.881H124.614C124.902 329.881 125.156 329.829 125.374 329.724C125.594 329.62 125.765 329.473 125.888 329.284C126.014 329.095 126.077 328.872 126.077 328.616C126.077 328.37 126.022 328.156 125.913 327.974C125.804 327.791 125.651 327.649 125.452 327.548C125.255 327.446 125.023 327.395 124.756 327.395C124.505 327.395 124.268 327.441 124.045 327.533C123.825 327.623 123.645 327.755 123.506 327.928C123.366 328.098 123.29 328.304 123.278 328.545H122.426C122.44 328.164 122.555 327.83 122.771 327.544C122.986 327.255 123.268 327.03 123.616 326.869C123.966 326.708 124.351 326.628 124.77 326.628C125.22 326.628 125.606 326.719 125.928 326.901C126.25 327.081 126.497 327.319 126.67 327.615C126.843 327.911 126.929 328.231 126.929 328.574C126.929 328.983 126.821 329.333 126.606 329.621C126.393 329.91 126.103 330.11 125.736 330.222V330.278C126.195 330.354 126.554 330.549 126.812 330.864C127.07 331.177 127.199 331.564 127.199 332.026C127.199 332.421 127.091 332.776 126.876 333.091C126.663 333.403 126.371 333.65 126.002 333.83C125.633 334.009 125.213 334.099 124.741 334.099ZM128.651 334V333.361L131.052 330.733C131.334 330.425 131.566 330.158 131.748 329.93C131.93 329.701 132.065 329.485 132.153 329.284C132.243 329.08 132.288 328.867 132.288 328.645C132.288 328.389 132.226 328.168 132.103 327.981C131.982 327.794 131.817 327.649 131.606 327.548C131.395 327.446 131.158 327.395 130.896 327.395C130.616 327.395 130.372 327.453 130.164 327.569C129.958 327.683 129.798 327.842 129.685 328.048C129.573 328.254 129.518 328.496 129.518 328.773H128.68C128.68 328.347 128.778 327.973 128.974 327.651C129.171 327.329 129.438 327.078 129.777 326.898C130.118 326.718 130.5 326.628 130.924 326.628C131.35 326.628 131.728 326.718 132.057 326.898C132.386 327.078 132.644 327.32 132.831 327.626C133.018 327.931 133.112 328.271 133.112 328.645C133.112 328.912 133.063 329.174 132.966 329.43C132.871 329.683 132.705 329.966 132.469 330.278C132.234 330.589 131.909 330.967 131.492 331.415L129.859 333.162V333.219H133.239V334H128.651ZM137.163 334.099C136.695 334.099 136.277 334.019 135.91 333.858C135.545 333.697 135.255 333.473 135.04 333.187C134.827 332.898 134.711 332.563 134.692 332.182H135.587C135.606 332.416 135.686 332.619 135.828 332.789C135.97 332.957 136.156 333.087 136.386 333.18C136.615 333.272 136.87 333.318 137.149 333.318C137.462 333.318 137.739 333.264 137.98 333.155C138.222 333.046 138.411 332.894 138.548 332.7C138.686 332.506 138.754 332.281 138.754 332.026C138.754 331.758 138.688 331.522 138.555 331.319C138.423 331.113 138.229 330.952 137.973 330.836C137.717 330.72 137.405 330.662 137.036 330.662H136.453V329.881H137.036C137.324 329.881 137.578 329.829 137.795 329.724C138.016 329.62 138.187 329.473 138.31 329.284C138.436 329.095 138.499 328.872 138.499 328.616C138.499 328.37 138.444 328.156 138.335 327.974C138.226 327.791 138.072 327.649 137.874 327.548C137.677 327.446 137.445 327.395 137.178 327.395C136.927 327.395 136.69 327.441 136.467 327.533C136.247 327.623 136.067 327.755 135.928 327.928C135.788 328.098 135.712 328.304 135.7 328.545H134.848C134.862 328.164 134.977 327.83 135.192 327.544C135.408 327.255 135.69 327.03 136.038 326.869C136.388 326.708 136.773 326.628 137.192 326.628C137.642 326.628 138.027 326.719 138.349 326.901C138.671 327.081 138.919 327.319 139.092 327.615C139.264 327.911 139.351 328.231 139.351 328.574C139.351 328.983 139.243 329.333 139.028 329.621C138.815 329.91 138.525 330.11 138.158 330.222V330.278C138.617 330.354 138.976 330.549 139.234 330.864C139.492 331.177 139.621 331.564 139.621 332.026C139.621 332.421 139.513 332.776 139.298 333.091C139.085 333.403 138.793 333.65 138.424 333.83C138.055 334.009 137.634 334.099 137.163 334.099ZM143.403 334.099C142.915 334.099 142.484 334.013 142.11 333.84C141.738 333.665 141.448 333.425 141.24 333.119C141.032 332.812 140.929 332.461 140.931 332.068C140.929 331.76 140.989 331.476 141.112 331.216C141.235 330.953 141.403 330.734 141.616 330.559C141.832 330.381 142.072 330.269 142.337 330.222V330.179C141.989 330.089 141.712 329.894 141.506 329.593C141.3 329.29 141.199 328.946 141.201 328.56C141.199 328.19 141.292 327.86 141.482 327.569C141.671 327.278 141.931 327.048 142.263 326.88C142.597 326.712 142.977 326.628 143.403 326.628C143.824 326.628 144.201 326.712 144.532 326.88C144.863 327.048 145.124 327.278 145.313 327.569C145.505 327.86 145.602 328.19 145.604 328.56C145.602 328.946 145.497 329.29 145.288 329.593C145.082 329.894 144.809 330.089 144.468 330.179V330.222C144.731 330.269 144.968 330.381 145.178 330.559C145.389 330.734 145.557 330.953 145.683 331.216C145.808 331.476 145.872 331.76 145.874 332.068C145.872 332.461 145.765 332.812 145.555 333.119C145.346 333.425 145.056 333.665 144.685 333.84C144.315 334.013 143.888 334.099 143.403 334.099ZM143.403 333.318C143.732 333.318 144.016 333.265 144.255 333.158C144.494 333.052 144.679 332.902 144.809 332.707C144.939 332.513 145.005 332.286 145.008 332.026C145.005 331.751 144.934 331.508 144.795 331.298C144.655 331.087 144.464 330.921 144.223 330.8C143.984 330.68 143.71 330.619 143.403 330.619C143.093 330.619 142.816 330.68 142.572 330.8C142.33 330.921 142.14 331.087 142 331.298C141.863 331.508 141.795 331.751 141.798 332.026C141.795 332.286 141.858 332.513 141.986 332.707C142.116 332.902 142.302 333.052 142.543 333.158C142.785 333.265 143.071 333.318 143.403 333.318ZM143.403 329.866C143.663 329.866 143.894 329.814 144.095 329.71C144.299 329.606 144.459 329.46 144.575 329.273C144.691 329.086 144.75 328.867 144.752 328.616C144.75 328.37 144.692 328.156 144.578 327.974C144.464 327.789 144.307 327.647 144.106 327.548C143.905 327.446 143.67 327.395 143.403 327.395C143.13 327.395 142.893 327.446 142.689 327.548C142.485 327.647 142.328 327.789 142.217 327.974C142.105 328.156 142.051 328.37 142.053 328.616C142.051 328.867 142.107 329.086 142.22 329.273C142.336 329.46 142.496 329.606 142.7 329.71C142.903 329.814 143.138 329.866 143.403 329.866Z" fill="#2E3238"/>
<rect x="108" y="316" width="100" height="40" rx="20" transform="rotate(-90 108 316)" fill="#2E3238"/>
<path d="M168.21 334.099C167.741 334.099 167.324 334.019 166.957 333.858C166.592 333.697 166.302 333.473 166.087 333.187C165.874 332.898 165.758 332.563 165.739 332.182H166.634C166.652 332.416 166.733 332.619 166.875 332.789C167.017 332.957 167.203 333.087 167.433 333.18C167.662 333.272 167.917 333.318 168.196 333.318C168.509 333.318 168.786 333.264 169.027 333.155C169.268 333.046 169.458 332.894 169.595 332.7C169.732 332.506 169.801 332.281 169.801 332.026C169.801 331.758 169.735 331.522 169.602 331.319C169.47 331.113 169.276 330.952 169.02 330.836C168.764 330.72 168.452 330.662 168.082 330.662H167.5V329.881H168.082C168.371 329.881 168.625 329.829 168.842 329.724C169.063 329.62 169.234 329.473 169.357 329.284C169.483 329.095 169.545 328.872 169.545 328.616C169.545 328.37 169.491 328.156 169.382 327.974C169.273 327.791 169.119 327.649 168.92 327.548C168.724 327.446 168.492 327.395 168.224 327.395C167.973 327.395 167.737 327.441 167.514 327.533C167.294 327.623 167.114 327.755 166.974 327.928C166.835 328.098 166.759 328.304 166.747 328.545H165.895C165.909 328.164 166.024 327.83 166.239 327.544C166.455 327.255 166.737 327.03 167.085 326.869C167.435 326.708 167.82 326.628 168.239 326.628C168.688 326.628 169.074 326.719 169.396 326.901C169.718 327.081 169.966 327.319 170.138 327.615C170.311 327.911 170.398 328.231 170.398 328.574C170.398 328.983 170.29 329.333 170.075 329.621C169.862 329.91 169.571 330.11 169.205 330.222V330.278C169.664 330.354 170.022 330.549 170.281 330.864C170.539 331.177 170.668 331.564 170.668 332.026C170.668 332.421 170.56 332.776 170.344 333.091C170.131 333.403 169.84 333.65 169.471 333.83C169.102 334.009 168.681 334.099 168.21 334.099ZM172.347 334L175.6 327.565V327.509H171.85V326.727H176.509V327.551L173.271 334H172.347ZM180.124 334.099C179.656 334.099 179.238 334.019 178.871 333.858C178.506 333.697 178.216 333.473 178.001 333.187C177.788 332.898 177.672 332.563 177.653 332.182H178.548C178.567 332.416 178.647 332.619 178.789 332.789C178.931 332.957 179.117 333.087 179.347 333.18C179.576 333.272 179.831 333.318 180.11 333.318C180.423 333.318 180.7 333.264 180.941 333.155C181.183 333.046 181.372 332.894 181.509 332.7C181.647 332.506 181.715 332.281 181.715 332.026C181.715 331.758 181.649 331.522 181.516 331.319C181.384 331.113 181.19 330.952 180.934 330.836C180.678 330.72 180.366 330.662 179.996 330.662H179.414V329.881H179.996C180.285 329.881 180.539 329.829 180.756 329.724C180.977 329.62 181.148 329.473 181.271 329.284C181.397 329.095 181.46 328.872 181.46 328.616C181.46 328.37 181.405 328.156 181.296 327.974C181.187 327.791 181.033 327.649 180.835 327.548C180.638 327.446 180.406 327.395 180.138 327.395C179.888 327.395 179.651 327.441 179.428 327.533C179.208 327.623 179.028 327.755 178.888 327.928C178.749 328.098 178.673 328.304 178.661 328.545H177.809C177.823 328.164 177.938 327.83 178.153 327.544C178.369 327.255 178.651 327.03 178.999 326.869C179.349 326.708 179.734 326.628 180.153 326.628C180.603 326.628 180.988 326.719 181.31 326.901C181.632 327.081 181.88 327.319 182.053 327.615C182.225 327.911 182.312 328.231 182.312 328.574C182.312 328.983 182.204 329.333 181.989 329.621C181.776 329.91 181.486 330.11 181.119 330.222V330.278C181.578 330.354 181.937 330.549 182.195 330.864C182.453 331.177 182.582 331.564 182.582 332.026C182.582 332.421 182.474 332.776 182.259 333.091C182.045 333.403 181.754 333.65 181.385 333.83C181.016 334.009 180.595 334.099 180.124 334.099ZM184.162 334V326.727H186.705C187.211 326.727 187.629 326.815 187.958 326.99C188.287 327.163 188.532 327.396 188.693 327.69C188.854 327.981 188.935 328.304 188.935 328.659C188.935 328.972 188.879 329.23 188.768 329.433C188.659 329.637 188.514 329.798 188.335 329.916C188.157 330.035 187.964 330.122 187.756 330.179V330.25C187.978 330.264 188.202 330.342 188.427 330.484C188.652 330.626 188.84 330.83 188.991 331.095C189.143 331.36 189.219 331.685 189.219 332.068C189.219 332.433 189.136 332.761 188.97 333.052C188.804 333.343 188.543 333.574 188.185 333.744C187.828 333.915 187.363 334 186.79 334H184.162ZM185.043 333.219H186.79C187.365 333.219 187.773 333.107 188.015 332.885C188.259 332.66 188.381 332.388 188.381 332.068C188.381 331.822 188.318 331.595 188.192 331.386C188.067 331.176 187.888 331.008 187.656 330.882C187.424 330.754 187.15 330.69 186.832 330.69H185.043V333.219ZM185.043 329.923H186.676C186.941 329.923 187.18 329.871 187.393 329.767C187.609 329.663 187.779 329.516 187.905 329.327C188.033 329.137 188.097 328.915 188.097 328.659C188.097 328.339 187.985 328.068 187.763 327.846C187.54 327.621 187.188 327.509 186.705 327.509H185.043V329.923ZM190.368 332.509V331.784L193.564 326.727H194.089V327.849H193.734L191.319 331.67V331.727H195.623V332.509H190.368ZM193.791 334V332.288V331.951V326.727H194.629V334H193.791ZM196.954 334V333.361L199.355 330.733C199.636 330.425 199.868 330.158 200.051 329.93C200.233 329.701 200.368 329.485 200.455 329.284C200.545 329.08 200.59 328.867 200.59 328.645C200.59 328.389 200.529 328.168 200.406 327.981C200.285 327.794 200.119 327.649 199.909 327.548C199.698 327.446 199.461 327.395 199.198 327.395C198.919 327.395 198.675 327.453 198.467 327.569C198.261 327.683 198.101 327.842 197.987 328.048C197.876 328.254 197.82 328.496 197.82 328.773H196.982C196.982 328.347 197.081 327.973 197.277 327.651C197.474 327.329 197.741 327.078 198.08 326.898C198.421 326.718 198.803 326.628 199.227 326.628C199.653 326.628 200.03 326.718 200.36 326.898C200.689 327.078 200.947 327.32 201.134 327.626C201.321 327.931 201.414 328.271 201.414 328.645C201.414 328.912 201.366 329.174 201.269 329.43C201.174 329.683 201.008 329.966 200.771 330.278C200.537 330.589 200.212 330.967 199.795 331.415L198.161 333.162V333.219H201.542V334H196.954Z" fill="#373B42"/>
<rect x="164" y="316" width="100" height="40" rx="20" transform="rotate(-90 164 316)" fill="#373B42"/>
<path d="M221.582 332.509V331.784L224.778 326.727H225.304V327.849H224.949L222.534 331.67V331.727H226.838V332.509H221.582ZM225.006 334V332.288V331.951V326.727H225.844V334H225.006ZM230.626 334.099C230.157 334.099 229.74 334.019 229.373 333.858C229.008 333.697 228.718 333.473 228.503 333.187C228.29 332.898 228.174 332.563 228.155 332.182H229.05C229.068 332.416 229.149 332.619 229.291 332.789C229.433 332.957 229.619 333.087 229.849 333.18C230.078 333.272 230.333 333.318 230.612 333.318C230.925 333.318 231.202 333.264 231.443 333.155C231.684 333.046 231.874 332.894 232.011 332.7C232.148 332.506 232.217 332.281 232.217 332.026C232.217 331.758 232.151 331.522 232.018 331.319C231.886 331.113 231.692 330.952 231.436 330.836C231.18 330.72 230.868 330.662 230.498 330.662H229.916V329.881H230.498C230.787 329.881 231.041 329.829 231.258 329.724C231.479 329.62 231.65 329.473 231.773 329.284C231.899 329.095 231.961 328.872 231.961 328.616C231.961 328.37 231.907 328.156 231.798 327.974C231.689 327.791 231.535 327.649 231.336 327.548C231.14 327.446 230.908 327.395 230.64 327.395C230.39 327.395 230.153 327.441 229.93 327.533C229.71 327.623 229.53 327.755 229.39 327.928C229.251 328.098 229.175 328.304 229.163 328.545H228.311C228.325 328.164 228.44 327.83 228.655 327.544C228.871 327.255 229.153 327.03 229.501 326.869C229.851 326.708 230.236 326.628 230.655 326.628C231.104 326.628 231.49 326.719 231.812 326.901C232.134 327.081 232.382 327.319 232.555 327.615C232.727 327.911 232.814 328.231 232.814 328.574C232.814 328.983 232.706 329.333 232.491 329.621C232.278 329.91 231.988 330.11 231.621 330.222V330.278C232.08 330.354 232.439 330.549 232.697 330.864C232.955 331.177 233.084 331.564 233.084 332.026C233.084 332.421 232.976 332.776 232.76 333.091C232.547 333.403 232.256 333.65 231.887 333.83C231.518 334.009 231.097 334.099 230.626 334.099ZM234.366 332.509V331.784L237.562 326.727H238.087V327.849H237.732L235.317 331.67V331.727H239.621V332.509H234.366ZM237.789 334V332.288V331.951V326.727H238.627V334H237.789ZM243.267 326.628C243.566 326.63 243.864 326.687 244.162 326.798C244.461 326.91 244.733 327.094 244.979 327.352C245.225 327.608 245.423 327.957 245.572 328.4C245.721 328.843 245.796 329.398 245.796 330.065C245.796 330.712 245.734 331.286 245.611 331.788C245.49 332.287 245.315 332.709 245.086 333.052C244.858 333.395 244.581 333.656 244.255 333.833C243.93 334.011 243.563 334.099 243.154 334.099C242.747 334.099 242.383 334.019 242.064 333.858C241.746 333.695 241.486 333.469 241.282 333.18C241.081 332.888 240.952 332.551 240.895 332.168H241.762C241.84 332.501 241.995 332.777 242.227 332.995C242.461 333.21 242.77 333.318 243.154 333.318C243.715 333.318 244.158 333.073 244.482 332.583C244.809 332.093 244.972 331.401 244.972 330.506H244.915C244.783 330.705 244.625 330.876 244.443 331.021C244.261 331.165 244.058 331.276 243.836 331.354C243.613 331.433 243.376 331.472 243.125 331.472C242.709 331.472 242.326 331.369 241.978 331.163C241.633 330.954 241.356 330.669 241.147 330.307C240.941 329.942 240.838 329.526 240.838 329.057C240.838 328.612 240.938 328.205 241.137 327.835C241.338 327.464 241.62 327.168 241.982 326.947C242.346 326.727 242.775 326.621 243.267 326.628ZM243.267 327.409C242.969 327.409 242.7 327.484 242.461 327.633C242.225 327.78 242.036 327.978 241.897 328.229C241.759 328.478 241.691 328.754 241.691 329.057C241.691 329.36 241.757 329.636 241.89 329.884C242.025 330.13 242.208 330.327 242.44 330.474C242.674 330.618 242.941 330.69 243.239 330.69C243.464 330.69 243.673 330.647 243.868 330.559C244.062 330.469 244.231 330.347 244.375 330.193C244.522 330.037 244.637 329.861 244.72 329.664C244.803 329.465 244.844 329.258 244.844 329.043C244.844 328.759 244.775 328.492 244.638 328.244C244.503 327.995 244.316 327.794 244.077 327.64C243.84 327.486 243.57 327.409 243.267 327.409ZM249.465 334.099C249.048 334.099 248.673 334.017 248.339 333.851C248.006 333.685 247.738 333.458 247.537 333.169C247.336 332.88 247.225 332.551 247.206 332.182H248.059C248.092 332.511 248.241 332.783 248.506 332.999C248.774 333.212 249.093 333.318 249.465 333.318C249.763 333.318 250.028 333.248 250.26 333.109C250.495 332.969 250.678 332.777 250.811 332.533C250.946 332.287 251.013 332.009 251.013 331.699C251.013 331.382 250.943 331.099 250.804 330.85C250.666 330.599 250.477 330.402 250.236 330.257C249.994 330.113 249.718 330.039 249.408 330.037C249.186 330.035 248.957 330.069 248.723 330.14C248.488 330.209 248.296 330.297 248.144 330.406L247.32 330.307L247.76 326.727H251.539V327.509H248.499L248.243 329.653H248.286C248.435 329.535 248.622 329.437 248.847 329.359C249.072 329.281 249.306 329.241 249.55 329.241C249.995 329.241 250.392 329.348 250.74 329.561C251.09 329.772 251.365 330.061 251.564 330.428C251.765 330.795 251.866 331.214 251.866 331.685C251.866 332.149 251.761 332.563 251.553 332.928C251.347 333.29 251.063 333.576 250.701 333.787C250.339 333.995 249.927 334.099 249.465 334.099ZM253.276 334V333.361L255.677 330.733C255.959 330.425 256.191 330.158 256.373 329.93C256.555 329.701 256.69 329.485 256.778 329.284C256.868 329.08 256.913 328.867 256.913 328.645C256.913 328.389 256.851 328.168 256.728 327.981C256.607 327.794 256.442 327.649 256.231 327.548C256.02 327.446 255.783 327.395 255.521 327.395C255.241 327.395 254.997 327.453 254.789 327.569C254.583 327.683 254.423 327.842 254.31 328.048C254.198 328.254 254.143 328.496 254.143 328.773H253.305C253.305 328.347 253.403 327.973 253.599 327.651C253.796 327.329 254.063 327.078 254.402 326.898C254.743 326.718 255.125 326.628 255.549 326.628C255.975 326.628 256.353 326.718 256.682 326.898C257.011 327.078 257.269 327.32 257.456 327.626C257.643 327.931 257.737 328.271 257.737 328.645C257.737 328.912 257.688 329.174 257.591 329.43C257.496 329.683 257.33 329.966 257.094 330.278C256.859 330.589 256.534 330.967 256.117 331.415L254.484 333.162V333.219H257.864V334H253.276Z" fill="#434952"/>
<rect x="220" y="316" width="100" height="40" rx="20" transform="rotate(-90 220 316)" fill="#434952"/>
<path d="M280.026 334.099C279.609 334.099 279.234 334.017 278.9 333.851C278.566 333.685 278.299 333.458 278.097 333.169C277.896 332.88 277.786 332.551 277.767 332.182H278.619C278.652 332.511 278.802 332.783 279.067 332.999C279.334 333.212 279.654 333.318 280.026 333.318C280.324 333.318 280.589 333.248 280.821 333.109C281.055 332.969 281.239 332.777 281.371 332.533C281.506 332.287 281.574 332.009 281.574 331.699C281.574 331.382 281.504 331.099 281.364 330.85C281.227 330.599 281.038 330.402 280.796 330.257C280.555 330.113 280.279 330.039 279.969 330.037C279.746 330.035 279.518 330.069 279.283 330.14C279.049 330.209 278.856 330.297 278.705 330.406L277.881 330.307L278.321 326.727H282.099V327.509H279.06L278.804 329.653H278.847C278.996 329.535 279.183 329.437 279.408 329.359C279.633 329.281 279.867 329.241 280.111 329.241C280.556 329.241 280.952 329.348 281.3 329.561C281.651 329.772 281.925 330.061 282.124 330.428C282.326 330.795 282.426 331.214 282.426 331.685C282.426 332.149 282.322 332.563 282.114 332.928C281.908 333.29 281.624 333.576 281.261 333.787C280.899 333.995 280.487 334.099 280.026 334.099ZM283.965 334V326.727H286.507C287.014 326.727 287.432 326.815 287.761 326.99C288.09 327.163 288.335 327.396 288.496 327.69C288.657 327.981 288.737 328.304 288.737 328.659C288.737 328.972 288.682 329.23 288.57 329.433C288.462 329.637 288.317 329.798 288.137 329.916C287.96 330.035 287.767 330.122 287.558 330.179V330.25C287.781 330.264 288.005 330.342 288.23 330.484C288.454 330.626 288.643 330.83 288.794 331.095C288.946 331.36 289.021 331.685 289.021 332.068C289.021 332.433 288.939 332.761 288.773 333.052C288.607 333.343 288.346 333.574 287.988 333.744C287.631 333.915 287.165 334 286.593 334H283.965ZM284.845 333.219H286.593C287.168 333.219 287.576 333.107 287.818 332.885C288.061 332.66 288.183 332.388 288.183 332.068C288.183 331.822 288.121 331.595 287.995 331.386C287.87 331.176 287.691 331.008 287.459 330.882C287.227 330.754 286.952 330.69 286.635 330.69H284.845V333.219ZM284.845 329.923H286.479C286.744 329.923 286.983 329.871 287.196 329.767C287.412 329.663 287.582 329.516 287.708 329.327C287.835 329.137 287.899 328.915 287.899 328.659C287.899 328.339 287.788 328.068 287.566 327.846C287.343 327.621 286.99 327.509 286.507 327.509H284.845V329.923ZM292.756 334.099C292.457 334.095 292.159 334.038 291.861 333.929C291.562 333.82 291.29 333.637 291.044 333.379C290.798 333.118 290.6 332.767 290.451 332.324C290.302 331.879 290.227 331.32 290.227 330.648C290.227 330.004 290.287 329.433 290.408 328.936C290.529 328.437 290.704 328.016 290.934 327.675C291.163 327.332 291.44 327.072 291.765 326.894C292.091 326.717 292.46 326.628 292.869 326.628C293.276 326.628 293.639 326.71 293.956 326.873C294.275 327.034 294.536 327.259 294.737 327.548C294.938 327.836 295.068 328.169 295.128 328.545H294.261C294.181 328.219 294.024 327.948 293.792 327.732C293.56 327.517 293.253 327.409 292.869 327.409C292.306 327.409 291.862 327.654 291.537 328.144C291.215 328.634 291.053 329.322 291.051 330.207H291.108C291.24 330.006 291.398 329.835 291.58 329.692C291.765 329.548 291.968 329.437 292.191 329.359C292.413 329.281 292.649 329.241 292.898 329.241C293.314 329.241 293.695 329.346 294.041 329.554C294.387 329.76 294.664 330.045 294.872 330.41C295.08 330.772 295.184 331.188 295.184 331.656C295.184 332.106 295.084 332.518 294.883 332.892C294.681 333.264 294.398 333.56 294.034 333.78C293.672 333.998 293.246 334.104 292.756 334.099ZM292.756 333.318C293.054 333.318 293.321 333.244 293.558 333.094C293.797 332.945 293.985 332.745 294.123 332.494C294.262 332.243 294.332 331.964 294.332 331.656C294.332 331.356 294.265 331.082 294.13 330.836C293.997 330.587 293.814 330.39 293.579 330.243C293.347 330.096 293.082 330.023 292.784 330.023C292.559 330.023 292.349 330.068 292.155 330.158C291.961 330.245 291.791 330.366 291.644 330.52C291.5 330.674 291.386 330.85 291.303 331.049C291.22 331.246 291.179 331.453 291.179 331.67C291.179 331.959 291.246 332.229 291.381 332.48C291.519 332.731 291.706 332.933 291.942 333.087C292.181 333.241 292.452 333.318 292.756 333.318ZM298.896 326.628C299.195 326.63 299.493 326.687 299.791 326.798C300.089 326.91 300.362 327.094 300.608 327.352C300.854 327.608 301.052 327.957 301.201 328.4C301.35 328.843 301.425 329.398 301.425 330.065C301.425 330.712 301.363 331.286 301.24 331.788C301.119 332.287 300.944 332.709 300.714 333.052C300.487 333.395 300.21 333.656 299.884 333.833C299.559 334.011 299.192 334.099 298.783 334.099C298.375 334.099 298.012 334.019 297.692 333.858C297.375 333.695 297.115 333.469 296.911 333.18C296.71 332.888 296.581 332.551 296.524 332.168H297.391C297.469 332.501 297.624 332.777 297.856 332.995C298.09 333.21 298.399 333.318 298.783 333.318C299.344 333.318 299.786 333.073 300.111 332.583C300.438 332.093 300.601 331.401 300.601 330.506H300.544C300.411 330.705 300.254 330.876 300.072 331.021C299.889 331.165 299.687 331.276 299.464 331.354C299.242 331.433 299.005 331.472 298.754 331.472C298.338 331.472 297.955 331.369 297.607 331.163C297.262 330.954 296.985 330.669 296.776 330.307C296.57 329.942 296.467 329.526 296.467 329.057C296.467 328.612 296.567 328.205 296.766 327.835C296.967 327.464 297.249 327.168 297.611 326.947C297.975 326.727 298.404 326.621 298.896 326.628ZM298.896 327.409C298.598 327.409 298.329 327.484 298.09 327.633C297.853 327.78 297.665 327.978 297.526 328.229C297.388 328.478 297.32 328.754 297.32 329.057C297.32 329.36 297.386 329.636 297.518 329.884C297.653 330.13 297.837 330.327 298.069 330.474C298.303 330.618 298.57 330.69 298.868 330.69C299.093 330.69 299.302 330.647 299.496 330.559C299.691 330.469 299.86 330.347 300.004 330.193C300.151 330.037 300.266 329.861 300.349 329.664C300.432 329.465 300.473 329.258 300.473 329.043C300.473 328.759 300.404 328.492 300.267 328.244C300.132 327.995 299.945 327.794 299.706 327.64C299.469 327.486 299.199 327.409 298.896 327.409ZM302.853 334L306.106 327.565V327.509H302.356V326.727H307.015V327.551L303.776 334H302.853ZM314.319 329H313.438C313.386 328.747 313.295 328.524 313.165 328.332C313.037 328.141 312.881 327.98 312.696 327.849C312.514 327.717 312.311 327.617 312.089 327.551C311.866 327.485 311.634 327.452 311.393 327.452C310.952 327.452 310.554 327.563 310.196 327.786C309.841 328.008 309.558 328.336 309.347 328.769C309.139 329.202 309.035 329.734 309.035 330.364C309.035 330.993 309.139 331.525 309.347 331.958C309.558 332.391 309.841 332.719 310.196 332.942C310.554 333.164 310.952 333.276 311.393 333.276C311.634 333.276 311.866 333.242 312.089 333.176C312.311 333.11 312.514 333.012 312.696 332.881C312.881 332.749 313.037 332.587 313.165 332.395C313.295 332.201 313.386 331.978 313.438 331.727H314.319C314.253 332.099 314.132 332.432 313.957 332.725C313.781 333.019 313.564 333.268 313.303 333.474C313.043 333.678 312.75 333.833 312.426 333.94C312.104 334.046 311.76 334.099 311.393 334.099C310.772 334.099 310.221 333.948 309.738 333.645C309.255 333.342 308.875 332.911 308.598 332.352C308.321 331.794 308.183 331.131 308.183 330.364C308.183 329.597 308.321 328.934 308.598 328.375C308.875 327.816 309.255 327.385 309.738 327.082C310.221 326.779 310.772 326.628 311.393 326.628C311.76 326.628 312.104 326.681 312.426 326.788C312.75 326.894 313.043 327.05 313.303 327.256C313.564 327.46 313.781 327.709 313.957 328.002C314.132 328.293 314.253 328.626 314.319 329Z" fill="#5B697C"/>
<rect x="276" y="316" width="100" height="40" rx="20" transform="rotate(-90 276 316)" fill="#5B697C"/>
<path d="M333.679 334H332.756L335.426 326.727H336.335L339.006 334H338.082L335.909 327.878H335.852L333.679 334ZM334.02 331.159H337.741V331.94H334.02V331.159ZM342.326 326.628C342.624 326.63 342.923 326.687 343.221 326.798C343.519 326.91 343.791 327.094 344.038 327.352C344.284 327.608 344.482 327.957 344.631 328.4C344.78 328.843 344.854 329.398 344.854 330.065C344.854 330.712 344.793 331.286 344.67 331.788C344.549 332.287 344.374 332.709 344.144 333.052C343.917 333.395 343.64 333.656 343.313 333.833C342.989 334.011 342.622 334.099 342.212 334.099C341.805 334.099 341.442 334.019 341.122 333.858C340.805 333.695 340.545 333.469 340.341 333.18C340.14 332.888 340.011 332.551 339.954 332.168H340.82C340.898 332.501 341.054 332.777 341.286 332.995C341.52 333.21 341.829 333.318 342.212 333.318C342.773 333.318 343.216 333.073 343.54 332.583C343.867 332.093 344.031 331.401 344.031 330.506H343.974C343.841 330.705 343.684 330.876 343.501 331.021C343.319 331.165 343.117 331.276 342.894 331.354C342.672 331.433 342.435 331.472 342.184 331.472C341.767 331.472 341.385 331.369 341.037 331.163C340.691 330.954 340.414 330.669 340.206 330.307C340 329.942 339.897 329.526 339.897 329.057C339.897 328.612 339.996 328.205 340.195 327.835C340.397 327.464 340.678 327.168 341.04 326.947C341.405 326.727 341.834 326.621 342.326 326.628ZM342.326 327.409C342.028 327.409 341.759 327.484 341.52 327.633C341.283 327.78 341.095 327.978 340.955 328.229C340.818 328.478 340.749 328.754 340.749 329.057C340.749 329.36 340.816 329.636 340.948 329.884C341.083 330.13 341.267 330.327 341.499 330.474C341.733 330.618 341.999 330.69 342.298 330.69C342.522 330.69 342.732 330.647 342.926 330.559C343.12 330.469 343.29 330.347 343.434 330.193C343.581 330.037 343.696 329.861 343.778 329.664C343.861 329.465 343.903 329.258 343.903 329.043C343.903 328.759 343.834 328.492 343.697 328.244C343.562 327.995 343.375 327.794 343.136 327.64C342.899 327.486 342.629 327.409 342.326 327.409ZM346.379 334V326.727H348.921C349.428 326.727 349.846 326.815 350.175 326.99C350.504 327.163 350.749 327.396 350.91 327.69C351.071 327.981 351.151 328.304 351.151 328.659C351.151 328.972 351.096 329.23 350.985 329.433C350.876 329.637 350.731 329.798 350.551 329.916C350.374 330.035 350.181 330.122 349.972 330.179V330.25C350.195 330.264 350.419 330.342 350.644 330.484C350.869 330.626 351.057 330.83 351.208 331.095C351.36 331.36 351.436 331.685 351.436 332.068C351.436 332.433 351.353 332.761 351.187 333.052C351.021 333.343 350.76 333.574 350.402 333.744C350.045 333.915 349.579 334 349.007 334H346.379ZM347.259 333.219H349.007C349.582 333.219 349.99 333.107 350.232 332.885C350.476 332.66 350.597 332.388 350.597 332.068C350.597 331.822 350.535 331.595 350.409 331.386C350.284 331.176 350.105 331.008 349.873 330.882C349.641 330.754 349.366 330.69 349.049 330.69H347.259V333.219ZM347.259 329.923H348.893C349.158 329.923 349.397 329.871 349.61 329.767C349.826 329.663 349.996 329.516 350.122 329.327C350.249 329.137 350.313 328.915 350.313 328.659C350.313 328.339 350.202 328.068 349.98 327.846C349.757 327.621 349.404 327.509 348.921 327.509H347.259V329.923ZM352.982 334L356.235 327.565V327.509H352.485V326.727H357.144V327.551L353.905 334H352.982ZM364.448 329H363.567C363.515 328.747 363.424 328.524 363.294 328.332C363.166 328.141 363.01 327.98 362.825 327.849C362.643 327.717 362.44 327.617 362.218 327.551C361.995 327.485 361.763 327.452 361.522 327.452C361.081 327.452 360.682 327.563 360.325 327.786C359.97 328.008 359.687 328.336 359.476 328.769C359.268 329.202 359.164 329.734 359.164 330.364C359.164 330.993 359.268 331.525 359.476 331.958C359.687 332.391 359.97 332.719 360.325 332.942C360.682 333.164 361.081 333.276 361.522 333.276C361.763 333.276 361.995 333.242 362.218 333.176C362.44 333.11 362.643 333.012 362.825 332.881C363.01 332.749 363.166 332.587 363.294 332.395C363.424 332.201 363.515 331.978 363.567 331.727H364.448C364.382 332.099 364.261 332.432 364.086 332.725C363.91 333.019 363.693 333.268 363.432 333.474C363.172 333.678 362.879 333.833 362.555 333.94C362.233 334.046 361.889 334.099 361.522 334.099C360.901 334.099 360.35 333.948 359.867 333.645C359.384 333.342 359.004 332.911 358.727 332.352C358.45 331.794 358.311 331.131 358.311 330.364C358.311 329.597 358.45 328.934 358.727 328.375C359.004 327.816 359.384 327.385 359.867 327.082C360.35 326.779 360.901 326.628 361.522 326.628C361.889 326.628 362.233 326.681 362.555 326.788C362.879 326.894 363.172 327.05 363.432 327.256C363.693 327.46 363.91 327.709 364.086 328.002C364.261 328.293 364.382 328.626 364.448 329ZM368.158 334.099C367.86 334.095 367.561 334.038 367.263 333.929C366.965 333.82 366.692 333.637 366.446 333.379C366.2 333.118 366.002 332.767 365.853 332.324C365.704 331.879 365.629 331.32 365.629 330.648C365.629 330.004 365.69 329.433 365.811 328.936C365.931 328.437 366.106 328.016 366.336 327.675C366.566 327.332 366.843 327.072 367.167 326.894C367.494 326.717 367.862 326.628 368.271 326.628C368.679 326.628 369.041 326.71 369.358 326.873C369.678 327.034 369.938 327.259 370.139 327.548C370.341 327.836 370.471 328.169 370.53 328.545H369.664C369.583 328.219 369.427 327.948 369.195 327.732C368.963 327.517 368.655 327.409 368.271 327.409C367.708 327.409 367.264 327.654 366.94 328.144C366.618 328.634 366.456 329.322 366.453 330.207H366.51C366.643 330.006 366.8 329.835 366.982 329.692C367.167 329.548 367.371 329.437 367.593 329.359C367.816 329.281 368.051 329.241 368.3 329.241C368.717 329.241 369.098 329.346 369.443 329.554C369.789 329.76 370.066 330.045 370.274 330.41C370.483 330.772 370.587 331.188 370.587 331.656C370.587 332.106 370.486 332.518 370.285 332.892C370.084 333.264 369.801 333.56 369.436 333.78C369.074 333.998 368.648 334.104 368.158 334.099ZM368.158 333.318C368.456 333.318 368.724 333.244 368.96 333.094C369.2 332.945 369.388 332.745 369.525 332.494C369.665 332.243 369.735 331.964 369.735 331.656C369.735 331.356 369.667 331.082 369.532 330.836C369.4 330.587 369.216 330.39 368.982 330.243C368.75 330.096 368.485 330.023 368.186 330.023C367.961 330.023 367.752 330.068 367.558 330.158C367.364 330.245 367.193 330.366 367.046 330.52C366.902 330.674 366.788 330.85 366.705 331.049C366.623 331.246 366.581 331.453 366.581 331.67C366.581 331.959 366.649 332.229 366.784 332.48C366.921 332.731 367.108 332.933 367.345 333.087C367.584 333.241 367.855 333.318 368.158 333.318Z" fill="#A9B7C6"/>
<rect x="332" y="316" width="100" height="40" rx="20" transform="rotate(-90 332 316)" fill="#A9B7C6"/>
</svg>
