<svg width="572" height="374" viewBox="0 0 572 374" fill="none" xmlns="http://www.w3.org/2000/svg">
<rect width="572" height="374" fill="#24262B"/>
<rect x="24" y="24" width="140" height="150" rx="20" fill="white"/>
<path d="M50.125 159.099C49.59 159.099 49.1342 158.954 48.7578 158.663C48.3814 158.369 48.0938 157.944 47.8949 157.388C47.696 156.829 47.5966 156.154 47.5966 155.364C47.5966 154.578 47.696 153.906 47.8949 153.35C48.0961 152.791 48.3849 152.365 48.7614 152.072C49.1402 151.776 49.5947 151.628 50.125 151.628C50.6553 151.628 51.1087 151.776 51.4851 152.072C51.8639 152.365 52.1527 152.791 52.3516 153.35C52.5528 153.906 52.6534 154.578 52.6534 155.364C52.6534 156.154 52.554 156.829 52.3551 157.388C52.1562 157.944 51.8686 158.369 51.4922 158.663C51.1158 158.954 50.66 159.099 50.125 159.099ZM50.125 158.318C50.6553 158.318 51.0672 158.062 51.3608 157.551C51.6544 157.04 51.8011 156.311 51.8011 155.364C51.8011 154.734 51.7337 154.198 51.5987 153.755C51.4661 153.312 51.2744 152.975 51.0234 152.743C50.7749 152.511 50.4754 152.395 50.125 152.395C49.5994 152.395 49.1887 152.654 48.8928 153.173C48.5968 153.689 48.4489 154.419 48.4489 155.364C48.4489 155.993 48.5152 156.528 48.6477 156.969C48.7803 157.409 48.9709 157.744 49.2195 157.974C49.4704 158.203 49.7723 158.318 50.125 158.318ZM56.375 159.099C55.84 159.099 55.3842 158.954 55.0078 158.663C54.6314 158.369 54.3438 157.944 54.1449 157.388C53.946 156.829 53.8466 156.154 53.8466 155.364C53.8466 154.578 53.946 153.906 54.1449 153.35C54.3461 152.791 54.6349 152.365 55.0114 152.072C55.3902 151.776 55.8447 151.628 56.375 151.628C56.9053 151.628 57.3587 151.776 57.7351 152.072C58.1139 152.365 58.4027 152.791 58.6016 153.35C58.8028 153.906 58.9034 154.578 58.9034 155.364C58.9034 156.154 58.804 156.829 58.6051 157.388C58.4062 157.944 58.1186 158.369 57.7422 158.663C57.3658 158.954 56.91 159.099 56.375 159.099ZM56.375 158.318C56.9053 158.318 57.3172 158.062 57.6108 157.551C57.9044 157.04 58.0511 156.311 58.0511 155.364C58.0511 154.734 57.9837 154.198 57.8487 153.755C57.7161 153.312 57.5244 152.975 57.2734 152.743C57.0249 152.511 56.7254 152.395 56.375 152.395C55.8494 152.395 55.4387 152.654 55.1428 153.173C54.8468 153.689 54.6989 154.419 54.6989 155.364C54.6989 155.993 54.7652 156.528 54.8977 156.969C55.0303 157.409 55.2209 157.744 55.4695 157.974C55.7204 158.203 56.0223 158.318 56.375 158.318ZM62.5824 159.099C62.0947 159.099 61.6638 159.013 61.2898 158.84C60.9181 158.665 60.6281 158.425 60.4197 158.119C60.2114 157.812 60.1084 157.461 60.1108 157.068C60.1084 156.76 60.1688 156.476 60.2919 156.216C60.415 155.953 60.5831 155.734 60.7962 155.559C61.0116 155.381 61.2519 155.269 61.517 155.222V155.179C61.169 155.089 60.892 154.894 60.6861 154.593C60.4801 154.29 60.3783 153.946 60.3807 153.56C60.3783 153.19 60.4718 152.86 60.6612 152.569C60.8506 152.278 61.111 152.048 61.4425 151.88C61.7763 151.712 62.1563 151.628 62.5824 151.628C63.0038 151.628 63.3802 151.712 63.7116 151.88C64.0431 152.048 64.3035 152.278 64.4929 152.569C64.6847 152.86 64.7817 153.19 64.7841 153.56C64.7817 153.946 64.6764 154.29 64.468 154.593C64.2621 154.894 63.9886 155.089 63.6477 155.179V155.222C63.9105 155.269 64.1473 155.381 64.358 155.559C64.5687 155.734 64.7367 155.953 64.8622 156.216C64.9877 156.476 65.0516 156.76 65.054 157.068C65.0516 157.461 64.9451 157.812 64.7344 158.119C64.526 158.425 64.236 158.665 63.8643 158.84C63.495 159.013 63.0677 159.099 62.5824 159.099ZM62.5824 158.318C62.9115 158.318 63.1955 158.265 63.4347 158.158C63.6738 158.052 63.8584 157.902 63.9886 157.707C64.1188 157.513 64.1851 157.286 64.1875 157.026C64.1851 156.751 64.1141 156.508 63.9744 156.298C63.8348 156.087 63.6442 155.921 63.4027 155.8C63.1636 155.68 62.8902 155.619 62.5824 155.619C62.2723 155.619 61.9953 155.68 61.7514 155.8C61.5099 155.921 61.3194 156.087 61.1797 156.298C61.0424 156.508 60.9749 156.751 60.9773 157.026C60.9749 157.286 61.0376 157.513 61.1655 157.707C61.2957 157.902 61.4815 158.052 61.723 158.158C61.9645 158.265 62.2509 158.318 62.5824 158.318ZM62.5824 154.866C62.8428 154.866 63.0736 154.814 63.2749 154.71C63.4785 154.606 63.6383 154.46 63.7543 154.273C63.8703 154.086 63.9295 153.867 63.9318 153.616C63.9295 153.37 63.8714 153.156 63.7578 152.974C63.6442 152.789 63.4867 152.647 63.2855 152.548C63.0843 152.446 62.8499 152.395 62.5824 152.395C62.3101 152.395 62.0722 152.446 61.8686 152.548C61.665 152.647 61.5076 152.789 61.3963 152.974C61.285 153.156 61.2306 153.37 61.233 153.616C61.2306 153.867 61.2862 154.086 61.3999 154.273C61.5159 154.46 61.6757 154.606 61.8793 154.71C62.0829 154.814 62.3172 154.866 62.5824 154.866ZM66.5428 159V151.727H70.9036V152.509H67.4235V154.966H70.5769V155.747H67.4235V159H66.5428ZM74.5568 159.099C74.1402 159.099 73.7649 159.017 73.4311 158.851C73.0973 158.685 72.8298 158.458 72.6286 158.169C72.4273 157.88 72.3172 157.551 72.2983 157.182H73.1506C73.1837 157.511 73.3329 157.783 73.598 157.999C73.8655 158.212 74.1851 158.318 74.5568 158.318C74.8551 158.318 75.1203 158.248 75.3523 158.109C75.5866 157.969 75.7701 157.777 75.9027 157.533C76.0376 157.287 76.1051 157.009 76.1051 156.699C76.1051 156.382 76.0353 156.099 75.8956 155.85C75.7583 155.599 75.5689 155.402 75.3274 155.257C75.0859 155.113 74.8101 155.039 74.5 155.037C74.2775 155.035 74.049 155.069 73.8146 155.14C73.5803 155.209 73.3873 155.297 73.2358 155.406L72.4119 155.307L72.8523 151.727H76.6307V152.509H73.5909L73.3352 154.653H73.3778C73.527 154.535 73.714 154.437 73.9389 154.359C74.1638 154.281 74.3982 154.241 74.642 154.241C75.0871 154.241 75.4837 154.348 75.8317 154.561C76.1821 154.772 76.4567 155.061 76.6555 155.428C76.8568 155.795 76.9574 156.214 76.9574 156.685C76.9574 157.149 76.8532 157.563 76.6449 157.928C76.4389 158.29 76.1548 158.576 75.7926 158.787C75.4304 158.995 75.0185 159.099 74.5568 159.099ZM80.7402 159H78.4959V151.727H80.8397C81.5452 151.727 82.1489 151.873 82.6507 152.164C83.1526 152.453 83.5373 152.868 83.8049 153.411C84.0724 153.95 84.2061 154.597 84.2061 155.349C84.2061 156.107 84.0712 156.759 83.8013 157.306C83.5314 157.851 83.1384 158.27 82.6223 158.563C82.1062 158.854 81.4789 159 80.7402 159ZM79.3766 158.219H80.6834C81.2847 158.219 81.7831 158.103 82.1784 157.871C82.5738 157.639 82.8685 157.308 83.0627 156.88C83.2568 156.451 83.3539 155.941 83.3539 155.349C83.3539 154.762 83.258 154.257 83.0662 153.833C82.8745 153.407 82.588 153.08 82.2069 152.853C81.8257 152.623 81.351 152.509 80.7828 152.509H79.3766V158.219Z" fill="#008F5D"/>
<rect x="46" y="142" width="100" height="40" rx="20" transform="rotate(-90 46 142)" fill="#008F5D"/>
<path d="M106.625 159.099C106.09 159.099 105.634 158.954 105.258 158.663C104.881 158.369 104.594 157.944 104.395 157.388C104.196 156.829 104.097 156.154 104.097 155.364C104.097 154.578 104.196 153.906 104.395 153.35C104.596 152.791 104.885 152.365 105.261 152.072C105.64 151.776 106.095 151.628 106.625 151.628C107.155 151.628 107.609 151.776 107.985 152.072C108.364 152.365 108.653 152.791 108.852 153.35C109.053 153.906 109.153 154.578 109.153 155.364C109.153 156.154 109.054 156.829 108.855 157.388C108.656 157.944 108.369 158.369 107.992 158.663C107.616 158.954 107.16 159.099 106.625 159.099ZM106.625 158.318C107.155 158.318 107.567 158.062 107.861 157.551C108.154 157.04 108.301 156.311 108.301 155.364C108.301 154.734 108.234 154.198 108.099 153.755C107.966 153.312 107.774 152.975 107.523 152.743C107.275 152.511 106.975 152.395 106.625 152.395C106.099 152.395 105.689 152.654 105.393 153.173C105.097 153.689 104.949 154.419 104.949 155.364C104.949 155.993 105.015 156.528 105.148 156.969C105.28 157.409 105.471 157.744 105.719 157.974C105.97 158.203 106.272 158.318 106.625 158.318ZM110.929 159H110.006L112.676 151.727H113.585L116.256 159H115.332L113.159 152.878H113.102L110.929 159ZM111.27 156.159H114.991V156.94H111.27V156.159ZM117.687 159H116.763L119.434 151.727H120.343L123.013 159H122.09L119.917 152.878H119.86L117.687 159ZM118.028 156.159H121.749V156.94H118.028V156.159ZM126.348 159.099C125.86 159.099 125.429 159.013 125.055 158.84C124.684 158.665 124.394 158.425 124.185 158.119C123.977 157.812 123.874 157.461 123.876 157.068C123.874 156.76 123.934 156.476 124.058 156.216C124.181 155.953 124.349 155.734 124.562 155.559C124.777 155.381 125.018 155.269 125.283 155.222V155.179C124.935 155.089 124.658 154.894 124.452 154.593C124.246 154.29 124.144 153.946 124.146 153.56C124.144 153.19 124.237 152.86 124.427 152.569C124.616 152.278 124.877 152.048 125.208 151.88C125.542 151.712 125.922 151.628 126.348 151.628C126.769 151.628 127.146 151.712 127.477 151.88C127.809 152.048 128.069 152.278 128.259 152.569C128.45 152.86 128.547 153.19 128.55 153.56C128.547 153.946 128.442 154.29 128.234 154.593C128.028 154.894 127.754 155.089 127.413 155.179V155.222C127.676 155.269 127.913 155.381 128.124 155.559C128.334 155.734 128.502 155.953 128.628 156.216C128.753 156.476 128.817 156.76 128.82 157.068C128.817 157.461 128.711 157.812 128.5 158.119C128.292 158.425 128.002 158.665 127.63 158.84C127.261 159.013 126.833 159.099 126.348 159.099ZM126.348 158.318C126.677 158.318 126.961 158.265 127.2 158.158C127.439 158.052 127.624 157.902 127.754 157.707C127.884 157.513 127.951 157.286 127.953 157.026C127.951 156.751 127.88 156.508 127.74 156.298C127.6 156.087 127.41 155.921 127.168 155.8C126.929 155.68 126.656 155.619 126.348 155.619C126.038 155.619 125.761 155.68 125.517 155.8C125.276 155.921 125.085 156.087 124.945 156.298C124.808 156.508 124.741 156.751 124.743 157.026C124.741 157.286 124.803 157.513 124.931 157.707C125.061 157.902 125.247 158.052 125.489 158.158C125.73 158.265 126.017 158.318 126.348 158.318ZM126.348 154.866C126.608 154.866 126.839 154.814 127.04 154.71C127.244 154.606 127.404 154.46 127.52 154.273C127.636 154.086 127.695 153.867 127.697 153.616C127.695 153.37 127.637 153.156 127.523 152.974C127.41 152.789 127.252 152.647 127.051 152.548C126.85 152.446 126.616 152.395 126.348 152.395C126.076 152.395 125.838 152.446 125.634 152.548C125.431 152.647 125.273 152.789 125.162 152.974C125.051 153.156 124.996 153.37 124.999 153.616C124.996 153.867 125.052 154.086 125.165 154.273C125.281 154.46 125.441 154.606 125.645 154.71C125.848 154.814 126.083 154.866 126.348 154.866ZM130.408 159L133.661 152.565V152.509H129.911V151.727H134.57V152.551L131.331 159H130.408ZM138.45 151.727V159H137.57V152.651H137.527L135.751 153.83V152.935L137.57 151.727H138.45Z" fill="#0AA871"/>
<rect x="102" y="142" width="100" height="40" rx="20" transform="rotate(-90 102 142)" fill="#0AA871"/>
<rect x="188" y="24" width="140" height="150" rx="20" fill="white"/>
<path d="M211.881 159V151.727H216.27V152.509H212.761V154.966H216.043V155.747H212.761V158.219H216.327V159H211.881ZM217.857 159V151.727H220.4C220.906 151.727 221.324 151.815 221.653 151.99C221.982 152.163 222.228 152.396 222.388 152.69C222.549 152.981 222.63 153.304 222.63 153.659C222.63 153.972 222.574 154.23 222.463 154.433C222.354 154.637 222.21 154.798 222.03 154.916C221.852 155.035 221.659 155.122 221.451 155.179V155.25C221.674 155.264 221.897 155.342 222.122 155.484C222.347 155.626 222.535 155.83 222.687 156.095C222.838 156.36 222.914 156.685 222.914 157.068C222.914 157.433 222.831 157.761 222.665 158.052C222.5 158.343 222.238 158.574 221.881 158.744C221.523 158.915 221.058 159 220.485 159H217.857ZM218.738 158.219H220.485C221.06 158.219 221.469 158.107 221.71 157.885C221.954 157.66 222.076 157.388 222.076 157.068C222.076 156.822 222.013 156.595 221.888 156.386C221.762 156.176 221.584 156.008 221.352 155.882C221.12 155.754 220.845 155.69 220.528 155.69H218.738V158.219ZM218.738 154.923H220.371C220.637 154.923 220.876 154.871 221.089 154.767C221.304 154.663 221.475 154.516 221.6 154.327C221.728 154.137 221.792 153.915 221.792 153.659C221.792 153.339 221.681 153.068 221.458 152.846C221.236 152.621 220.883 152.509 220.4 152.509H218.738V154.923ZM226.563 159.099C226.075 159.099 225.644 159.013 225.27 158.84C224.899 158.665 224.609 158.425 224.4 158.119C224.192 157.812 224.089 157.461 224.091 157.068C224.089 156.76 224.149 156.476 224.272 156.216C224.395 155.953 224.564 155.734 224.777 155.559C224.992 155.381 225.232 155.269 225.498 155.222V155.179C225.15 155.089 224.873 154.894 224.667 154.593C224.461 154.29 224.359 153.946 224.361 153.56C224.359 153.19 224.452 152.86 224.642 152.569C224.831 152.278 225.092 152.048 225.423 151.88C225.757 151.712 226.137 151.628 226.563 151.628C226.984 151.628 227.361 151.712 227.692 151.88C228.024 152.048 228.284 152.278 228.473 152.569C228.665 152.86 228.762 153.19 228.765 153.56C228.762 153.946 228.657 154.29 228.449 154.593C228.243 154.894 227.969 155.089 227.628 155.179V155.222C227.891 155.269 228.128 155.381 228.338 155.559C228.549 155.734 228.717 155.953 228.843 156.216C228.968 156.476 229.032 156.76 229.034 157.068C229.032 157.461 228.926 157.812 228.715 158.119C228.507 158.425 228.217 158.665 227.845 158.84C227.475 159.013 227.048 159.099 226.563 159.099ZM226.563 158.318C226.892 158.318 227.176 158.265 227.415 158.158C227.654 158.052 227.839 157.902 227.969 157.707C228.099 157.513 228.166 157.286 228.168 157.026C228.166 156.751 228.095 156.508 227.955 156.298C227.815 156.087 227.625 155.921 227.383 155.8C227.144 155.68 226.871 155.619 226.563 155.619C226.253 155.619 225.976 155.68 225.732 155.8C225.49 155.921 225.3 156.087 225.16 156.298C225.023 156.508 224.955 156.751 224.958 157.026C224.955 157.286 225.018 157.513 225.146 157.707C225.276 157.902 225.462 158.052 225.703 158.158C225.945 158.265 226.231 158.318 226.563 158.318ZM226.563 154.866C226.823 154.866 227.054 154.814 227.255 154.71C227.459 154.606 227.619 154.46 227.735 154.273C227.851 154.086 227.91 153.867 227.912 153.616C227.91 153.37 227.852 153.156 227.738 152.974C227.625 152.789 227.467 152.647 227.266 152.548C227.065 152.446 226.83 152.395 226.563 152.395C226.291 152.395 226.053 152.446 225.849 152.548C225.645 152.647 225.488 152.789 225.377 152.974C225.266 153.156 225.211 153.37 225.213 153.616C225.211 153.867 225.267 154.086 225.38 154.273C225.496 154.46 225.656 154.606 225.86 154.71C226.063 154.814 226.298 154.866 226.563 154.866ZM232.725 159.099C232.237 159.099 231.806 159.013 231.432 158.84C231.061 158.665 230.771 158.425 230.562 158.119C230.354 157.812 230.251 157.461 230.253 157.068C230.251 156.76 230.311 156.476 230.434 156.216C230.558 155.953 230.726 155.734 230.939 155.559C231.154 155.381 231.394 155.269 231.66 155.222V155.179C231.312 155.089 231.035 154.894 230.829 154.593C230.623 154.29 230.521 153.946 230.523 153.56C230.521 153.19 230.614 152.86 230.804 152.569C230.993 152.278 231.254 152.048 231.585 151.88C231.919 151.712 232.299 151.628 232.725 151.628C233.146 151.628 233.523 151.712 233.854 151.88C234.186 152.048 234.446 152.278 234.635 152.569C234.827 152.86 234.924 153.19 234.927 153.56C234.924 153.946 234.819 154.29 234.611 154.593C234.405 154.894 234.131 155.089 233.79 155.179V155.222C234.053 155.269 234.29 155.381 234.501 155.559C234.711 155.734 234.879 155.953 235.005 156.216C235.13 156.476 235.194 156.76 235.197 157.068C235.194 157.461 235.088 157.812 234.877 158.119C234.669 158.425 234.379 158.665 234.007 158.84C233.638 159.013 233.21 159.099 232.725 159.099ZM232.725 158.318C233.054 158.318 233.338 158.265 233.577 158.158C233.816 158.052 234.001 157.902 234.131 157.707C234.261 157.513 234.328 157.286 234.33 157.026C234.328 156.751 234.257 156.508 234.117 156.298C233.977 156.087 233.787 155.921 233.545 155.8C233.306 155.68 233.033 155.619 232.725 155.619C232.415 155.619 232.138 155.68 231.894 155.8C231.653 155.921 231.462 156.087 231.322 156.298C231.185 156.508 231.117 156.751 231.12 157.026C231.117 157.286 231.18 157.513 231.308 157.707C231.438 157.902 231.624 158.052 231.866 158.158C232.107 158.265 232.394 158.318 232.725 158.318ZM232.725 154.866C232.985 154.866 233.216 154.814 233.417 154.71C233.621 154.606 233.781 154.46 233.897 154.273C234.013 154.086 234.072 153.867 234.074 153.616C234.072 153.37 234.014 153.156 233.9 152.974C233.787 152.789 233.629 152.647 233.428 152.548C233.227 152.446 232.992 152.395 232.725 152.395C232.453 152.395 232.215 152.446 232.011 152.548C231.808 152.647 231.65 152.789 231.539 152.974C231.428 153.156 231.373 153.37 231.376 153.616C231.373 153.867 231.429 154.086 231.542 154.273C231.658 154.46 231.818 154.606 232.022 154.71C232.225 154.814 232.46 154.866 232.725 154.866ZM238.93 159.099C238.395 159.099 237.939 158.954 237.562 158.663C237.186 158.369 236.898 157.944 236.7 157.388C236.501 156.829 236.401 156.154 236.401 155.364C236.401 154.578 236.501 153.906 236.7 153.35C236.901 152.791 237.19 152.365 237.566 152.072C237.945 151.776 238.399 151.628 238.93 151.628C239.46 151.628 239.913 151.776 240.29 152.072C240.669 152.365 240.957 152.791 241.156 153.35C241.357 153.906 241.458 154.578 241.458 155.364C241.458 156.154 241.359 156.829 241.16 157.388C240.961 157.944 240.673 158.369 240.297 158.663C239.92 158.954 239.465 159.099 238.93 159.099ZM238.93 158.318C239.46 158.318 239.872 158.062 240.165 157.551C240.459 157.04 240.606 156.311 240.606 155.364C240.606 154.734 240.538 154.198 240.403 153.755C240.271 153.312 240.079 152.975 239.828 152.743C239.58 152.511 239.28 152.395 238.93 152.395C238.404 152.395 237.993 152.654 237.697 153.173C237.402 153.689 237.254 154.419 237.254 155.364C237.254 155.993 237.32 156.528 237.452 156.969C237.585 157.409 237.776 157.744 238.024 157.974C238.275 158.203 238.577 158.318 238.93 158.318ZM245.18 159.099C244.645 159.099 244.189 158.954 243.812 158.663C243.436 158.369 243.148 157.944 242.95 157.388C242.751 156.829 242.651 156.154 242.651 155.364C242.651 154.578 242.751 153.906 242.95 153.35C243.151 152.791 243.44 152.365 243.816 152.072C244.195 151.776 244.649 151.628 245.18 151.628C245.71 151.628 246.163 151.776 246.54 152.072C246.919 152.365 247.207 152.791 247.406 153.35C247.607 153.906 247.708 154.578 247.708 155.364C247.708 156.154 247.609 156.829 247.41 157.388C247.211 157.944 246.923 158.369 246.547 158.663C246.17 158.954 245.715 159.099 245.18 159.099ZM245.18 158.318C245.71 158.318 246.122 158.062 246.415 157.551C246.709 157.04 246.856 156.311 246.856 155.364C246.856 154.734 246.788 154.198 246.653 153.755C246.521 153.312 246.329 152.975 246.078 152.743C245.83 152.511 245.53 152.395 245.18 152.395C244.654 152.395 244.243 152.654 243.947 153.173C243.652 153.689 243.504 154.419 243.504 155.364C243.504 155.993 243.57 156.528 243.702 156.969C243.835 157.409 244.026 157.744 244.274 157.974C244.525 158.203 244.827 158.318 245.18 158.318Z" fill="#EB8800"/>
<rect x="210" y="142" width="100" height="40" rx="20" transform="rotate(-90 210 142)" fill="#EB8800"/>
<path d="M267.381 159V151.727H271.741V152.509H268.261V154.966H271.415V155.747H268.261V159H267.381ZM273.25 159V151.727H277.611V152.509H274.131V154.966H277.284V155.747H274.131V159H273.25ZM278.509 159H277.586L280.256 151.727H281.165L283.836 159H282.912L280.739 152.878H280.682L278.509 159ZM278.85 156.159H282.572V156.94H278.85V156.159ZM287.213 159H284.969V151.727H287.312C288.018 151.727 288.622 151.873 289.123 152.164C289.625 152.453 290.01 152.868 290.278 153.411C290.545 153.95 290.679 154.597 290.679 155.349C290.679 156.107 290.544 156.759 290.274 157.306C290.004 157.851 289.611 158.27 289.095 158.563C288.579 158.854 287.952 159 287.213 159ZM285.849 158.219H287.156C287.757 158.219 288.256 158.103 288.651 157.871C289.046 157.639 289.341 157.308 289.535 156.88C289.729 156.451 289.827 155.941 289.827 155.349C289.827 154.762 289.731 154.257 289.539 153.833C289.347 153.407 289.061 153.08 288.68 152.853C288.298 152.623 287.824 152.509 287.256 152.509H285.849V158.219ZM294.486 159.099C294.017 159.099 293.599 159.019 293.232 158.858C292.867 158.697 292.577 158.473 292.362 158.187C292.149 157.898 292.033 157.563 292.014 157.182H292.909C292.928 157.416 293.008 157.619 293.15 157.789C293.292 157.957 293.478 158.087 293.708 158.18C293.938 158.272 294.192 158.318 294.471 158.318C294.784 158.318 295.061 158.264 295.302 158.155C295.544 158.046 295.733 157.894 295.871 157.7C296.008 157.506 296.077 157.281 296.077 157.026C296.077 156.758 296.01 156.522 295.878 156.319C295.745 156.113 295.551 155.952 295.295 155.836C295.04 155.72 294.727 155.662 294.358 155.662H293.775V154.881H294.358C294.647 154.881 294.9 154.829 295.118 154.724C295.338 154.62 295.51 154.473 295.633 154.284C295.758 154.095 295.821 153.872 295.821 153.616C295.821 153.37 295.766 153.156 295.657 152.974C295.549 152.791 295.395 152.649 295.196 152.548C294.999 152.446 294.767 152.395 294.5 152.395C294.249 152.395 294.012 152.441 293.79 152.533C293.569 152.623 293.39 152.755 293.25 152.928C293.11 153.098 293.034 153.304 293.023 153.545H292.17C292.184 153.164 292.299 152.83 292.515 152.544C292.73 152.255 293.012 152.03 293.36 151.869C293.71 151.708 294.095 151.628 294.514 151.628C294.964 151.628 295.35 151.719 295.672 151.901C295.994 152.081 296.241 152.319 296.414 152.615C296.587 152.911 296.673 153.231 296.673 153.574C296.673 153.983 296.565 154.333 296.35 154.621C296.137 154.91 295.847 155.11 295.48 155.222V155.278C295.939 155.354 296.298 155.549 296.556 155.864C296.814 156.177 296.943 156.564 296.943 157.026C296.943 157.421 296.835 157.776 296.62 158.091C296.407 158.403 296.116 158.65 295.746 158.83C295.377 159.009 294.957 159.099 294.486 159.099ZM300.768 159H298.523V151.727H300.867C301.573 151.727 302.176 151.873 302.678 152.164C303.18 152.453 303.565 152.868 303.832 153.411C304.1 153.95 304.233 154.597 304.233 155.349C304.233 156.107 304.099 156.759 303.829 157.306C303.559 157.851 303.166 158.27 302.65 158.563C302.134 158.854 301.506 159 300.768 159ZM299.404 158.219H300.711C301.312 158.219 301.81 158.103 302.206 157.871C302.601 157.639 302.896 157.308 303.09 156.88C303.284 156.451 303.381 155.941 303.381 155.349C303.381 154.762 303.285 154.257 303.094 153.833C302.902 153.407 302.615 153.08 302.234 152.853C301.853 152.623 301.378 152.509 300.81 152.509H299.404V158.219Z" fill="#FFAD3D"/>
<rect x="266" y="142" width="100" height="40" rx="20" transform="rotate(-90 266 142)" fill="#FFAD3D"/>
<rect x="352" y="24" width="193" height="150" rx="20" fill="white"/>
<path d="M376.253 159V158.361L378.653 155.733C378.935 155.425 379.167 155.158 379.349 154.93C379.532 154.701 379.667 154.485 379.754 154.284C379.844 154.08 379.889 153.867 379.889 153.645C379.889 153.389 379.828 153.168 379.705 152.981C379.584 152.794 379.418 152.649 379.207 152.548C378.997 152.446 378.76 152.395 378.497 152.395C378.218 152.395 377.974 152.453 377.766 152.569C377.56 152.683 377.4 152.842 377.286 153.048C377.175 153.254 377.119 153.496 377.119 153.773H376.281C376.281 153.347 376.379 152.973 376.576 152.651C376.772 152.329 377.04 152.078 377.379 151.898C377.719 151.718 378.102 151.628 378.526 151.628C378.952 151.628 379.329 151.718 379.658 151.898C379.987 152.078 380.246 152.32 380.433 152.626C380.62 152.931 380.713 153.271 380.713 153.645C380.713 153.912 380.665 154.174 380.567 154.43C380.473 154.683 380.307 154.966 380.07 155.278C379.836 155.589 379.51 155.967 379.094 156.415L377.46 158.162V158.219H380.841V159H376.253ZM384.68 159.099C384.145 159.099 383.689 158.954 383.312 158.663C382.936 158.369 382.648 157.944 382.45 157.388C382.251 156.829 382.151 156.154 382.151 155.364C382.151 154.578 382.251 153.906 382.45 153.35C382.651 152.791 382.94 152.365 383.316 152.072C383.695 151.776 384.149 151.628 384.68 151.628C385.21 151.628 385.663 151.776 386.04 152.072C386.419 152.365 386.707 152.791 386.906 153.35C387.107 153.906 387.208 154.578 387.208 155.364C387.208 156.154 387.109 156.829 386.91 157.388C386.711 157.944 386.423 158.369 386.047 158.663C385.67 158.954 385.215 159.099 384.68 159.099ZM384.68 158.318C385.21 158.318 385.622 158.062 385.915 157.551C386.209 157.04 386.356 156.311 386.356 155.364C386.356 154.734 386.288 154.198 386.153 153.755C386.021 153.312 385.829 152.975 385.578 152.743C385.33 152.511 385.03 152.395 384.68 152.395C384.154 152.395 383.743 152.654 383.447 153.173C383.152 153.689 383.004 154.419 383.004 155.364C383.004 155.993 383.07 156.528 383.202 156.969C383.335 157.409 383.526 157.744 383.774 157.974C384.025 158.203 384.327 158.318 384.68 158.318ZM388.589 159L391.842 152.565V152.509H388.092V151.727H392.751V152.551L389.513 159H388.589ZM396.25 159.099C395.834 159.099 395.458 159.017 395.124 158.851C394.791 158.685 394.523 158.458 394.322 158.169C394.121 157.88 394.011 157.551 393.992 157.182H394.844C394.877 157.511 395.026 157.783 395.291 157.999C395.559 158.212 395.878 158.318 396.25 158.318C396.548 158.318 396.814 158.248 397.046 158.109C397.28 157.969 397.463 157.777 397.596 157.533C397.731 157.287 397.798 157.009 397.798 156.699C397.798 156.382 397.729 156.099 397.589 155.85C397.452 155.599 397.262 155.402 397.021 155.257C396.779 155.113 396.503 155.039 396.193 155.037C395.971 155.035 395.742 155.069 395.508 155.14C395.274 155.209 395.081 155.297 394.929 155.406L394.105 155.307L394.546 151.727H398.324V152.509H395.284L395.029 154.653H395.071C395.22 154.535 395.407 154.437 395.632 154.359C395.857 154.281 396.092 154.241 396.335 154.241C396.78 154.241 397.177 154.348 397.525 154.561C397.875 154.772 398.15 155.061 398.349 155.428C398.55 155.795 398.651 156.214 398.651 156.685C398.651 157.149 398.547 157.563 398.338 157.928C398.132 158.29 397.848 158.576 397.486 158.787C397.124 158.995 396.712 159.099 396.25 159.099ZM400.189 159V151.727H404.578V152.509H401.07V154.966H404.351V155.747H401.07V158.219H404.635V159H400.189ZM406.166 159V151.727H408.708C409.215 151.727 409.633 151.815 409.962 151.99C410.291 152.163 410.536 152.396 410.697 152.69C410.858 152.981 410.939 153.304 410.939 153.659C410.939 153.972 410.883 154.23 410.772 154.433C410.663 154.637 410.518 154.798 410.338 154.916C410.161 155.035 409.968 155.122 409.76 155.179V155.25C409.982 155.264 410.206 155.342 410.431 155.484C410.656 155.626 410.844 155.83 410.995 156.095C411.147 156.36 411.223 156.685 411.223 157.068C411.223 157.433 411.14 157.761 410.974 158.052C410.808 158.343 410.547 158.574 410.189 158.744C409.832 158.915 409.367 159 408.794 159H406.166ZM407.047 158.219H408.794C409.369 158.219 409.777 158.107 410.019 157.885C410.263 157.66 410.385 157.388 410.385 157.068C410.385 156.822 410.322 156.595 410.196 156.386C410.071 156.176 409.892 156.008 409.66 155.882C409.428 155.754 409.154 155.69 408.836 155.69H407.047V158.219ZM407.047 154.923H408.68C408.945 154.923 409.184 154.871 409.397 154.767C409.613 154.663 409.783 154.516 409.909 154.327C410.037 154.137 410.1 153.915 410.1 153.659C410.1 153.339 409.989 153.068 409.767 152.846C409.544 152.621 409.191 152.509 408.708 152.509H407.047V154.923Z" fill="#2075EB"/>
<rect x="374" y="142" width="100" height="40" rx="20" transform="rotate(-90 374 142)" fill="#2075EB"/>
<path d="M432.082 157.509V156.784L435.278 151.727H435.804V152.849H435.449L433.034 156.67V156.727H437.338V157.509H432.082ZM435.506 159V157.288V156.951V151.727H436.344V159H435.506ZM440.984 151.628C441.282 151.63 441.581 151.687 441.879 151.798C442.177 151.91 442.45 152.094 442.696 152.352C442.942 152.608 443.14 152.957 443.289 153.4C443.438 153.843 443.513 154.398 443.513 155.065C443.513 155.712 443.451 156.286 443.328 156.788C443.207 157.287 443.032 157.709 442.802 158.052C442.575 158.395 442.298 158.656 441.971 158.833C441.647 159.011 441.28 159.099 440.871 159.099C440.463 159.099 440.1 159.019 439.78 158.858C439.463 158.695 439.203 158.469 438.999 158.18C438.798 157.888 438.669 157.551 438.612 157.168H439.479C439.557 157.501 439.712 157.777 439.944 157.995C440.178 158.21 440.487 158.318 440.871 158.318C441.432 158.318 441.874 158.073 442.199 157.583C442.525 157.093 442.689 156.401 442.689 155.506H442.632C442.499 155.705 442.342 155.876 442.16 156.021C441.977 156.165 441.775 156.276 441.552 156.354C441.33 156.433 441.093 156.472 440.842 156.472C440.425 156.472 440.043 156.369 439.695 156.163C439.349 155.954 439.073 155.669 438.864 155.307C438.658 154.942 438.555 154.526 438.555 154.057C438.555 153.612 438.655 153.205 438.854 152.835C439.055 152.464 439.336 152.168 439.699 151.947C440.063 151.727 440.492 151.621 440.984 151.628ZM440.984 152.409C440.686 152.409 440.417 152.484 440.178 152.633C439.941 152.78 439.753 152.978 439.613 153.229C439.476 153.478 439.407 153.754 439.407 154.057C439.407 154.36 439.474 154.636 439.606 154.884C439.741 155.13 439.925 155.327 440.157 155.474C440.391 155.618 440.657 155.69 440.956 155.69C441.181 155.69 441.39 155.647 441.584 155.559C441.778 155.469 441.948 155.347 442.092 155.193C442.239 155.037 442.354 154.861 442.437 154.664C442.519 154.465 442.561 154.258 442.561 154.043C442.561 153.759 442.492 153.492 442.355 153.244C442.22 152.995 442.033 152.794 441.794 152.64C441.557 152.486 441.287 152.409 440.984 152.409ZM447.224 151.628C447.523 151.63 447.821 151.687 448.119 151.798C448.418 151.91 448.69 152.094 448.936 152.352C449.182 152.608 449.38 152.957 449.529 153.4C449.678 153.843 449.753 154.398 449.753 155.065C449.753 155.712 449.691 156.286 449.568 156.788C449.447 157.287 449.272 157.709 449.043 158.052C448.815 158.395 448.538 158.656 448.212 158.833C447.887 159.011 447.52 159.099 447.111 159.099C446.704 159.099 446.34 159.019 446.021 158.858C445.703 158.695 445.443 158.469 445.239 158.18C445.038 157.888 444.909 157.551 444.852 157.168H445.719C445.797 157.501 445.952 157.777 446.184 157.995C446.418 158.21 446.727 158.318 447.111 158.318C447.672 158.318 448.115 158.073 448.439 157.583C448.766 157.093 448.929 156.401 448.929 155.506H448.872C448.74 155.705 448.582 155.876 448.4 156.021C448.218 156.165 448.015 156.276 447.793 156.354C447.57 156.433 447.333 156.472 447.082 156.472C446.666 156.472 446.283 156.369 445.935 156.163C445.59 155.954 445.313 155.669 445.104 155.307C444.898 154.942 444.795 154.526 444.795 154.057C444.795 153.612 444.895 153.205 445.094 152.835C445.295 152.464 445.577 152.168 445.939 151.947C446.304 151.727 446.732 151.621 447.224 151.628ZM447.224 152.409C446.926 152.409 446.657 152.484 446.418 152.633C446.182 152.78 445.993 152.978 445.854 153.229C445.716 153.478 445.648 153.754 445.648 154.057C445.648 154.36 445.714 154.636 445.847 154.884C445.982 155.13 446.165 155.327 446.397 155.474C446.631 155.618 446.898 155.69 447.196 155.69C447.421 155.69 447.63 155.647 447.825 155.559C448.019 155.469 448.188 155.347 448.332 155.193C448.479 155.037 448.594 154.861 448.677 154.664C448.76 154.465 448.801 154.258 448.801 154.043C448.801 153.759 448.732 153.492 448.595 153.244C448.46 152.995 448.273 152.794 448.034 152.64C447.797 152.486 447.527 152.409 447.224 152.409ZM451.181 159L454.434 152.565V152.509H450.684V151.727H455.343V152.551L452.105 159H451.181ZM456.795 159V151.727H461.156V152.509H457.675V154.966H460.829V155.747H457.675V159H456.795ZM462.054 159H461.131L463.801 151.727H464.71L467.381 159H466.457L464.284 152.878H464.227L462.054 159ZM462.395 156.159H466.116V156.94H462.395V156.159Z" fill="#4997FA"/>
<rect x="430" y="142" width="100" height="40" rx="20" transform="rotate(-90 430 142)" fill="#4997FA"/>
<path d="M487.582 157.509V156.784L490.778 151.727H491.304V152.849H490.949L488.534 156.67V156.727H492.838V157.509H487.582ZM491.006 159V157.288V156.951V151.727H491.844V159H491.006ZM496.484 151.628C496.782 151.63 497.081 151.687 497.379 151.798C497.677 151.91 497.95 152.094 498.196 152.352C498.442 152.608 498.64 152.957 498.789 153.4C498.938 153.843 499.013 154.398 499.013 155.065C499.013 155.712 498.951 156.286 498.828 156.788C498.707 157.287 498.532 157.709 498.302 158.052C498.075 158.395 497.798 158.656 497.471 158.833C497.147 159.011 496.78 159.099 496.371 159.099C495.963 159.099 495.6 159.019 495.28 158.858C494.963 158.695 494.703 158.469 494.499 158.18C494.298 157.888 494.169 157.551 494.112 157.168H494.979C495.057 157.501 495.212 157.777 495.444 157.995C495.678 158.21 495.987 158.318 496.371 158.318C496.932 158.318 497.374 158.073 497.699 157.583C498.025 157.093 498.189 156.401 498.189 155.506H498.132C497.999 155.705 497.842 155.876 497.66 156.021C497.477 156.165 497.275 156.276 497.052 156.354C496.83 156.433 496.593 156.472 496.342 156.472C495.925 156.472 495.543 156.369 495.195 156.163C494.849 155.954 494.573 155.669 494.364 155.307C494.158 154.942 494.055 154.526 494.055 154.057C494.055 153.612 494.155 153.205 494.354 152.835C494.555 152.464 494.836 152.168 495.199 151.947C495.563 151.727 495.992 151.621 496.484 151.628ZM496.484 152.409C496.186 152.409 495.917 152.484 495.678 152.633C495.441 152.78 495.253 152.978 495.113 153.229C494.976 153.478 494.907 153.754 494.907 154.057C494.907 154.36 494.974 154.636 495.106 154.884C495.241 155.13 495.425 155.327 495.657 155.474C495.891 155.618 496.157 155.69 496.456 155.69C496.681 155.69 496.89 155.647 497.084 155.559C497.278 155.469 497.448 155.347 497.592 155.193C497.739 155.037 497.854 154.861 497.937 154.664C498.019 154.465 498.061 154.258 498.061 154.043C498.061 153.759 497.992 153.492 497.855 153.244C497.72 152.995 497.533 152.794 497.294 152.64C497.057 152.486 496.787 152.409 496.484 152.409ZM500.537 159V151.727H503.08C503.586 151.727 504.004 151.815 504.333 151.99C504.662 152.163 504.907 152.396 505.068 152.69C505.229 152.981 505.31 153.304 505.31 153.659C505.31 153.972 505.254 154.23 505.143 154.433C505.034 154.637 504.889 154.798 504.71 154.916C504.532 155.035 504.339 155.122 504.131 155.179V155.25C504.353 155.264 504.577 155.342 504.802 155.484C505.027 155.626 505.215 155.83 505.366 156.095C505.518 156.36 505.594 156.685 505.594 157.068C505.594 157.433 505.511 157.761 505.345 158.052C505.179 158.343 504.918 158.574 504.56 158.744C504.203 158.915 503.738 159 503.165 159H500.537ZM501.418 158.219H503.165C503.74 158.219 504.148 158.107 504.39 157.885C504.634 157.66 504.756 157.388 504.756 157.068C504.756 156.822 504.693 156.595 504.567 156.386C504.442 156.176 504.263 156.008 504.031 155.882C503.799 155.754 503.525 155.69 503.207 155.69H501.418V158.219ZM501.418 154.923H503.051C503.316 154.923 503.555 154.871 503.768 154.767C503.984 154.663 504.154 154.516 504.28 154.327C504.408 154.137 504.472 153.915 504.472 153.659C504.472 153.339 504.36 153.068 504.138 152.846C503.915 152.621 503.563 152.509 503.08 152.509H501.418V154.923ZM509.37 159.099C508.902 159.099 508.484 159.019 508.117 158.858C507.752 158.697 507.462 158.473 507.247 158.187C507.034 157.898 506.918 157.563 506.899 157.182H507.794C507.813 157.416 507.893 157.619 508.035 157.789C508.177 157.957 508.363 158.087 508.593 158.18C508.822 158.272 509.077 158.318 509.356 158.318C509.669 158.318 509.946 158.264 510.187 158.155C510.429 158.046 510.618 157.894 510.755 157.7C510.893 157.506 510.961 157.281 510.961 157.026C510.961 156.758 510.895 156.522 510.762 156.319C510.63 156.113 510.436 155.952 510.18 155.836C509.924 155.72 509.612 155.662 509.243 155.662H508.66V154.881H509.243C509.531 154.881 509.785 154.829 510.002 154.724C510.223 154.62 510.394 154.473 510.517 154.284C510.643 154.095 510.706 153.872 510.706 153.616C510.706 153.37 510.651 153.156 510.542 152.974C510.433 152.791 510.279 152.649 510.081 152.548C509.884 152.446 509.652 152.395 509.385 152.395C509.134 152.395 508.897 152.441 508.674 152.533C508.454 152.623 508.274 152.755 508.135 152.928C507.995 153.098 507.919 153.304 507.907 153.545H507.055C507.069 153.164 507.184 152.83 507.4 152.544C507.615 152.255 507.897 152.03 508.245 151.869C508.595 151.708 508.98 151.628 509.399 151.628C509.849 151.628 510.234 151.719 510.556 151.901C510.878 152.081 511.126 152.319 511.299 152.615C511.471 152.911 511.558 153.231 511.558 153.574C511.558 153.983 511.45 154.333 511.235 154.621C511.022 154.91 510.732 155.11 510.365 155.222V155.278C510.824 155.354 511.183 155.549 511.441 155.864C511.699 156.177 511.828 156.564 511.828 157.026C511.828 157.421 511.72 157.776 511.505 158.091C511.292 158.403 511 158.65 510.631 158.83C510.262 159.009 509.842 159.099 509.37 159.099ZM513.408 159V151.727H517.769V152.509H514.289V154.966H517.442V155.747H514.289V159H513.408ZM521.422 159.099C521.005 159.099 520.63 159.017 520.296 158.851C519.963 158.685 519.695 158.458 519.494 158.169C519.293 157.88 519.182 157.551 519.164 157.182H520.016C520.049 157.511 520.198 157.783 520.463 157.999C520.731 158.212 521.05 158.318 521.422 158.318C521.72 158.318 521.985 158.248 522.218 158.109C522.452 157.969 522.635 157.777 522.768 157.533C522.903 157.287 522.97 157.009 522.97 156.699C522.97 156.382 522.901 156.099 522.761 155.85C522.624 155.599 522.434 155.402 522.193 155.257C521.951 155.113 521.675 155.039 521.365 155.037C521.143 155.035 520.914 155.069 520.68 155.14C520.445 155.209 520.253 155.297 520.101 155.406L519.277 155.307L519.718 151.727H523.496V152.509H520.456L520.2 154.653H520.243C520.392 154.535 520.579 154.437 520.804 154.359C521.029 154.281 521.263 154.241 521.507 154.241C521.952 154.241 522.349 154.348 522.697 154.561C523.047 154.772 523.322 155.061 523.521 155.428C523.722 155.795 523.823 156.214 523.823 156.685C523.823 157.149 523.718 157.563 523.51 157.928C523.304 158.29 523.02 158.576 522.658 158.787C522.296 158.995 521.884 159.099 521.422 159.099Z" fill="#49B3F5"/>
<rect x="486" y="142" width="100" height="40" rx="20" transform="rotate(-90 486 142)" fill="#49B3F5"/>
<rect x="371" y="197" width="174" height="150" rx="20" fill="white"/>
<rect x="385" y="315" width="100" height="40" rx="20" transform="rotate(-90 385 315)" fill="#00C2A1"/>
<path d="M389.625 332.099C389.09 332.099 388.634 331.954 388.258 331.663C387.881 331.369 387.594 330.944 387.395 330.388C387.196 329.829 387.097 329.154 387.097 328.364C387.097 327.578 387.196 326.906 387.395 326.35C387.596 325.791 387.885 325.365 388.261 325.072C388.64 324.776 389.095 324.628 389.625 324.628C390.155 324.628 390.609 324.776 390.985 325.072C391.364 325.365 391.653 325.791 391.852 326.35C392.053 326.906 392.153 327.578 392.153 328.364C392.153 329.154 392.054 329.829 391.855 330.388C391.656 330.944 391.369 331.369 390.992 331.663C390.616 331.954 390.16 332.099 389.625 332.099ZM389.625 331.318C390.155 331.318 390.567 331.062 390.861 330.551C391.154 330.04 391.301 329.311 391.301 328.364C391.301 327.734 391.234 327.198 391.099 326.755C390.966 326.312 390.774 325.975 390.523 325.743C390.275 325.511 389.975 325.395 389.625 325.395C389.099 325.395 388.689 325.654 388.393 326.173C388.097 326.689 387.949 327.419 387.949 328.364C387.949 328.993 388.015 329.528 388.148 329.969C388.28 330.409 388.471 330.744 388.719 330.974C388.97 331.203 389.272 331.318 389.625 331.318ZM395.875 332.099C395.34 332.099 394.884 331.954 394.508 331.663C394.131 331.369 393.844 330.944 393.645 330.388C393.446 329.829 393.347 329.154 393.347 328.364C393.347 327.578 393.446 326.906 393.645 326.35C393.846 325.791 394.135 325.365 394.511 325.072C394.89 324.776 395.345 324.628 395.875 324.628C396.405 324.628 396.859 324.776 397.235 325.072C397.614 325.365 397.903 325.791 398.102 326.35C398.303 326.906 398.403 327.578 398.403 328.364C398.403 329.154 398.304 329.829 398.105 330.388C397.906 330.944 397.619 331.369 397.242 331.663C396.866 331.954 396.41 332.099 395.875 332.099ZM395.875 331.318C396.405 331.318 396.817 331.062 397.111 330.551C397.404 330.04 397.551 329.311 397.551 328.364C397.551 327.734 397.484 327.198 397.349 326.755C397.216 326.312 397.024 325.975 396.773 325.743C396.525 325.511 396.225 325.395 395.875 325.395C395.349 325.395 394.939 325.654 394.643 326.173C394.347 326.689 394.199 327.419 394.199 328.364C394.199 328.993 394.265 329.528 394.398 329.969C394.53 330.409 394.721 330.744 394.969 330.974C395.22 331.203 395.522 331.318 395.875 331.318ZM405.733 327H404.852C404.8 326.747 404.709 326.524 404.579 326.332C404.451 326.141 404.295 325.98 404.11 325.849C403.928 325.717 403.725 325.617 403.503 325.551C403.28 325.485 403.048 325.452 402.807 325.452C402.366 325.452 401.968 325.563 401.61 325.786C401.255 326.008 400.972 326.336 400.761 326.769C400.553 327.202 400.449 327.734 400.449 328.364C400.449 328.993 400.553 329.525 400.761 329.958C400.972 330.391 401.255 330.719 401.61 330.942C401.968 331.164 402.366 331.276 402.807 331.276C403.048 331.276 403.28 331.242 403.503 331.176C403.725 331.11 403.928 331.012 404.11 330.881C404.295 330.749 404.451 330.587 404.579 330.395C404.709 330.201 404.8 329.978 404.852 329.727H405.733C405.667 330.099 405.546 330.432 405.371 330.725C405.196 331.019 404.978 331.268 404.717 331.474C404.457 331.678 404.165 331.833 403.84 331.94C403.518 332.046 403.174 332.099 402.807 332.099C402.187 332.099 401.635 331.948 401.152 331.645C400.669 331.342 400.289 330.911 400.012 330.352C399.735 329.794 399.597 329.131 399.597 328.364C399.597 327.597 399.735 326.934 400.012 326.375C400.289 325.816 400.669 325.385 401.152 325.082C401.635 324.779 402.187 324.628 402.807 324.628C403.174 324.628 403.518 324.681 403.84 324.788C404.165 324.894 404.457 325.05 404.717 325.256C404.978 325.46 405.196 325.709 405.371 326.002C405.546 326.293 405.667 326.626 405.733 327ZM407.028 332V331.361L409.429 328.733C409.711 328.425 409.943 328.158 410.125 327.93C410.307 327.701 410.442 327.485 410.53 327.284C410.62 327.08 410.665 326.867 410.665 326.645C410.665 326.389 410.603 326.168 410.48 325.981C410.359 325.794 410.193 325.649 409.983 325.548C409.772 325.446 409.535 325.395 409.273 325.395C408.993 325.395 408.749 325.453 408.541 325.569C408.335 325.683 408.175 325.842 408.062 326.048C407.95 326.254 407.895 326.496 407.895 326.773H407.057C407.057 326.347 407.155 325.973 407.351 325.651C407.548 325.329 407.815 325.078 408.154 324.898C408.495 324.718 408.877 324.628 409.301 324.628C409.727 324.628 410.105 324.718 410.434 324.898C410.763 325.078 411.021 325.32 411.208 325.626C411.395 325.931 411.488 326.271 411.488 326.645C411.488 326.912 411.44 327.174 411.343 327.43C411.248 327.683 411.082 327.966 410.846 328.278C410.611 328.589 410.286 328.967 409.869 329.415L408.236 331.162V331.219H411.616V332H407.028ZM413.509 332H412.586L415.256 324.727H416.165L418.836 332H417.912L415.739 325.878H415.682L413.509 332ZM413.85 329.159H417.572V329.94H413.85V329.159ZM422.056 324.727V332H421.175V325.651H421.132L419.357 326.83V325.935L421.175 324.727H422.056Z" fill="#00C2A1"/>
<rect x="437" y="315" width="100" height="40" rx="20" transform="rotate(-90 437 315)" fill="#E66060"/>
<path d="M438.881 332V324.727H443.27V325.509H439.761V327.966H443.043V328.747H439.761V331.219H443.327V332H438.881ZM447.144 332.099C446.846 332.095 446.548 332.038 446.249 331.929C445.951 331.82 445.679 331.637 445.433 331.379C445.186 331.118 444.989 330.767 444.839 330.324C444.69 329.879 444.616 329.32 444.616 328.648C444.616 328.004 444.676 327.433 444.797 326.936C444.918 326.437 445.093 326.016 445.322 325.675C445.552 325.332 445.829 325.072 446.153 324.894C446.48 324.717 446.848 324.628 447.258 324.628C447.665 324.628 448.027 324.71 448.344 324.873C448.664 325.034 448.924 325.259 449.126 325.548C449.327 325.836 449.457 326.169 449.516 326.545H448.65C448.569 326.219 448.413 325.948 448.181 325.732C447.949 325.517 447.641 325.409 447.258 325.409C446.694 325.409 446.25 325.654 445.926 326.144C445.604 326.634 445.442 327.322 445.44 328.207H445.496C445.629 328.006 445.786 327.835 445.969 327.692C446.153 327.548 446.357 327.437 446.58 327.359C446.802 327.281 447.038 327.241 447.286 327.241C447.703 327.241 448.084 327.346 448.43 327.554C448.775 327.76 449.052 328.045 449.261 328.41C449.469 328.772 449.573 329.188 449.573 329.656C449.573 330.106 449.473 330.518 449.271 330.892C449.07 331.264 448.787 331.56 448.423 331.78C448.06 331.998 447.634 332.104 447.144 332.099ZM447.144 331.318C447.442 331.318 447.71 331.244 447.947 331.094C448.186 330.945 448.374 330.745 448.511 330.494C448.651 330.243 448.721 329.964 448.721 329.656C448.721 329.356 448.653 329.082 448.518 328.836C448.386 328.587 448.202 328.39 447.968 328.243C447.736 328.096 447.471 328.023 447.173 328.023C446.948 328.023 446.738 328.068 446.544 328.158C446.35 328.245 446.179 328.366 446.033 328.52C445.888 328.674 445.775 328.85 445.692 329.049C445.609 329.246 445.567 329.453 445.567 329.67C445.567 329.959 445.635 330.229 445.77 330.48C445.907 330.731 446.094 330.933 446.331 331.087C446.57 331.241 446.841 331.318 447.144 331.318ZM453.384 332.099C453.086 332.095 452.788 332.038 452.49 331.929C452.191 331.82 451.919 331.637 451.673 331.379C451.427 331.118 451.229 330.767 451.08 330.324C450.931 329.879 450.856 329.32 450.856 328.648C450.856 328.004 450.916 327.433 451.037 326.936C451.158 326.437 451.333 326.016 451.563 325.675C451.792 325.332 452.069 325.072 452.394 324.894C452.72 324.717 453.088 324.628 453.498 324.628C453.905 324.628 454.267 324.71 454.585 324.873C454.904 325.034 455.165 325.259 455.366 325.548C455.567 325.836 455.697 326.169 455.757 326.545H454.89C454.81 326.219 454.653 325.948 454.421 325.732C454.189 325.517 453.882 325.409 453.498 325.409C452.935 325.409 452.491 325.654 452.166 326.144C451.844 326.634 451.682 327.322 451.68 328.207H451.737C451.869 328.006 452.027 327.835 452.209 327.692C452.394 327.548 452.597 327.437 452.82 327.359C453.042 327.281 453.278 327.241 453.526 327.241C453.943 327.241 454.324 327.346 454.67 327.554C455.016 327.76 455.293 328.045 455.501 328.41C455.709 328.772 455.813 329.188 455.813 329.656C455.813 330.106 455.713 330.518 455.512 330.892C455.31 331.264 455.027 331.56 454.663 331.78C454.301 331.998 453.874 332.104 453.384 332.099ZM453.384 331.318C453.683 331.318 453.95 331.244 454.187 331.094C454.426 330.945 454.614 330.745 454.752 330.494C454.891 330.243 454.961 329.964 454.961 329.656C454.961 329.356 454.894 329.082 454.759 328.836C454.626 328.587 454.443 328.39 454.208 328.243C453.976 328.096 453.711 328.023 453.413 328.023C453.188 328.023 452.978 328.068 452.784 328.158C452.59 328.245 452.42 328.366 452.273 328.52C452.128 328.674 452.015 328.85 451.932 329.049C451.849 329.246 451.808 329.453 451.808 329.67C451.808 329.959 451.875 330.229 452.01 330.48C452.147 330.731 452.334 330.933 452.571 331.087C452.81 331.241 453.081 331.318 453.384 331.318ZM459.582 332.099C459.047 332.099 458.591 331.954 458.215 331.663C457.838 331.369 457.551 330.944 457.352 330.388C457.153 329.829 457.054 329.154 457.054 328.364C457.054 327.578 457.153 326.906 457.352 326.35C457.553 325.791 457.842 325.365 458.218 325.072C458.597 324.776 459.052 324.628 459.582 324.628C460.112 324.628 460.566 324.776 460.942 325.072C461.321 325.365 461.61 325.791 461.809 326.35C462.01 326.906 462.11 327.578 462.11 328.364C462.11 329.154 462.011 329.829 461.812 330.388C461.613 330.944 461.326 331.369 460.949 331.663C460.573 331.954 460.117 332.099 459.582 332.099ZM459.582 331.318C460.112 331.318 460.524 331.062 460.818 330.551C461.111 330.04 461.258 329.311 461.258 328.364C461.258 327.734 461.191 327.198 461.056 326.755C460.923 326.312 460.731 325.975 460.48 325.743C460.232 325.511 459.932 325.395 459.582 325.395C459.056 325.395 458.646 325.654 458.35 326.173C458.054 326.689 457.906 327.419 457.906 328.364C457.906 328.993 457.972 329.528 458.105 329.969C458.237 330.409 458.428 330.744 458.676 330.974C458.927 331.203 459.229 331.318 459.582 331.318ZM465.875 332.099C465.576 332.095 465.278 332.038 464.98 331.929C464.681 331.82 464.409 331.637 464.163 331.379C463.917 331.118 463.719 330.767 463.57 330.324C463.421 329.879 463.346 329.32 463.346 328.648C463.346 328.004 463.407 327.433 463.527 326.936C463.648 326.437 463.823 326.016 464.053 325.675C464.283 325.332 464.56 325.072 464.884 324.894C465.211 324.717 465.579 324.628 465.988 324.628C466.395 324.628 466.758 324.71 467.075 324.873C467.395 325.034 467.655 325.259 467.856 325.548C468.057 325.836 468.188 326.169 468.247 326.545H467.38C467.3 326.219 467.144 325.948 466.912 325.732C466.68 325.517 466.372 325.409 465.988 325.409C465.425 325.409 464.981 325.654 464.657 326.144C464.335 326.634 464.172 327.322 464.17 328.207H464.227C464.359 328.006 464.517 327.835 464.699 327.692C464.884 327.548 465.087 327.437 465.31 327.359C465.533 327.281 465.768 327.241 466.017 327.241C466.433 327.241 466.815 327.346 467.16 327.554C467.506 327.76 467.783 328.045 467.991 328.41C468.199 328.772 468.304 329.188 468.304 329.656C468.304 330.106 468.203 330.518 468.002 330.892C467.801 331.264 467.518 331.56 467.153 331.78C466.791 331.998 466.365 332.104 465.875 332.099ZM465.875 331.318C466.173 331.318 466.44 331.244 466.677 331.094C466.916 330.945 467.105 330.745 467.242 330.494C467.382 330.243 467.451 329.964 467.451 329.656C467.451 329.356 467.384 329.082 467.249 328.836C467.116 328.587 466.933 328.39 466.699 328.243C466.467 328.096 466.201 328.023 465.903 328.023C465.678 328.023 465.469 328.068 465.275 328.158C465.08 328.245 464.91 328.366 464.763 328.52C464.619 328.674 464.505 328.85 464.422 329.049C464.339 329.246 464.298 329.453 464.298 329.67C464.298 329.959 464.365 330.229 464.5 330.48C464.638 330.731 464.825 330.933 465.061 331.087C465.301 331.241 465.572 331.318 465.875 331.318ZM472.072 332.099C471.537 332.099 471.081 331.954 470.705 331.663C470.329 331.369 470.041 330.944 469.842 330.388C469.643 329.829 469.544 329.154 469.544 328.364C469.544 327.578 469.643 326.906 469.842 326.35C470.043 325.791 470.332 325.365 470.709 325.072C471.087 324.776 471.542 324.628 472.072 324.628C472.603 324.628 473.056 324.776 473.432 325.072C473.811 325.365 474.1 325.791 474.299 326.35C474.5 326.906 474.601 327.578 474.601 328.364C474.601 329.154 474.501 329.829 474.302 330.388C474.104 330.944 473.816 331.369 473.439 331.663C473.063 331.954 472.607 332.099 472.072 332.099ZM472.072 331.318C472.603 331.318 473.015 331.062 473.308 330.551C473.602 330.04 473.748 329.311 473.748 328.364C473.748 327.734 473.681 327.198 473.546 326.755C473.413 326.312 473.222 325.975 472.971 325.743C472.722 325.511 472.423 325.395 472.072 325.395C471.547 325.395 471.136 325.654 470.84 326.173C470.544 326.689 470.396 327.419 470.396 328.364C470.396 328.993 470.462 329.528 470.595 329.969C470.728 330.409 470.918 330.744 471.167 330.974C471.418 331.203 471.72 331.318 472.072 331.318Z" fill="#E66060"/>
<rect x="489" y="315" width="100" height="40" rx="20" transform="rotate(-90 489 315)" fill="#13ABC0"/>
<path d="M493.31 324.727V332H492.429V325.651H492.386L490.611 326.83V325.935L492.429 324.727H493.31ZM497.859 332.099C497.39 332.099 496.972 332.019 496.605 331.858C496.241 331.697 495.951 331.473 495.735 331.187C495.522 330.898 495.406 330.563 495.387 330.182H496.282C496.301 330.416 496.381 330.619 496.523 330.789C496.665 330.957 496.851 331.087 497.081 331.18C497.311 331.272 497.565 331.318 497.844 331.318C498.157 331.318 498.434 331.264 498.675 331.155C498.917 331.046 499.106 330.894 499.244 330.7C499.381 330.506 499.45 330.281 499.45 330.026C499.45 329.758 499.383 329.522 499.251 329.319C499.118 329.113 498.924 328.952 498.668 328.836C498.413 328.72 498.1 328.662 497.731 328.662H497.148V327.881H497.731C498.02 327.881 498.273 327.829 498.491 327.724C498.711 327.62 498.883 327.473 499.006 327.284C499.131 327.095 499.194 326.872 499.194 326.616C499.194 326.37 499.139 326.156 499.031 325.974C498.922 325.791 498.768 325.649 498.569 325.548C498.372 325.446 498.14 325.395 497.873 325.395C497.622 325.395 497.385 325.441 497.163 325.533C496.942 325.623 496.763 325.755 496.623 325.928C496.483 326.098 496.407 326.304 496.396 326.545H495.543C495.558 326.164 495.672 325.83 495.888 325.544C496.103 325.255 496.385 325.03 496.733 324.869C497.083 324.708 497.468 324.628 497.887 324.628C498.337 324.628 498.723 324.719 499.045 324.901C499.367 325.081 499.614 325.319 499.787 325.615C499.96 325.911 500.046 326.231 500.046 326.574C500.046 326.983 499.938 327.333 499.723 327.621C499.51 327.91 499.22 328.11 498.853 328.222V328.278C499.312 328.354 499.671 328.549 499.929 328.864C500.187 329.177 500.316 329.564 500.316 330.026C500.316 330.421 500.208 330.776 499.993 331.091C499.78 331.403 499.489 331.65 499.119 331.83C498.75 332.009 498.33 332.099 497.859 332.099ZM502.195 332H501.271L503.942 324.727H504.851L507.521 332H506.598L504.425 325.878H504.368L502.195 332ZM502.536 329.159H506.257V329.94H502.536V329.159ZM508.654 332V324.727H511.197C511.703 324.727 512.121 324.815 512.45 324.99C512.779 325.163 513.024 325.396 513.185 325.69C513.346 325.981 513.427 326.304 513.427 326.659C513.427 326.972 513.371 327.23 513.26 327.433C513.151 327.637 513.007 327.798 512.827 327.916C512.649 328.035 512.456 328.122 512.248 328.179V328.25C512.47 328.264 512.694 328.342 512.919 328.484C513.144 328.626 513.332 328.83 513.484 329.095C513.635 329.36 513.711 329.685 513.711 330.068C513.711 330.433 513.628 330.761 513.462 331.052C513.297 331.343 513.035 331.574 512.678 331.744C512.32 331.915 511.855 332 511.282 332H508.654ZM509.535 331.219H511.282C511.857 331.219 512.266 331.107 512.507 330.885C512.751 330.66 512.873 330.388 512.873 330.068C512.873 329.822 512.81 329.595 512.685 329.386C512.559 329.176 512.38 329.008 512.148 328.882C511.916 328.754 511.642 328.69 511.325 328.69H509.535V331.219ZM509.535 327.923H511.168C511.433 327.923 511.673 327.871 511.886 327.767C512.101 327.663 512.272 327.516 512.397 327.327C512.525 327.137 512.589 326.915 512.589 326.659C512.589 326.339 512.478 326.068 512.255 325.846C512.032 325.621 511.68 325.509 511.197 325.509H509.535V327.923ZM521.01 327H520.13C520.078 326.747 519.986 326.524 519.856 326.332C519.728 326.141 519.572 325.98 519.387 325.849C519.205 325.717 519.003 325.617 518.78 325.551C518.558 325.485 518.326 325.452 518.084 325.452C517.644 325.452 517.245 325.563 516.887 325.786C516.532 326.008 516.249 326.336 516.039 326.769C515.83 327.202 515.726 327.734 515.726 328.364C515.726 328.993 515.83 329.525 516.039 329.958C516.249 330.391 516.532 330.719 516.887 330.942C517.245 331.164 517.644 331.276 518.084 331.276C518.326 331.276 518.558 331.242 518.78 331.176C519.003 331.11 519.205 331.012 519.387 330.881C519.572 330.749 519.728 330.587 519.856 330.395C519.986 330.201 520.078 329.978 520.13 329.727H521.01C520.944 330.099 520.823 330.432 520.648 330.725C520.473 331.019 520.255 331.268 519.995 331.474C519.734 331.678 519.442 331.833 519.118 331.94C518.796 332.046 518.451 332.099 518.084 332.099C517.464 332.099 516.912 331.948 516.429 331.645C515.946 331.342 515.566 330.911 515.289 330.352C515.012 329.794 514.874 329.131 514.874 328.364C514.874 327.597 515.012 326.934 515.289 326.375C515.566 325.816 515.946 325.385 516.429 325.082C516.912 324.779 517.464 324.628 518.084 324.628C518.451 324.628 518.796 324.681 519.118 324.788C519.442 324.894 519.734 325.05 519.995 325.256C520.255 325.46 520.473 325.709 520.648 326.002C520.823 326.293 520.944 326.626 521.01 327ZM524.678 332.099C524.143 332.099 523.687 331.954 523.311 331.663C522.934 331.369 522.646 330.944 522.448 330.388C522.249 329.829 522.149 329.154 522.149 328.364C522.149 327.578 522.249 326.906 522.448 326.35C522.649 325.791 522.938 325.365 523.314 325.072C523.693 324.776 524.147 324.628 524.678 324.628C525.208 324.628 525.661 324.776 526.038 325.072C526.417 325.365 526.705 325.791 526.904 326.35C527.106 326.906 527.206 327.578 527.206 328.364C527.206 329.154 527.107 329.829 526.908 330.388C526.709 330.944 526.421 331.369 526.045 331.663C525.669 331.954 525.213 332.099 524.678 332.099ZM524.678 331.318C525.208 331.318 525.62 331.062 525.914 330.551C526.207 330.04 526.354 329.311 526.354 328.364C526.354 327.734 526.286 327.198 526.151 326.755C526.019 326.312 525.827 325.975 525.576 325.743C525.328 325.511 525.028 325.395 524.678 325.395C524.152 325.395 523.741 325.654 523.445 326.173C523.15 326.689 523.002 327.419 523.002 328.364C523.002 328.993 523.068 329.528 523.2 329.969C523.333 330.409 523.524 330.744 523.772 330.974C524.023 331.203 524.325 331.318 524.678 331.318Z" fill="#13ABC0"/>
<rect x="24" y="197" width="328" height="150" rx="20" fill="white"/>
<path d="M40.2528 333V332.361L42.6534 329.733C42.9351 329.425 43.1671 329.158 43.3494 328.93C43.5317 328.701 43.6667 328.485 43.7543 328.284C43.8442 328.08 43.8892 327.867 43.8892 327.645C43.8892 327.389 43.8277 327.168 43.7045 326.981C43.5838 326.794 43.4181 326.649 43.2074 326.548C42.9967 326.446 42.7599 326.395 42.4972 326.395C42.2178 326.395 41.974 326.453 41.7656 326.569C41.5597 326.683 41.3999 326.842 41.2862 327.048C41.175 327.254 41.1193 327.496 41.1193 327.773H40.2812C40.2812 327.347 40.3795 326.973 40.576 326.651C40.7725 326.329 41.04 326.078 41.3786 325.898C41.7195 325.718 42.1018 325.628 42.5256 325.628C42.9517 325.628 43.3293 325.718 43.6584 325.898C43.9875 326.078 44.2455 326.32 44.4325 326.626C44.6196 326.931 44.7131 327.271 44.7131 327.645C44.7131 327.912 44.6645 328.174 44.5675 328.43C44.4728 328.683 44.3071 328.966 44.0703 329.278C43.8359 329.589 43.5104 329.967 43.0938 330.415L41.4602 332.162V332.219H44.8409V333H40.2528ZM46.3075 333V332.361L48.7081 329.733C48.9898 329.425 49.2218 329.158 49.4041 328.93C49.5864 328.701 49.7214 328.485 49.8089 328.284C49.8989 328.08 49.9439 327.867 49.9439 327.645C49.9439 327.389 49.8823 327.168 49.7592 326.981C49.6385 326.794 49.4728 326.649 49.2621 326.548C49.0514 326.446 48.8146 326.395 48.5518 326.395C48.2725 326.395 48.0286 326.453 47.8203 326.569C47.6143 326.683 47.4545 326.842 47.3409 327.048C47.2296 327.254 47.174 327.496 47.174 327.773H46.3359C46.3359 327.347 46.4342 326.973 46.6307 326.651C46.8272 326.329 47.0947 326.078 47.4332 325.898C47.7741 325.718 48.1565 325.628 48.5803 325.628C49.0064 325.628 49.384 325.718 49.7131 325.898C50.0421 326.078 50.3002 326.32 50.4872 326.626C50.6742 326.931 50.7678 327.271 50.7678 327.645C50.7678 327.912 50.7192 328.174 50.6222 328.43C50.5275 328.683 50.3617 328.966 50.125 329.278C49.8906 329.589 49.5651 329.967 49.1484 330.415L47.5149 332.162V332.219H50.8956V333H46.3075ZM52.3622 333V332.361L54.7628 329.733C55.0445 329.425 55.2765 329.158 55.4588 328.93C55.6411 328.701 55.776 328.485 55.8636 328.284C55.9536 328.08 55.9986 327.867 55.9986 327.645C55.9986 327.389 55.937 327.168 55.8139 326.981C55.6932 326.794 55.5275 326.649 55.3168 326.548C55.1061 326.446 54.8693 326.395 54.6065 326.395C54.3272 326.395 54.0833 326.453 53.875 326.569C53.669 326.683 53.5092 326.842 53.3956 327.048C53.2843 327.254 53.2287 327.496 53.2287 327.773H52.3906C52.3906 327.347 52.4889 326.973 52.6854 326.651C52.8819 326.329 53.1494 326.078 53.4879 325.898C53.8288 325.718 54.2112 325.628 54.6349 325.628C55.0611 325.628 55.4387 325.718 55.7678 325.898C56.0968 326.078 56.3549 326.32 56.5419 326.626C56.7289 326.931 56.8224 327.271 56.8224 327.645C56.8224 327.912 56.7739 328.174 56.6768 328.43C56.5821 328.683 56.4164 328.966 56.1797 329.278C55.9453 329.589 55.6198 329.967 55.2031 330.415L53.5696 332.162V332.219H56.9503V333H52.3622ZM58.0902 331.509V330.784L61.2862 325.727H61.8118V326.849H61.4567L59.0419 330.67V330.727H63.3459V331.509H58.0902ZM61.5135 333V331.288V330.951V325.727H62.3516V333H61.5135ZM64.6767 333V332.361L67.0772 329.733C67.359 329.425 67.591 329.158 67.7733 328.93C67.9556 328.701 68.0905 328.485 68.1781 328.284C68.2681 328.08 68.313 327.867 68.313 327.645C68.313 327.389 68.2515 327.168 68.1284 326.981C68.0076 326.794 67.8419 326.649 67.6312 326.548C67.4205 326.446 67.1838 326.395 66.921 326.395C66.6416 326.395 66.3978 326.453 66.1895 326.569C65.9835 326.683 65.8237 326.842 65.71 327.048C65.5988 327.254 65.5431 327.496 65.5431 327.773H64.7051C64.7051 327.347 64.8033 326.973 64.9998 326.651C65.1963 326.329 65.4638 326.078 65.8024 325.898C66.1433 325.718 66.5256 325.628 66.9494 325.628C67.3755 325.628 67.7531 325.718 68.0822 325.898C68.4113 326.078 68.6693 326.32 68.8564 326.626C69.0434 326.931 69.1369 327.271 69.1369 327.645C69.1369 327.912 69.0884 328.174 68.9913 328.43C68.8966 328.683 68.7309 328.966 68.4941 329.278C68.2598 329.589 67.9342 329.967 67.5176 330.415L65.8841 332.162V332.219H69.2647V333H64.6767ZM73.0467 325.628C73.345 325.63 73.6433 325.687 73.9416 325.798C74.2399 325.91 74.5121 326.094 74.7583 326.352C75.0046 326.608 75.2022 326.957 75.3514 327.4C75.5005 327.843 75.5751 328.398 75.5751 329.065C75.5751 329.712 75.5136 330.286 75.3904 330.788C75.2697 331.287 75.0945 331.709 74.8649 332.052C74.6376 332.395 74.3606 332.656 74.0339 332.833C73.7096 333.011 73.3426 333.099 72.9331 333.099C72.5259 333.099 72.1625 333.019 71.8429 332.858C71.5256 332.695 71.2652 332.469 71.0616 332.18C70.8604 331.888 70.7314 331.551 70.6745 331.168H71.541C71.6191 331.501 71.7742 331.777 72.0062 331.995C72.2406 332.21 72.5495 332.318 72.9331 332.318C73.4941 332.318 73.9368 332.073 74.2612 331.583C74.5879 331.093 74.7512 330.401 74.7512 329.506H74.6944C74.5618 329.705 74.4044 329.876 74.2221 330.021C74.0398 330.165 73.8374 330.276 73.6149 330.354C73.3923 330.433 73.1556 330.472 72.9047 330.472C72.488 330.472 72.1056 330.369 71.7576 330.163C71.412 329.954 71.135 329.669 70.9267 329.307C70.7207 328.942 70.6177 328.526 70.6177 328.057C70.6177 327.612 70.7172 327.205 70.916 326.835C71.1172 326.464 71.399 326.168 71.7612 325.947C72.1258 325.727 72.5543 325.621 73.0467 325.628ZM73.0467 326.409C72.7484 326.409 72.4797 326.484 72.2406 326.633C72.0038 326.78 71.8156 326.978 71.676 327.229C71.5386 327.478 71.47 327.754 71.47 328.057C71.47 328.36 71.5363 328.636 71.6689 328.884C71.8038 329.13 71.9873 329.327 72.2193 329.474C72.4537 329.618 72.72 329.69 73.0183 329.69C73.2432 329.69 73.4527 329.647 73.6468 329.559C73.841 329.469 74.0102 329.347 74.1547 329.193C74.3014 329.037 74.4163 328.861 74.4991 328.664C74.582 328.465 74.6234 328.258 74.6234 328.043C74.6234 327.759 74.5547 327.492 74.4174 327.244C74.2825 326.995 74.0955 326.794 73.8564 326.64C73.6196 326.486 73.3497 326.409 73.0467 326.409Z" fill="#24262B"/>
<rect x="38" y="315" width="100" height="40" rx="20" transform="rotate(-90 38 315)" fill="#222429"/>
<path d="M92.2528 333V332.361L94.6534 329.733C94.9351 329.425 95.1671 329.158 95.3494 328.93C95.5317 328.701 95.6667 328.485 95.7543 328.284C95.8442 328.08 95.8892 327.867 95.8892 327.645C95.8892 327.389 95.8277 327.168 95.7045 326.981C95.5838 326.794 95.4181 326.649 95.2074 326.548C94.9967 326.446 94.7599 326.395 94.4972 326.395C94.2178 326.395 93.974 326.453 93.7656 326.569C93.5597 326.683 93.3999 326.842 93.2862 327.048C93.175 327.254 93.1193 327.496 93.1193 327.773H92.2812C92.2812 327.347 92.3795 326.973 92.576 326.651C92.7725 326.329 93.04 326.078 93.3786 325.898C93.7195 325.718 94.1018 325.628 94.5256 325.628C94.9517 325.628 95.3293 325.718 95.6584 325.898C95.9875 326.078 96.2455 326.32 96.4325 326.626C96.6196 326.931 96.7131 327.271 96.7131 327.645C96.7131 327.912 96.6645 328.174 96.5675 328.43C96.4728 328.683 96.3071 328.966 96.0703 329.278C95.8359 329.589 95.5104 329.967 95.0938 330.415L93.4602 332.162V332.219H96.8409V333H92.2528ZM98.4354 333V325.727H102.825V326.509H99.3161V328.966H102.597V329.747H99.3161V332.219H102.881V333H98.4354ZM106.741 333.099C106.273 333.099 105.855 333.019 105.488 332.858C105.123 332.697 104.833 332.473 104.618 332.187C104.405 331.898 104.289 331.563 104.27 331.182H105.165C105.184 331.416 105.264 331.619 105.406 331.789C105.548 331.957 105.734 332.087 105.964 332.18C106.193 332.272 106.448 332.318 106.727 332.318C107.04 332.318 107.317 332.264 107.558 332.155C107.8 332.046 107.989 331.894 108.126 331.7C108.264 331.506 108.332 331.281 108.332 331.026C108.332 330.758 108.266 330.522 108.134 330.319C108.001 330.113 107.807 329.952 107.551 329.836C107.295 329.72 106.983 329.662 106.614 329.662H106.031V328.881H106.614C106.902 328.881 107.156 328.829 107.374 328.724C107.594 328.62 107.765 328.473 107.888 328.284C108.014 328.095 108.077 327.872 108.077 327.616C108.077 327.37 108.022 327.156 107.913 326.974C107.804 326.791 107.651 326.649 107.452 326.548C107.255 326.446 107.023 326.395 106.756 326.395C106.505 326.395 106.268 326.441 106.045 326.533C105.825 326.623 105.645 326.755 105.506 326.928C105.366 327.098 105.29 327.304 105.278 327.545H104.426C104.44 327.164 104.555 326.83 104.771 326.544C104.986 326.255 105.268 326.03 105.616 325.869C105.966 325.708 106.351 325.628 106.77 325.628C107.22 325.628 107.606 325.719 107.928 325.901C108.25 326.081 108.497 326.319 108.67 326.615C108.843 326.911 108.929 327.231 108.929 327.574C108.929 327.983 108.821 328.333 108.606 328.621C108.393 328.91 108.103 329.11 107.736 329.222V329.278C108.195 329.354 108.554 329.549 108.812 329.864C109.07 330.177 109.199 330.564 109.199 331.026C109.199 331.421 109.091 331.776 108.876 332.091C108.663 332.403 108.371 332.65 108.002 332.83C107.633 333.009 107.213 333.099 106.741 333.099ZM110.651 333V332.361L113.052 329.733C113.334 329.425 113.566 329.158 113.748 328.93C113.93 328.701 114.065 328.485 114.153 328.284C114.243 328.08 114.288 327.867 114.288 327.645C114.288 327.389 114.226 327.168 114.103 326.981C113.982 326.794 113.817 326.649 113.606 326.548C113.395 326.446 113.158 326.395 112.896 326.395C112.616 326.395 112.372 326.453 112.164 326.569C111.958 326.683 111.798 326.842 111.685 327.048C111.573 327.254 111.518 327.496 111.518 327.773H110.68C110.68 327.347 110.778 326.973 110.974 326.651C111.171 326.329 111.438 326.078 111.777 325.898C112.118 325.718 112.5 325.628 112.924 325.628C113.35 325.628 113.728 325.718 114.057 325.898C114.386 326.078 114.644 326.32 114.831 326.626C115.018 326.931 115.112 327.271 115.112 327.645C115.112 327.912 115.063 328.174 114.966 328.43C114.871 328.683 114.705 328.966 114.469 329.278C114.234 329.589 113.909 329.967 113.492 330.415L111.859 332.162V332.219H115.239V333H110.651ZM119.163 333.099C118.695 333.099 118.277 333.019 117.91 332.858C117.545 332.697 117.255 332.473 117.04 332.187C116.827 331.898 116.711 331.563 116.692 331.182H117.587C117.606 331.416 117.686 331.619 117.828 331.789C117.97 331.957 118.156 332.087 118.386 332.18C118.615 332.272 118.87 332.318 119.149 332.318C119.462 332.318 119.739 332.264 119.98 332.155C120.222 332.046 120.411 331.894 120.548 331.7C120.686 331.506 120.754 331.281 120.754 331.026C120.754 330.758 120.688 330.522 120.555 330.319C120.423 330.113 120.229 329.952 119.973 329.836C119.717 329.72 119.405 329.662 119.036 329.662H118.453V328.881H119.036C119.324 328.881 119.578 328.829 119.795 328.724C120.016 328.62 120.187 328.473 120.31 328.284C120.436 328.095 120.499 327.872 120.499 327.616C120.499 327.37 120.444 327.156 120.335 326.974C120.226 326.791 120.072 326.649 119.874 326.548C119.677 326.446 119.445 326.395 119.178 326.395C118.927 326.395 118.69 326.441 118.467 326.533C118.247 326.623 118.067 326.755 117.928 326.928C117.788 327.098 117.712 327.304 117.7 327.545H116.848C116.862 327.164 116.977 326.83 117.192 326.544C117.408 326.255 117.69 326.03 118.038 325.869C118.388 325.708 118.773 325.628 119.192 325.628C119.642 325.628 120.027 325.719 120.349 325.901C120.671 326.081 120.919 326.319 121.092 326.615C121.264 326.911 121.351 327.231 121.351 327.574C121.351 327.983 121.243 328.333 121.028 328.621C120.815 328.91 120.525 329.11 120.158 329.222V329.278C120.617 329.354 120.976 329.549 121.234 329.864C121.492 330.177 121.621 330.564 121.621 331.026C121.621 331.421 121.513 331.776 121.298 332.091C121.085 332.403 120.793 332.65 120.424 332.83C120.055 333.009 119.634 333.099 119.163 333.099ZM125.403 333.099C124.915 333.099 124.484 333.013 124.11 332.84C123.738 332.665 123.448 332.425 123.24 332.119C123.032 331.812 122.929 331.461 122.931 331.068C122.929 330.76 122.989 330.476 123.112 330.216C123.235 329.953 123.403 329.734 123.616 329.559C123.832 329.381 124.072 329.269 124.337 329.222V329.179C123.989 329.089 123.712 328.894 123.506 328.593C123.3 328.29 123.199 327.946 123.201 327.56C123.199 327.19 123.292 326.86 123.482 326.569C123.671 326.278 123.931 326.048 124.263 325.88C124.597 325.712 124.977 325.628 125.403 325.628C125.824 325.628 126.201 325.712 126.532 325.88C126.863 326.048 127.124 326.278 127.313 326.569C127.505 326.86 127.602 327.19 127.604 327.56C127.602 327.946 127.497 328.29 127.288 328.593C127.082 328.894 126.809 329.089 126.468 329.179V329.222C126.731 329.269 126.968 329.381 127.178 329.559C127.389 329.734 127.557 329.953 127.683 330.216C127.808 330.476 127.872 330.76 127.874 331.068C127.872 331.461 127.765 331.812 127.555 332.119C127.346 332.425 127.056 332.665 126.685 332.84C126.315 333.013 125.888 333.099 125.403 333.099ZM125.403 332.318C125.732 332.318 126.016 332.265 126.255 332.158C126.494 332.052 126.679 331.902 126.809 331.707C126.939 331.513 127.005 331.286 127.008 331.026C127.005 330.751 126.934 330.508 126.795 330.298C126.655 330.087 126.464 329.921 126.223 329.8C125.984 329.68 125.71 329.619 125.403 329.619C125.093 329.619 124.816 329.68 124.572 329.8C124.33 329.921 124.14 330.087 124 330.298C123.863 330.508 123.795 330.751 123.798 331.026C123.795 331.286 123.858 331.513 123.986 331.707C124.116 331.902 124.302 332.052 124.543 332.158C124.785 332.265 125.071 332.318 125.403 332.318ZM125.403 328.866C125.663 328.866 125.894 328.814 126.095 328.71C126.299 328.606 126.459 328.46 126.575 328.273C126.691 328.086 126.75 327.867 126.752 327.616C126.75 327.37 126.692 327.156 126.578 326.974C126.464 326.789 126.307 326.647 126.106 326.548C125.905 326.446 125.67 326.395 125.403 326.395C125.13 326.395 124.893 326.446 124.689 326.548C124.485 326.647 124.328 326.789 124.217 326.974C124.105 327.156 124.051 327.37 124.053 327.616C124.051 327.867 124.107 328.086 124.22 328.273C124.336 328.46 124.496 328.606 124.7 328.71C124.903 328.814 125.138 328.866 125.403 328.866Z" fill="#2E3238"/>
<rect x="90" y="315" width="100" height="40" rx="20" transform="rotate(-90 90 315)" fill="#2E3238"/>
<path d="M146.21 333.099C145.741 333.099 145.324 333.019 144.957 332.858C144.592 332.697 144.302 332.473 144.087 332.187C143.874 331.898 143.758 331.563 143.739 331.182H144.634C144.652 331.416 144.733 331.619 144.875 331.789C145.017 331.957 145.203 332.087 145.433 332.18C145.662 332.272 145.917 332.318 146.196 332.318C146.509 332.318 146.786 332.264 147.027 332.155C147.268 332.046 147.458 331.894 147.595 331.7C147.732 331.506 147.801 331.281 147.801 331.026C147.801 330.758 147.735 330.522 147.602 330.319C147.47 330.113 147.276 329.952 147.02 329.836C146.764 329.72 146.452 329.662 146.082 329.662H145.5V328.881H146.082C146.371 328.881 146.625 328.829 146.842 328.724C147.063 328.62 147.234 328.473 147.357 328.284C147.483 328.095 147.545 327.872 147.545 327.616C147.545 327.37 147.491 327.156 147.382 326.974C147.273 326.791 147.119 326.649 146.92 326.548C146.724 326.446 146.492 326.395 146.224 326.395C145.973 326.395 145.737 326.441 145.514 326.533C145.294 326.623 145.114 326.755 144.974 326.928C144.835 327.098 144.759 327.304 144.747 327.545H143.895C143.909 327.164 144.024 326.83 144.239 326.544C144.455 326.255 144.737 326.03 145.085 325.869C145.435 325.708 145.82 325.628 146.239 325.628C146.688 325.628 147.074 325.719 147.396 325.901C147.718 326.081 147.966 326.319 148.138 326.615C148.311 326.911 148.398 327.231 148.398 327.574C148.398 327.983 148.29 328.333 148.075 328.621C147.862 328.91 147.571 329.11 147.205 329.222V329.278C147.664 329.354 148.022 329.549 148.281 329.864C148.539 330.177 148.668 330.564 148.668 331.026C148.668 331.421 148.56 331.776 148.344 332.091C148.131 332.403 147.84 332.65 147.471 332.83C147.102 333.009 146.681 333.099 146.21 333.099ZM150.347 333L153.6 326.565V326.509H149.85V325.727H154.509V326.551L151.271 333H150.347ZM158.124 333.099C157.656 333.099 157.238 333.019 156.871 332.858C156.506 332.697 156.216 332.473 156.001 332.187C155.788 331.898 155.672 331.563 155.653 331.182H156.548C156.567 331.416 156.647 331.619 156.789 331.789C156.931 331.957 157.117 332.087 157.347 332.18C157.576 332.272 157.831 332.318 158.11 332.318C158.423 332.318 158.7 332.264 158.941 332.155C159.183 332.046 159.372 331.894 159.509 331.7C159.647 331.506 159.715 331.281 159.715 331.026C159.715 330.758 159.649 330.522 159.516 330.319C159.384 330.113 159.19 329.952 158.934 329.836C158.678 329.72 158.366 329.662 157.996 329.662H157.414V328.881H157.996C158.285 328.881 158.539 328.829 158.756 328.724C158.977 328.62 159.148 328.473 159.271 328.284C159.397 328.095 159.46 327.872 159.46 327.616C159.46 327.37 159.405 327.156 159.296 326.974C159.187 326.791 159.033 326.649 158.835 326.548C158.638 326.446 158.406 326.395 158.138 326.395C157.888 326.395 157.651 326.441 157.428 326.533C157.208 326.623 157.028 326.755 156.888 326.928C156.749 327.098 156.673 327.304 156.661 327.545H155.809C155.823 327.164 155.938 326.83 156.153 326.544C156.369 326.255 156.651 326.03 156.999 325.869C157.349 325.708 157.734 325.628 158.153 325.628C158.603 325.628 158.988 325.719 159.31 325.901C159.632 326.081 159.88 326.319 160.053 326.615C160.225 326.911 160.312 327.231 160.312 327.574C160.312 327.983 160.204 328.333 159.989 328.621C159.776 328.91 159.486 329.11 159.119 329.222V329.278C159.578 329.354 159.937 329.549 160.195 329.864C160.453 330.177 160.582 330.564 160.582 331.026C160.582 331.421 160.474 331.776 160.259 332.091C160.045 332.403 159.754 332.65 159.385 332.83C159.016 333.009 158.595 333.099 158.124 333.099ZM162.162 333V325.727H164.705C165.211 325.727 165.629 325.815 165.958 325.99C166.287 326.163 166.532 326.396 166.693 326.69C166.854 326.981 166.935 327.304 166.935 327.659C166.935 327.972 166.879 328.23 166.768 328.433C166.659 328.637 166.514 328.798 166.335 328.916C166.157 329.035 165.964 329.122 165.756 329.179V329.25C165.978 329.264 166.202 329.342 166.427 329.484C166.652 329.626 166.84 329.83 166.991 330.095C167.143 330.36 167.219 330.685 167.219 331.068C167.219 331.433 167.136 331.761 166.97 332.052C166.804 332.343 166.543 332.574 166.185 332.744C165.828 332.915 165.363 333 164.79 333H162.162ZM163.043 332.219H164.79C165.365 332.219 165.773 332.107 166.015 331.885C166.259 331.66 166.381 331.388 166.381 331.068C166.381 330.822 166.318 330.595 166.192 330.386C166.067 330.176 165.888 330.008 165.656 329.882C165.424 329.754 165.15 329.69 164.832 329.69H163.043V332.219ZM163.043 328.923H164.676C164.941 328.923 165.18 328.871 165.393 328.767C165.609 328.663 165.779 328.516 165.905 328.327C166.033 328.137 166.097 327.915 166.097 327.659C166.097 327.339 165.985 327.068 165.763 326.846C165.54 326.621 165.188 326.509 164.705 326.509H163.043V328.923ZM168.368 331.509V330.784L171.564 325.727H172.089V326.849H171.734L169.319 330.67V330.727H173.623V331.509H168.368ZM171.791 333V331.288V330.951V325.727H172.629V333H171.791ZM174.954 333V332.361L177.355 329.733C177.636 329.425 177.868 329.158 178.051 328.93C178.233 328.701 178.368 328.485 178.455 328.284C178.545 328.08 178.59 327.867 178.59 327.645C178.59 327.389 178.529 327.168 178.406 326.981C178.285 326.794 178.119 326.649 177.909 326.548C177.698 326.446 177.461 326.395 177.198 326.395C176.919 326.395 176.675 326.453 176.467 326.569C176.261 326.683 176.101 326.842 175.987 327.048C175.876 327.254 175.82 327.496 175.82 327.773H174.982C174.982 327.347 175.081 326.973 175.277 326.651C175.474 326.329 175.741 326.078 176.08 325.898C176.421 325.718 176.803 325.628 177.227 325.628C177.653 325.628 178.03 325.718 178.36 325.898C178.689 326.078 178.947 326.32 179.134 326.626C179.321 326.931 179.414 327.271 179.414 327.645C179.414 327.912 179.366 328.174 179.269 328.43C179.174 328.683 179.008 328.966 178.771 329.278C178.537 329.589 178.212 329.967 177.795 330.415L176.161 332.162V332.219H179.542V333H174.954Z" fill="#373B42"/>
<rect x="142" y="315" width="100" height="40" rx="20" transform="rotate(-90 142 315)" fill="#373B42"/>
<path d="M195.582 331.509V330.784L198.778 325.727H199.304V326.849H198.949L196.534 330.67V330.727H200.838V331.509H195.582ZM199.006 333V331.288V330.951V325.727H199.844V333H199.006ZM204.626 333.099C204.157 333.099 203.74 333.019 203.373 332.858C203.008 332.697 202.718 332.473 202.503 332.187C202.29 331.898 202.174 331.563 202.155 331.182H203.05C203.068 331.416 203.149 331.619 203.291 331.789C203.433 331.957 203.619 332.087 203.849 332.18C204.078 332.272 204.333 332.318 204.612 332.318C204.925 332.318 205.202 332.264 205.443 332.155C205.684 332.046 205.874 331.894 206.011 331.7C206.148 331.506 206.217 331.281 206.217 331.026C206.217 330.758 206.151 330.522 206.018 330.319C205.886 330.113 205.692 329.952 205.436 329.836C205.18 329.72 204.868 329.662 204.498 329.662H203.916V328.881H204.498C204.787 328.881 205.041 328.829 205.258 328.724C205.479 328.62 205.65 328.473 205.773 328.284C205.899 328.095 205.961 327.872 205.961 327.616C205.961 327.37 205.907 327.156 205.798 326.974C205.689 326.791 205.535 326.649 205.336 326.548C205.14 326.446 204.908 326.395 204.64 326.395C204.39 326.395 204.153 326.441 203.93 326.533C203.71 326.623 203.53 326.755 203.39 326.928C203.251 327.098 203.175 327.304 203.163 327.545H202.311C202.325 327.164 202.44 326.83 202.655 326.544C202.871 326.255 203.153 326.03 203.501 325.869C203.851 325.708 204.236 325.628 204.655 325.628C205.104 325.628 205.49 325.719 205.812 325.901C206.134 326.081 206.382 326.319 206.555 326.615C206.727 326.911 206.814 327.231 206.814 327.574C206.814 327.983 206.706 328.333 206.491 328.621C206.278 328.91 205.988 329.11 205.621 329.222V329.278C206.08 329.354 206.439 329.549 206.697 329.864C206.955 330.177 207.084 330.564 207.084 331.026C207.084 331.421 206.976 331.776 206.76 332.091C206.547 332.403 206.256 332.65 205.887 332.83C205.518 333.009 205.097 333.099 204.626 333.099ZM208.366 331.509V330.784L211.562 325.727H212.087V326.849H211.732L209.317 330.67V330.727H213.621V331.509H208.366ZM211.789 333V331.288V330.951V325.727H212.627V333H211.789ZM217.267 325.628C217.566 325.63 217.864 325.687 218.162 325.798C218.461 325.91 218.733 326.094 218.979 326.352C219.225 326.608 219.423 326.957 219.572 327.4C219.721 327.843 219.796 328.398 219.796 329.065C219.796 329.712 219.734 330.286 219.611 330.788C219.49 331.287 219.315 331.709 219.086 332.052C218.858 332.395 218.581 332.656 218.255 332.833C217.93 333.011 217.563 333.099 217.154 333.099C216.747 333.099 216.383 333.019 216.064 332.858C215.746 332.695 215.486 332.469 215.282 332.18C215.081 331.888 214.952 331.551 214.895 331.168H215.762C215.84 331.501 215.995 331.777 216.227 331.995C216.461 332.21 216.77 332.318 217.154 332.318C217.715 332.318 218.158 332.073 218.482 331.583C218.809 331.093 218.972 330.401 218.972 329.506H218.915C218.783 329.705 218.625 329.876 218.443 330.021C218.261 330.165 218.058 330.276 217.836 330.354C217.613 330.433 217.376 330.472 217.125 330.472C216.709 330.472 216.326 330.369 215.978 330.163C215.633 329.954 215.356 329.669 215.147 329.307C214.941 328.942 214.838 328.526 214.838 328.057C214.838 327.612 214.938 327.205 215.137 326.835C215.338 326.464 215.62 326.168 215.982 325.947C216.346 325.727 216.775 325.621 217.267 325.628ZM217.267 326.409C216.969 326.409 216.7 326.484 216.461 326.633C216.225 326.78 216.036 326.978 215.897 327.229C215.759 327.478 215.691 327.754 215.691 328.057C215.691 328.36 215.757 328.636 215.89 328.884C216.025 329.13 216.208 329.327 216.44 329.474C216.674 329.618 216.941 329.69 217.239 329.69C217.464 329.69 217.673 329.647 217.868 329.559C218.062 329.469 218.231 329.347 218.375 329.193C218.522 329.037 218.637 328.861 218.72 328.664C218.803 328.465 218.844 328.258 218.844 328.043C218.844 327.759 218.775 327.492 218.638 327.244C218.503 326.995 218.316 326.794 218.077 326.64C217.84 326.486 217.57 326.409 217.267 326.409ZM223.465 333.099C223.048 333.099 222.673 333.017 222.339 332.851C222.006 332.685 221.738 332.458 221.537 332.169C221.336 331.88 221.225 331.551 221.206 331.182H222.059C222.092 331.511 222.241 331.783 222.506 331.999C222.774 332.212 223.093 332.318 223.465 332.318C223.763 332.318 224.028 332.248 224.26 332.109C224.495 331.969 224.678 331.777 224.811 331.533C224.946 331.287 225.013 331.009 225.013 330.699C225.013 330.382 224.943 330.099 224.804 329.85C224.666 329.599 224.477 329.402 224.236 329.257C223.994 329.113 223.718 329.039 223.408 329.037C223.186 329.035 222.957 329.069 222.723 329.14C222.488 329.209 222.296 329.297 222.144 329.406L221.32 329.307L221.76 325.727H225.539V326.509H222.499L222.243 328.653H222.286C222.435 328.535 222.622 328.437 222.847 328.359C223.072 328.281 223.306 328.241 223.55 328.241C223.995 328.241 224.392 328.348 224.74 328.561C225.09 328.772 225.365 329.061 225.564 329.428C225.765 329.795 225.866 330.214 225.866 330.685C225.866 331.149 225.761 331.563 225.553 331.928C225.347 332.29 225.063 332.576 224.701 332.787C224.339 332.995 223.927 333.099 223.465 333.099ZM227.276 333V332.361L229.677 329.733C229.959 329.425 230.191 329.158 230.373 328.93C230.555 328.701 230.69 328.485 230.778 328.284C230.868 328.08 230.913 327.867 230.913 327.645C230.913 327.389 230.851 327.168 230.728 326.981C230.607 326.794 230.442 326.649 230.231 326.548C230.02 326.446 229.783 326.395 229.521 326.395C229.241 326.395 228.997 326.453 228.789 326.569C228.583 326.683 228.423 326.842 228.31 327.048C228.198 327.254 228.143 327.496 228.143 327.773H227.305C227.305 327.347 227.403 326.973 227.599 326.651C227.796 326.329 228.063 326.078 228.402 325.898C228.743 325.718 229.125 325.628 229.549 325.628C229.975 325.628 230.353 325.718 230.682 325.898C231.011 326.078 231.269 326.32 231.456 326.626C231.643 326.931 231.737 327.271 231.737 327.645C231.737 327.912 231.688 328.174 231.591 328.43C231.496 328.683 231.33 328.966 231.094 329.278C230.859 329.589 230.534 329.967 230.117 330.415L228.484 332.162V332.219H231.864V333H227.276Z" fill="#434952"/>
<rect x="194" y="315" width="100" height="40" rx="20" transform="rotate(-90 194 315)" fill="#434952"/>
<path d="M250.026 333.099C249.609 333.099 249.234 333.017 248.9 332.851C248.566 332.685 248.299 332.458 248.097 332.169C247.896 331.88 247.786 331.551 247.767 331.182H248.619C248.652 331.511 248.802 331.783 249.067 331.999C249.334 332.212 249.654 332.318 250.026 332.318C250.324 332.318 250.589 332.248 250.821 332.109C251.055 331.969 251.239 331.777 251.371 331.533C251.506 331.287 251.574 331.009 251.574 330.699C251.574 330.382 251.504 330.099 251.364 329.85C251.227 329.599 251.038 329.402 250.796 329.257C250.555 329.113 250.279 329.039 249.969 329.037C249.746 329.035 249.518 329.069 249.283 329.14C249.049 329.209 248.856 329.297 248.705 329.406L247.881 329.307L248.321 325.727H252.099V326.509H249.06L248.804 328.653H248.847C248.996 328.535 249.183 328.437 249.408 328.359C249.633 328.281 249.867 328.241 250.111 328.241C250.556 328.241 250.952 328.348 251.3 328.561C251.651 328.772 251.925 329.061 252.124 329.428C252.326 329.795 252.426 330.214 252.426 330.685C252.426 331.149 252.322 331.563 252.114 331.928C251.908 332.29 251.624 332.576 251.261 332.787C250.899 332.995 250.487 333.099 250.026 333.099ZM253.965 333V325.727H256.507C257.014 325.727 257.432 325.815 257.761 325.99C258.09 326.163 258.335 326.396 258.496 326.69C258.657 326.981 258.737 327.304 258.737 327.659C258.737 327.972 258.682 328.23 258.57 328.433C258.462 328.637 258.317 328.798 258.137 328.916C257.96 329.035 257.767 329.122 257.558 329.179V329.25C257.781 329.264 258.005 329.342 258.23 329.484C258.454 329.626 258.643 329.83 258.794 330.095C258.946 330.36 259.021 330.685 259.021 331.068C259.021 331.433 258.939 331.761 258.773 332.052C258.607 332.343 258.346 332.574 257.988 332.744C257.631 332.915 257.165 333 256.593 333H253.965ZM254.845 332.219H256.593C257.168 332.219 257.576 332.107 257.818 331.885C258.061 331.66 258.183 331.388 258.183 331.068C258.183 330.822 258.121 330.595 257.995 330.386C257.87 330.176 257.691 330.008 257.459 329.882C257.227 329.754 256.952 329.69 256.635 329.69H254.845V332.219ZM254.845 328.923H256.479C256.744 328.923 256.983 328.871 257.196 328.767C257.412 328.663 257.582 328.516 257.708 328.327C257.835 328.137 257.899 327.915 257.899 327.659C257.899 327.339 257.788 327.068 257.566 326.846C257.343 326.621 256.99 326.509 256.507 326.509H254.845V328.923ZM262.756 333.099C262.457 333.095 262.159 333.038 261.861 332.929C261.562 332.82 261.29 332.637 261.044 332.379C260.798 332.118 260.6 331.767 260.451 331.324C260.302 330.879 260.227 330.32 260.227 329.648C260.227 329.004 260.287 328.433 260.408 327.936C260.529 327.437 260.704 327.016 260.934 326.675C261.163 326.332 261.44 326.072 261.765 325.894C262.091 325.717 262.46 325.628 262.869 325.628C263.276 325.628 263.639 325.71 263.956 325.873C264.275 326.034 264.536 326.259 264.737 326.548C264.938 326.836 265.068 327.169 265.128 327.545H264.261C264.181 327.219 264.024 326.948 263.792 326.732C263.56 326.517 263.253 326.409 262.869 326.409C262.306 326.409 261.862 326.654 261.537 327.144C261.215 327.634 261.053 328.322 261.051 329.207H261.108C261.24 329.006 261.398 328.835 261.58 328.692C261.765 328.548 261.968 328.437 262.191 328.359C262.413 328.281 262.649 328.241 262.898 328.241C263.314 328.241 263.695 328.346 264.041 328.554C264.387 328.76 264.664 329.045 264.872 329.41C265.08 329.772 265.184 330.188 265.184 330.656C265.184 331.106 265.084 331.518 264.883 331.892C264.681 332.264 264.398 332.56 264.034 332.78C263.672 332.998 263.246 333.104 262.756 333.099ZM262.756 332.318C263.054 332.318 263.321 332.244 263.558 332.094C263.797 331.945 263.985 331.745 264.123 331.494C264.262 331.243 264.332 330.964 264.332 330.656C264.332 330.356 264.265 330.082 264.13 329.836C263.997 329.587 263.814 329.39 263.579 329.243C263.347 329.096 263.082 329.023 262.784 329.023C262.559 329.023 262.349 329.068 262.155 329.158C261.961 329.245 261.791 329.366 261.644 329.52C261.5 329.674 261.386 329.85 261.303 330.049C261.22 330.246 261.179 330.453 261.179 330.67C261.179 330.959 261.246 331.229 261.381 331.48C261.519 331.731 261.706 331.933 261.942 332.087C262.181 332.241 262.452 332.318 262.756 332.318ZM268.896 325.628C269.195 325.63 269.493 325.687 269.791 325.798C270.089 325.91 270.362 326.094 270.608 326.352C270.854 326.608 271.052 326.957 271.201 327.4C271.35 327.843 271.425 328.398 271.425 329.065C271.425 329.712 271.363 330.286 271.24 330.788C271.119 331.287 270.944 331.709 270.714 332.052C270.487 332.395 270.21 332.656 269.884 332.833C269.559 333.011 269.192 333.099 268.783 333.099C268.375 333.099 268.012 333.019 267.692 332.858C267.375 332.695 267.115 332.469 266.911 332.18C266.71 331.888 266.581 331.551 266.524 331.168H267.391C267.469 331.501 267.624 331.777 267.856 331.995C268.09 332.21 268.399 332.318 268.783 332.318C269.344 332.318 269.786 332.073 270.111 331.583C270.438 331.093 270.601 330.401 270.601 329.506H270.544C270.411 329.705 270.254 329.876 270.072 330.021C269.889 330.165 269.687 330.276 269.464 330.354C269.242 330.433 269.005 330.472 268.754 330.472C268.338 330.472 267.955 330.369 267.607 330.163C267.262 329.954 266.985 329.669 266.776 329.307C266.57 328.942 266.467 328.526 266.467 328.057C266.467 327.612 266.567 327.205 266.766 326.835C266.967 326.464 267.249 326.168 267.611 325.947C267.975 325.727 268.404 325.621 268.896 325.628ZM268.896 326.409C268.598 326.409 268.329 326.484 268.09 326.633C267.853 326.78 267.665 326.978 267.526 327.229C267.388 327.478 267.32 327.754 267.32 328.057C267.32 328.36 267.386 328.636 267.518 328.884C267.653 329.13 267.837 329.327 268.069 329.474C268.303 329.618 268.57 329.69 268.868 329.69C269.093 329.69 269.302 329.647 269.496 329.559C269.691 329.469 269.86 329.347 270.004 329.193C270.151 329.037 270.266 328.861 270.349 328.664C270.432 328.465 270.473 328.258 270.473 328.043C270.473 327.759 270.404 327.492 270.267 327.244C270.132 326.995 269.945 326.794 269.706 326.64C269.469 326.486 269.199 326.409 268.896 326.409ZM272.853 333L276.106 326.565V326.509H272.356V325.727H277.015V326.551L273.776 333H272.853ZM284.319 328H283.438C283.386 327.747 283.295 327.524 283.165 327.332C283.037 327.141 282.881 326.98 282.696 326.849C282.514 326.717 282.311 326.617 282.089 326.551C281.866 326.485 281.634 326.452 281.393 326.452C280.952 326.452 280.554 326.563 280.196 326.786C279.841 327.008 279.558 327.336 279.347 327.769C279.139 328.202 279.035 328.734 279.035 329.364C279.035 329.993 279.139 330.525 279.347 330.958C279.558 331.391 279.841 331.719 280.196 331.942C280.554 332.164 280.952 332.276 281.393 332.276C281.634 332.276 281.866 332.242 282.089 332.176C282.311 332.11 282.514 332.012 282.696 331.881C282.881 331.749 283.037 331.587 283.165 331.395C283.295 331.201 283.386 330.978 283.438 330.727H284.319C284.253 331.099 284.132 331.432 283.957 331.725C283.781 332.019 283.564 332.268 283.303 332.474C283.043 332.678 282.75 332.833 282.426 332.94C282.104 333.046 281.76 333.099 281.393 333.099C280.772 333.099 280.221 332.948 279.738 332.645C279.255 332.342 278.875 331.911 278.598 331.352C278.321 330.794 278.183 330.131 278.183 329.364C278.183 328.597 278.321 327.934 278.598 327.375C278.875 326.816 279.255 326.385 279.738 326.082C280.221 325.779 280.772 325.628 281.393 325.628C281.76 325.628 282.104 325.681 282.426 325.788C282.75 325.894 283.043 326.05 283.303 326.256C283.564 326.46 283.781 326.709 283.957 327.002C284.132 327.293 284.253 327.626 284.319 328Z" fill="#5B697C"/>
<rect x="246" y="315" width="100" height="40" rx="20" transform="rotate(-90 246 315)" fill="#5B697C"/>
<path d="M299.679 333H298.756L301.426 325.727H302.335L305.006 333H304.082L301.909 326.878H301.852L299.679 333ZM300.02 330.159H303.741V330.94H300.02V330.159ZM308.326 325.628C308.624 325.63 308.923 325.687 309.221 325.798C309.519 325.91 309.791 326.094 310.038 326.352C310.284 326.608 310.482 326.957 310.631 327.4C310.78 327.843 310.854 328.398 310.854 329.065C310.854 329.712 310.793 330.286 310.67 330.788C310.549 331.287 310.374 331.709 310.144 332.052C309.917 332.395 309.64 332.656 309.313 332.833C308.989 333.011 308.622 333.099 308.212 333.099C307.805 333.099 307.442 333.019 307.122 332.858C306.805 332.695 306.545 332.469 306.341 332.18C306.14 331.888 306.011 331.551 305.954 331.168H306.82C306.898 331.501 307.054 331.777 307.286 331.995C307.52 332.21 307.829 332.318 308.212 332.318C308.773 332.318 309.216 332.073 309.54 331.583C309.867 331.093 310.031 330.401 310.031 329.506H309.974C309.841 329.705 309.684 329.876 309.501 330.021C309.319 330.165 309.117 330.276 308.894 330.354C308.672 330.433 308.435 330.472 308.184 330.472C307.767 330.472 307.385 330.369 307.037 330.163C306.691 329.954 306.414 329.669 306.206 329.307C306 328.942 305.897 328.526 305.897 328.057C305.897 327.612 305.996 327.205 306.195 326.835C306.397 326.464 306.678 326.168 307.04 325.947C307.405 325.727 307.834 325.621 308.326 325.628ZM308.326 326.409C308.028 326.409 307.759 326.484 307.52 326.633C307.283 326.78 307.095 326.978 306.955 327.229C306.818 327.478 306.749 327.754 306.749 328.057C306.749 328.36 306.816 328.636 306.948 328.884C307.083 329.13 307.267 329.327 307.499 329.474C307.733 329.618 307.999 329.69 308.298 329.69C308.522 329.69 308.732 329.647 308.926 329.559C309.12 329.469 309.29 329.347 309.434 329.193C309.581 329.037 309.696 328.861 309.778 328.664C309.861 328.465 309.903 328.258 309.903 328.043C309.903 327.759 309.834 327.492 309.697 327.244C309.562 326.995 309.375 326.794 309.136 326.64C308.899 326.486 308.629 326.409 308.326 326.409ZM312.379 333V325.727H314.921C315.428 325.727 315.846 325.815 316.175 325.99C316.504 326.163 316.749 326.396 316.91 326.69C317.071 326.981 317.151 327.304 317.151 327.659C317.151 327.972 317.096 328.23 316.985 328.433C316.876 328.637 316.731 328.798 316.551 328.916C316.374 329.035 316.181 329.122 315.972 329.179V329.25C316.195 329.264 316.419 329.342 316.644 329.484C316.869 329.626 317.057 329.83 317.208 330.095C317.36 330.36 317.436 330.685 317.436 331.068C317.436 331.433 317.353 331.761 317.187 332.052C317.021 332.343 316.76 332.574 316.402 332.744C316.045 332.915 315.579 333 315.007 333H312.379ZM313.259 332.219H315.007C315.582 332.219 315.99 332.107 316.232 331.885C316.476 331.66 316.597 331.388 316.597 331.068C316.597 330.822 316.535 330.595 316.409 330.386C316.284 330.176 316.105 330.008 315.873 329.882C315.641 329.754 315.366 329.69 315.049 329.69H313.259V332.219ZM313.259 328.923H314.893C315.158 328.923 315.397 328.871 315.61 328.767C315.826 328.663 315.996 328.516 316.122 328.327C316.249 328.137 316.313 327.915 316.313 327.659C316.313 327.339 316.202 327.068 315.98 326.846C315.757 326.621 315.404 326.509 314.921 326.509H313.259V328.923ZM318.982 333L322.235 326.565V326.509H318.485V325.727H323.144V326.551L319.905 333H318.982ZM330.448 328H329.567C329.515 327.747 329.424 327.524 329.294 327.332C329.166 327.141 329.01 326.98 328.825 326.849C328.643 326.717 328.44 326.617 328.218 326.551C327.995 326.485 327.763 326.452 327.522 326.452C327.081 326.452 326.682 326.563 326.325 326.786C325.97 327.008 325.687 327.336 325.476 327.769C325.268 328.202 325.164 328.734 325.164 329.364C325.164 329.993 325.268 330.525 325.476 330.958C325.687 331.391 325.97 331.719 326.325 331.942C326.682 332.164 327.081 332.276 327.522 332.276C327.763 332.276 327.995 332.242 328.218 332.176C328.44 332.11 328.643 332.012 328.825 331.881C329.01 331.749 329.166 331.587 329.294 331.395C329.424 331.201 329.515 330.978 329.567 330.727H330.448C330.382 331.099 330.261 331.432 330.086 331.725C329.91 332.019 329.693 332.268 329.432 332.474C329.172 332.678 328.879 332.833 328.555 332.94C328.233 333.046 327.889 333.099 327.522 333.099C326.901 333.099 326.35 332.948 325.867 332.645C325.384 332.342 325.004 331.911 324.727 331.352C324.45 330.794 324.311 330.131 324.311 329.364C324.311 328.597 324.45 327.934 324.727 327.375C325.004 326.816 325.384 326.385 325.867 326.082C326.35 325.779 326.901 325.628 327.522 325.628C327.889 325.628 328.233 325.681 328.555 325.788C328.879 325.894 329.172 326.05 329.432 326.256C329.693 326.46 329.91 326.709 330.086 327.002C330.261 327.293 330.382 327.626 330.448 328ZM334.158 333.099C333.86 333.095 333.561 333.038 333.263 332.929C332.965 332.82 332.692 332.637 332.446 332.379C332.2 332.118 332.002 331.767 331.853 331.324C331.704 330.879 331.629 330.32 331.629 329.648C331.629 329.004 331.69 328.433 331.811 327.936C331.931 327.437 332.106 327.016 332.336 326.675C332.566 326.332 332.843 326.072 333.167 325.894C333.494 325.717 333.862 325.628 334.271 325.628C334.679 325.628 335.041 325.71 335.358 325.873C335.678 326.034 335.938 326.259 336.139 326.548C336.341 326.836 336.471 327.169 336.53 327.545H335.664C335.583 327.219 335.427 326.948 335.195 326.732C334.963 326.517 334.655 326.409 334.271 326.409C333.708 326.409 333.264 326.654 332.94 327.144C332.618 327.634 332.456 328.322 332.453 329.207H332.51C332.643 329.006 332.8 328.835 332.982 328.692C333.167 328.548 333.371 328.437 333.593 328.359C333.816 328.281 334.051 328.241 334.3 328.241C334.717 328.241 335.098 328.346 335.443 328.554C335.789 328.76 336.066 329.045 336.274 329.41C336.483 329.772 336.587 330.188 336.587 330.656C336.587 331.106 336.486 331.518 336.285 331.892C336.084 332.264 335.801 332.56 335.436 332.78C335.074 332.998 334.648 333.104 334.158 333.099ZM334.158 332.318C334.456 332.318 334.724 332.244 334.96 332.094C335.2 331.945 335.388 331.745 335.525 331.494C335.665 331.243 335.735 330.964 335.735 330.656C335.735 330.356 335.667 330.082 335.532 329.836C335.4 329.587 335.216 329.39 334.982 329.243C334.75 329.096 334.485 329.023 334.186 329.023C333.961 329.023 333.752 329.068 333.558 329.158C333.364 329.245 333.193 329.366 333.046 329.52C332.902 329.674 332.788 329.85 332.705 330.049C332.623 330.246 332.581 330.453 332.581 330.67C332.581 330.959 332.649 331.229 332.784 331.48C332.921 331.731 333.108 331.933 333.345 332.087C333.584 332.241 333.855 332.318 334.158 332.318Z" fill="#A9B7C6"/>
<rect x="298" y="315" width="100" height="40" rx="20" transform="rotate(-90 298 315)" fill="#A9B7C6"/>
</svg>
