<svg width="579" height="374" viewBox="0 0 579 374" fill="none" xmlns="http://www.w3.org/2000/svg">
<rect width="579" height="374" fill="#24272B"/>
<rect x="24" y="24" width="140" height="150" rx="20" fill="white"/>
<path d="M50.125 159.099C49.59 159.099 49.1342 158.954 48.7578 158.663C48.3814 158.369 48.0938 157.944 47.8949 157.388C47.696 156.829 47.5966 156.154 47.5966 155.364C47.5966 154.578 47.696 153.906 47.8949 153.35C48.0961 152.791 48.3849 152.365 48.7614 152.072C49.1402 151.776 49.5947 151.628 50.125 151.628C50.6553 151.628 51.1087 151.776 51.4851 152.072C51.8639 152.365 52.1527 152.791 52.3516 153.35C52.5528 153.906 52.6534 154.578 52.6534 155.364C52.6534 156.154 52.554 156.829 52.3551 157.388C52.1562 157.944 51.8686 158.369 51.4922 158.663C51.1158 158.954 50.66 159.099 50.125 159.099ZM50.125 158.318C50.6553 158.318 51.0672 158.062 51.3608 157.551C51.6544 157.04 51.8011 156.311 51.8011 155.364C51.8011 154.734 51.7337 154.198 51.5987 153.755C51.4661 153.312 51.2744 152.975 51.0234 152.743C50.7749 152.511 50.4754 152.395 50.125 152.395C49.5994 152.395 49.1887 152.654 48.8928 153.173C48.5968 153.689 48.4489 154.419 48.4489 155.364C48.4489 155.993 48.5152 156.528 48.6477 156.969C48.7803 157.409 48.9709 157.744 49.2195 157.974C49.4704 158.203 49.7723 158.318 50.125 158.318ZM56.375 159.099C55.84 159.099 55.3842 158.954 55.0078 158.663C54.6314 158.369 54.3438 157.944 54.1449 157.388C53.946 156.829 53.8466 156.154 53.8466 155.364C53.8466 154.578 53.946 153.906 54.1449 153.35C54.3461 152.791 54.6349 152.365 55.0114 152.072C55.3902 151.776 55.8447 151.628 56.375 151.628C56.9053 151.628 57.3587 151.776 57.7351 152.072C58.1139 152.365 58.4027 152.791 58.6016 153.35C58.8028 153.906 58.9034 154.578 58.9034 155.364C58.9034 156.154 58.804 156.829 58.6051 157.388C58.4062 157.944 58.1186 158.369 57.7422 158.663C57.3658 158.954 56.91 159.099 56.375 159.099ZM56.375 158.318C56.9053 158.318 57.3172 158.062 57.6108 157.551C57.9044 157.04 58.0511 156.311 58.0511 155.364C58.0511 154.734 57.9837 154.198 57.8487 153.755C57.7161 153.312 57.5244 152.975 57.2734 152.743C57.0249 152.511 56.7254 152.395 56.375 152.395C55.8494 152.395 55.4387 152.654 55.1428 153.173C54.8468 153.689 54.6989 154.419 54.6989 155.364C54.6989 155.993 54.7652 156.528 54.8977 156.969C55.0303 157.409 55.2209 157.744 55.4695 157.974C55.7204 158.203 56.0223 158.318 56.375 158.318ZM62.5824 159.099C62.0947 159.099 61.6638 159.013 61.2898 158.84C60.9181 158.665 60.6281 158.425 60.4197 158.119C60.2114 157.812 60.1084 157.461 60.1108 157.068C60.1084 156.76 60.1688 156.476 60.2919 156.216C60.415 155.953 60.5831 155.734 60.7962 155.559C61.0116 155.381 61.2519 155.269 61.517 155.222V155.179C61.169 155.089 60.892 154.894 60.6861 154.593C60.4801 154.29 60.3783 153.946 60.3807 153.56C60.3783 153.19 60.4718 152.86 60.6612 152.569C60.8506 152.278 61.111 152.048 61.4425 151.88C61.7763 151.712 62.1563 151.628 62.5824 151.628C63.0038 151.628 63.3802 151.712 63.7116 151.88C64.0431 152.048 64.3035 152.278 64.4929 152.569C64.6847 152.86 64.7817 153.19 64.7841 153.56C64.7817 153.946 64.6764 154.29 64.468 154.593C64.2621 154.894 63.9886 155.089 63.6477 155.179V155.222C63.9105 155.269 64.1473 155.381 64.358 155.559C64.5687 155.734 64.7367 155.953 64.8622 156.216C64.9877 156.476 65.0516 156.76 65.054 157.068C65.0516 157.461 64.9451 157.812 64.7344 158.119C64.526 158.425 64.236 158.665 63.8643 158.84C63.495 159.013 63.0677 159.099 62.5824 159.099ZM62.5824 158.318C62.9115 158.318 63.1955 158.265 63.4347 158.158C63.6738 158.052 63.8584 157.902 63.9886 157.707C64.1188 157.513 64.1851 157.286 64.1875 157.026C64.1851 156.751 64.1141 156.508 63.9744 156.298C63.8348 156.087 63.6442 155.921 63.4027 155.8C63.1636 155.68 62.8902 155.619 62.5824 155.619C62.2723 155.619 61.9953 155.68 61.7514 155.8C61.5099 155.921 61.3194 156.087 61.1797 156.298C61.0424 156.508 60.9749 156.751 60.9773 157.026C60.9749 157.286 61.0376 157.513 61.1655 157.707C61.2957 157.902 61.4815 158.052 61.723 158.158C61.9645 158.265 62.2509 158.318 62.5824 158.318ZM62.5824 154.866C62.8428 154.866 63.0736 154.814 63.2749 154.71C63.4785 154.606 63.6383 154.46 63.7543 154.273C63.8703 154.086 63.9295 153.867 63.9318 153.616C63.9295 153.37 63.8714 153.156 63.7578 152.974C63.6442 152.789 63.4867 152.647 63.2855 152.548C63.0843 152.446 62.8499 152.395 62.5824 152.395C62.3101 152.395 62.0722 152.446 61.8686 152.548C61.665 152.647 61.5076 152.789 61.3963 152.974C61.285 153.156 61.2306 153.37 61.233 153.616C61.2306 153.867 61.2862 154.086 61.3999 154.273C61.5159 154.46 61.6757 154.606 61.8793 154.71C62.0829 154.814 62.3172 154.866 62.5824 154.866ZM66.5428 159V151.727H70.9036V152.509H67.4235V154.966H70.5769V155.747H67.4235V159H66.5428ZM74.5568 159.099C74.1402 159.099 73.7649 159.017 73.4311 158.851C73.0973 158.685 72.8298 158.458 72.6286 158.169C72.4273 157.88 72.3172 157.551 72.2983 157.182H73.1506C73.1837 157.511 73.3329 157.783 73.598 157.999C73.8655 158.212 74.1851 158.318 74.5568 158.318C74.8551 158.318 75.1203 158.248 75.3523 158.109C75.5866 157.969 75.7701 157.777 75.9027 157.533C76.0376 157.287 76.1051 157.009 76.1051 156.699C76.1051 156.382 76.0353 156.099 75.8956 155.85C75.7583 155.599 75.5689 155.402 75.3274 155.257C75.0859 155.113 74.8101 155.039 74.5 155.037C74.2775 155.035 74.049 155.069 73.8146 155.14C73.5803 155.209 73.3873 155.297 73.2358 155.406L72.4119 155.307L72.8523 151.727H76.6307V152.509H73.5909L73.3352 154.653H73.3778C73.527 154.535 73.714 154.437 73.9389 154.359C74.1638 154.281 74.3982 154.241 74.642 154.241C75.0871 154.241 75.4837 154.348 75.8317 154.561C76.1821 154.772 76.4567 155.061 76.6555 155.428C76.8568 155.795 76.9574 156.214 76.9574 156.685C76.9574 157.149 76.8532 157.563 76.6449 157.928C76.4389 158.29 76.1548 158.576 75.7926 158.787C75.4304 158.995 75.0185 159.099 74.5568 159.099ZM80.7402 159H78.4959V151.727H80.8397C81.5452 151.727 82.1489 151.873 82.6507 152.164C83.1526 152.453 83.5373 152.868 83.8049 153.411C84.0724 153.95 84.2061 154.597 84.2061 155.349C84.2061 156.107 84.0712 156.759 83.8013 157.306C83.5314 157.851 83.1384 158.27 82.6223 158.563C82.1062 158.854 81.4789 159 80.7402 159ZM79.3766 158.219H80.6834C81.2847 158.219 81.7831 158.103 82.1784 157.871C82.5738 157.639 82.8685 157.308 83.0627 156.88C83.2568 156.451 83.3539 155.941 83.3539 155.349C83.3539 154.762 83.258 154.257 83.0662 153.833C82.8745 153.407 82.588 153.08 82.2069 152.853C81.8257 152.623 81.351 152.509 80.7828 152.509H79.3766V158.219Z" fill="#008F5D"/>
<rect x="46" y="142" width="100" height="40" rx="20" transform="rotate(-90 46 142)" fill="#008F5D"/>
<path d="M106.625 159.099C106.09 159.099 105.634 158.954 105.258 158.663C104.881 158.369 104.594 157.944 104.395 157.388C104.196 156.829 104.097 156.154 104.097 155.364C104.097 154.578 104.196 153.906 104.395 153.35C104.596 152.791 104.885 152.365 105.261 152.072C105.64 151.776 106.095 151.628 106.625 151.628C107.155 151.628 107.609 151.776 107.985 152.072C108.364 152.365 108.653 152.791 108.852 153.35C109.053 153.906 109.153 154.578 109.153 155.364C109.153 156.154 109.054 156.829 108.855 157.388C108.656 157.944 108.369 158.369 107.992 158.663C107.616 158.954 107.16 159.099 106.625 159.099ZM106.625 158.318C107.155 158.318 107.567 158.062 107.861 157.551C108.154 157.04 108.301 156.311 108.301 155.364C108.301 154.734 108.234 154.198 108.099 153.755C107.966 153.312 107.774 152.975 107.523 152.743C107.275 152.511 106.975 152.395 106.625 152.395C106.099 152.395 105.689 152.654 105.393 153.173C105.097 153.689 104.949 154.419 104.949 155.364C104.949 155.993 105.015 156.528 105.148 156.969C105.28 157.409 105.471 157.744 105.719 157.974C105.97 158.203 106.272 158.318 106.625 158.318ZM110.929 159H110.006L112.676 151.727H113.585L116.256 159H115.332L113.159 152.878H113.102L110.929 159ZM111.27 156.159H114.991V156.94H111.27V156.159ZM117.687 159H116.763L119.434 151.727H120.343L123.013 159H122.09L119.917 152.878H119.86L117.687 159ZM118.028 156.159H121.749V156.94H118.028V156.159ZM126.348 159.099C125.86 159.099 125.429 159.013 125.055 158.84C124.684 158.665 124.394 158.425 124.185 158.119C123.977 157.812 123.874 157.461 123.876 157.068C123.874 156.76 123.934 156.476 124.058 156.216C124.181 155.953 124.349 155.734 124.562 155.559C124.777 155.381 125.018 155.269 125.283 155.222V155.179C124.935 155.089 124.658 154.894 124.452 154.593C124.246 154.29 124.144 153.946 124.146 153.56C124.144 153.19 124.237 152.86 124.427 152.569C124.616 152.278 124.877 152.048 125.208 151.88C125.542 151.712 125.922 151.628 126.348 151.628C126.769 151.628 127.146 151.712 127.477 151.88C127.809 152.048 128.069 152.278 128.259 152.569C128.45 152.86 128.547 153.19 128.55 153.56C128.547 153.946 128.442 154.29 128.234 154.593C128.028 154.894 127.754 155.089 127.413 155.179V155.222C127.676 155.269 127.913 155.381 128.124 155.559C128.334 155.734 128.502 155.953 128.628 156.216C128.753 156.476 128.817 156.76 128.82 157.068C128.817 157.461 128.711 157.812 128.5 158.119C128.292 158.425 128.002 158.665 127.63 158.84C127.261 159.013 126.833 159.099 126.348 159.099ZM126.348 158.318C126.677 158.318 126.961 158.265 127.2 158.158C127.439 158.052 127.624 157.902 127.754 157.707C127.884 157.513 127.951 157.286 127.953 157.026C127.951 156.751 127.88 156.508 127.74 156.298C127.6 156.087 127.41 155.921 127.168 155.8C126.929 155.68 126.656 155.619 126.348 155.619C126.038 155.619 125.761 155.68 125.517 155.8C125.276 155.921 125.085 156.087 124.945 156.298C124.808 156.508 124.741 156.751 124.743 157.026C124.741 157.286 124.803 157.513 124.931 157.707C125.061 157.902 125.247 158.052 125.489 158.158C125.73 158.265 126.017 158.318 126.348 158.318ZM126.348 154.866C126.608 154.866 126.839 154.814 127.04 154.71C127.244 154.606 127.404 154.46 127.52 154.273C127.636 154.086 127.695 153.867 127.697 153.616C127.695 153.37 127.637 153.156 127.523 152.974C127.41 152.789 127.252 152.647 127.051 152.548C126.85 152.446 126.616 152.395 126.348 152.395C126.076 152.395 125.838 152.446 125.634 152.548C125.431 152.647 125.273 152.789 125.162 152.974C125.051 153.156 124.996 153.37 124.999 153.616C124.996 153.867 125.052 154.086 125.165 154.273C125.281 154.46 125.441 154.606 125.645 154.71C125.848 154.814 126.083 154.866 126.348 154.866ZM130.408 159L133.661 152.565V152.509H129.911V151.727H134.57V152.551L131.331 159H130.408ZM138.45 151.727V159H137.57V152.651H137.527L135.751 153.83V152.935L137.57 151.727H138.45Z" fill="#0AA871"/>
<rect x="102" y="142" width="100" height="40" rx="20" transform="rotate(-90 102 142)" fill="#0AA871"/>
<rect x="188" y="24" width="140" height="150" rx="20" fill="white"/>
<path d="M211.881 159V151.727H216.27V152.509H212.761V154.966H216.043V155.747H212.761V158.219H216.327V159H211.881ZM217.857 159V151.727H220.4C220.906 151.727 221.324 151.815 221.653 151.99C221.982 152.163 222.228 152.396 222.388 152.69C222.549 152.981 222.63 153.304 222.63 153.659C222.63 153.972 222.574 154.23 222.463 154.433C222.354 154.637 222.21 154.798 222.03 154.916C221.852 155.035 221.659 155.122 221.451 155.179V155.25C221.674 155.264 221.897 155.342 222.122 155.484C222.347 155.626 222.535 155.83 222.687 156.095C222.838 156.36 222.914 156.685 222.914 157.068C222.914 157.433 222.831 157.761 222.665 158.052C222.5 158.343 222.238 158.574 221.881 158.744C221.523 158.915 221.058 159 220.485 159H217.857ZM218.738 158.219H220.485C221.06 158.219 221.469 158.107 221.71 157.885C221.954 157.66 222.076 157.388 222.076 157.068C222.076 156.822 222.013 156.595 221.888 156.386C221.762 156.176 221.584 156.008 221.352 155.882C221.12 155.754 220.845 155.69 220.528 155.69H218.738V158.219ZM218.738 154.923H220.371C220.637 154.923 220.876 154.871 221.089 154.767C221.304 154.663 221.475 154.516 221.6 154.327C221.728 154.137 221.792 153.915 221.792 153.659C221.792 153.339 221.681 153.068 221.458 152.846C221.236 152.621 220.883 152.509 220.4 152.509H218.738V154.923ZM226.563 159.099C226.075 159.099 225.644 159.013 225.27 158.84C224.899 158.665 224.609 158.425 224.4 158.119C224.192 157.812 224.089 157.461 224.091 157.068C224.089 156.76 224.149 156.476 224.272 156.216C224.395 155.953 224.564 155.734 224.777 155.559C224.992 155.381 225.232 155.269 225.498 155.222V155.179C225.15 155.089 224.873 154.894 224.667 154.593C224.461 154.29 224.359 153.946 224.361 153.56C224.359 153.19 224.452 152.86 224.642 152.569C224.831 152.278 225.092 152.048 225.423 151.88C225.757 151.712 226.137 151.628 226.563 151.628C226.984 151.628 227.361 151.712 227.692 151.88C228.024 152.048 228.284 152.278 228.473 152.569C228.665 152.86 228.762 153.19 228.765 153.56C228.762 153.946 228.657 154.29 228.449 154.593C228.243 154.894 227.969 155.089 227.628 155.179V155.222C227.891 155.269 228.128 155.381 228.338 155.559C228.549 155.734 228.717 155.953 228.843 156.216C228.968 156.476 229.032 156.76 229.034 157.068C229.032 157.461 228.926 157.812 228.715 158.119C228.507 158.425 228.217 158.665 227.845 158.84C227.475 159.013 227.048 159.099 226.563 159.099ZM226.563 158.318C226.892 158.318 227.176 158.265 227.415 158.158C227.654 158.052 227.839 157.902 227.969 157.707C228.099 157.513 228.166 157.286 228.168 157.026C228.166 156.751 228.095 156.508 227.955 156.298C227.815 156.087 227.625 155.921 227.383 155.8C227.144 155.68 226.871 155.619 226.563 155.619C226.253 155.619 225.976 155.68 225.732 155.8C225.49 155.921 225.3 156.087 225.16 156.298C225.023 156.508 224.955 156.751 224.958 157.026C224.955 157.286 225.018 157.513 225.146 157.707C225.276 157.902 225.462 158.052 225.703 158.158C225.945 158.265 226.231 158.318 226.563 158.318ZM226.563 154.866C226.823 154.866 227.054 154.814 227.255 154.71C227.459 154.606 227.619 154.46 227.735 154.273C227.851 154.086 227.91 153.867 227.912 153.616C227.91 153.37 227.852 153.156 227.738 152.974C227.625 152.789 227.467 152.647 227.266 152.548C227.065 152.446 226.83 152.395 226.563 152.395C226.291 152.395 226.053 152.446 225.849 152.548C225.645 152.647 225.488 152.789 225.377 152.974C225.266 153.156 225.211 153.37 225.213 153.616C225.211 153.867 225.267 154.086 225.38 154.273C225.496 154.46 225.656 154.606 225.86 154.71C226.063 154.814 226.298 154.866 226.563 154.866ZM232.725 159.099C232.237 159.099 231.806 159.013 231.432 158.84C231.061 158.665 230.771 158.425 230.562 158.119C230.354 157.812 230.251 157.461 230.253 157.068C230.251 156.76 230.311 156.476 230.434 156.216C230.558 155.953 230.726 155.734 230.939 155.559C231.154 155.381 231.394 155.269 231.66 155.222V155.179C231.312 155.089 231.035 154.894 230.829 154.593C230.623 154.29 230.521 153.946 230.523 153.56C230.521 153.19 230.614 152.86 230.804 152.569C230.993 152.278 231.254 152.048 231.585 151.88C231.919 151.712 232.299 151.628 232.725 151.628C233.146 151.628 233.523 151.712 233.854 151.88C234.186 152.048 234.446 152.278 234.635 152.569C234.827 152.86 234.924 153.19 234.927 153.56C234.924 153.946 234.819 154.29 234.611 154.593C234.405 154.894 234.131 155.089 233.79 155.179V155.222C234.053 155.269 234.29 155.381 234.501 155.559C234.711 155.734 234.879 155.953 235.005 156.216C235.13 156.476 235.194 156.76 235.197 157.068C235.194 157.461 235.088 157.812 234.877 158.119C234.669 158.425 234.379 158.665 234.007 158.84C233.638 159.013 233.21 159.099 232.725 159.099ZM232.725 158.318C233.054 158.318 233.338 158.265 233.577 158.158C233.816 158.052 234.001 157.902 234.131 157.707C234.261 157.513 234.328 157.286 234.33 157.026C234.328 156.751 234.257 156.508 234.117 156.298C233.977 156.087 233.787 155.921 233.545 155.8C233.306 155.68 233.033 155.619 232.725 155.619C232.415 155.619 232.138 155.68 231.894 155.8C231.653 155.921 231.462 156.087 231.322 156.298C231.185 156.508 231.117 156.751 231.12 157.026C231.117 157.286 231.18 157.513 231.308 157.707C231.438 157.902 231.624 158.052 231.866 158.158C232.107 158.265 232.394 158.318 232.725 158.318ZM232.725 154.866C232.985 154.866 233.216 154.814 233.417 154.71C233.621 154.606 233.781 154.46 233.897 154.273C234.013 154.086 234.072 153.867 234.074 153.616C234.072 153.37 234.014 153.156 233.9 152.974C233.787 152.789 233.629 152.647 233.428 152.548C233.227 152.446 232.992 152.395 232.725 152.395C232.453 152.395 232.215 152.446 232.011 152.548C231.808 152.647 231.65 152.789 231.539 152.974C231.428 153.156 231.373 153.37 231.376 153.616C231.373 153.867 231.429 154.086 231.542 154.273C231.658 154.46 231.818 154.606 232.022 154.71C232.225 154.814 232.46 154.866 232.725 154.866ZM238.93 159.099C238.395 159.099 237.939 158.954 237.562 158.663C237.186 158.369 236.898 157.944 236.7 157.388C236.501 156.829 236.401 156.154 236.401 155.364C236.401 154.578 236.501 153.906 236.7 153.35C236.901 152.791 237.19 152.365 237.566 152.072C237.945 151.776 238.399 151.628 238.93 151.628C239.46 151.628 239.913 151.776 240.29 152.072C240.669 152.365 240.957 152.791 241.156 153.35C241.357 153.906 241.458 154.578 241.458 155.364C241.458 156.154 241.359 156.829 241.16 157.388C240.961 157.944 240.673 158.369 240.297 158.663C239.92 158.954 239.465 159.099 238.93 159.099ZM238.93 158.318C239.46 158.318 239.872 158.062 240.165 157.551C240.459 157.04 240.606 156.311 240.606 155.364C240.606 154.734 240.538 154.198 240.403 153.755C240.271 153.312 240.079 152.975 239.828 152.743C239.58 152.511 239.28 152.395 238.93 152.395C238.404 152.395 237.993 152.654 237.697 153.173C237.402 153.689 237.254 154.419 237.254 155.364C237.254 155.993 237.32 156.528 237.452 156.969C237.585 157.409 237.776 157.744 238.024 157.974C238.275 158.203 238.577 158.318 238.93 158.318ZM245.18 159.099C244.645 159.099 244.189 158.954 243.812 158.663C243.436 158.369 243.148 157.944 242.95 157.388C242.751 156.829 242.651 156.154 242.651 155.364C242.651 154.578 242.751 153.906 242.95 153.35C243.151 152.791 243.44 152.365 243.816 152.072C244.195 151.776 244.649 151.628 245.18 151.628C245.71 151.628 246.163 151.776 246.54 152.072C246.919 152.365 247.207 152.791 247.406 153.35C247.607 153.906 247.708 154.578 247.708 155.364C247.708 156.154 247.609 156.829 247.41 157.388C247.211 157.944 246.923 158.369 246.547 158.663C246.17 158.954 245.715 159.099 245.18 159.099ZM245.18 158.318C245.71 158.318 246.122 158.062 246.415 157.551C246.709 157.04 246.856 156.311 246.856 155.364C246.856 154.734 246.788 154.198 246.653 153.755C246.521 153.312 246.329 152.975 246.078 152.743C245.83 152.511 245.53 152.395 245.18 152.395C244.654 152.395 244.243 152.654 243.947 153.173C243.652 153.689 243.504 154.419 243.504 155.364C243.504 155.993 243.57 156.528 243.702 156.969C243.835 157.409 244.026 157.744 244.274 157.974C244.525 158.203 244.827 158.318 245.18 158.318Z" fill="#EB8800"/>
<rect x="210" y="142" width="100" height="40" rx="20" transform="rotate(-90 210 142)" fill="#EB8800"/>
<path d="M267.381 159V151.727H271.741V152.509H268.261V154.966H271.415V155.747H268.261V159H267.381ZM273.25 159V151.727H277.611V152.509H274.131V154.966H277.284V155.747H274.131V159H273.25ZM278.509 159H277.586L280.256 151.727H281.165L283.836 159H282.912L280.739 152.878H280.682L278.509 159ZM278.85 156.159H282.572V156.94H278.85V156.159ZM287.213 159H284.969V151.727H287.312C288.018 151.727 288.622 151.873 289.123 152.164C289.625 152.453 290.01 152.868 290.278 153.411C290.545 153.95 290.679 154.597 290.679 155.349C290.679 156.107 290.544 156.759 290.274 157.306C290.004 157.851 289.611 158.27 289.095 158.563C288.579 158.854 287.952 159 287.213 159ZM285.849 158.219H287.156C287.757 158.219 288.256 158.103 288.651 157.871C289.046 157.639 289.341 157.308 289.535 156.88C289.729 156.451 289.827 155.941 289.827 155.349C289.827 154.762 289.731 154.257 289.539 153.833C289.347 153.407 289.061 153.08 288.68 152.853C288.298 152.623 287.824 152.509 287.256 152.509H285.849V158.219ZM294.486 159.099C294.017 159.099 293.599 159.019 293.232 158.858C292.867 158.697 292.577 158.473 292.362 158.187C292.149 157.898 292.033 157.563 292.014 157.182H292.909C292.928 157.416 293.008 157.619 293.15 157.789C293.292 157.957 293.478 158.087 293.708 158.18C293.938 158.272 294.192 158.318 294.471 158.318C294.784 158.318 295.061 158.264 295.302 158.155C295.544 158.046 295.733 157.894 295.871 157.7C296.008 157.506 296.077 157.281 296.077 157.026C296.077 156.758 296.01 156.522 295.878 156.319C295.745 156.113 295.551 155.952 295.295 155.836C295.04 155.72 294.727 155.662 294.358 155.662H293.775V154.881H294.358C294.647 154.881 294.9 154.829 295.118 154.724C295.338 154.62 295.51 154.473 295.633 154.284C295.758 154.095 295.821 153.872 295.821 153.616C295.821 153.37 295.766 153.156 295.657 152.974C295.549 152.791 295.395 152.649 295.196 152.548C294.999 152.446 294.767 152.395 294.5 152.395C294.249 152.395 294.012 152.441 293.79 152.533C293.569 152.623 293.39 152.755 293.25 152.928C293.11 153.098 293.034 153.304 293.023 153.545H292.17C292.184 153.164 292.299 152.83 292.515 152.544C292.73 152.255 293.012 152.03 293.36 151.869C293.71 151.708 294.095 151.628 294.514 151.628C294.964 151.628 295.35 151.719 295.672 151.901C295.994 152.081 296.241 152.319 296.414 152.615C296.587 152.911 296.673 153.231 296.673 153.574C296.673 153.983 296.565 154.333 296.35 154.621C296.137 154.91 295.847 155.11 295.48 155.222V155.278C295.939 155.354 296.298 155.549 296.556 155.864C296.814 156.177 296.943 156.564 296.943 157.026C296.943 157.421 296.835 157.776 296.62 158.091C296.407 158.403 296.116 158.65 295.746 158.83C295.377 159.009 294.957 159.099 294.486 159.099ZM300.768 159H298.523V151.727H300.867C301.573 151.727 302.176 151.873 302.678 152.164C303.18 152.453 303.565 152.868 303.832 153.411C304.1 153.95 304.233 154.597 304.233 155.349C304.233 156.107 304.099 156.759 303.829 157.306C303.559 157.851 303.166 158.27 302.65 158.563C302.134 158.854 301.506 159 300.768 159ZM299.404 158.219H300.711C301.312 158.219 301.81 158.103 302.206 157.871C302.601 157.639 302.896 157.308 303.09 156.88C303.284 156.451 303.381 155.941 303.381 155.349C303.381 154.762 303.285 154.257 303.094 153.833C302.902 153.407 302.615 153.08 302.234 152.853C301.853 152.623 301.378 152.509 300.81 152.509H299.404V158.219Z" fill="#FFAD3D"/>
<rect x="266" y="142" width="100" height="40" rx="20" transform="rotate(-90 266 142)" fill="#FFAD3D"/>
<rect x="352" y="24" width="193" height="150" rx="20" fill="white"/>
<path d="M376.253 159V158.361L378.653 155.733C378.935 155.425 379.167 155.158 379.349 154.93C379.532 154.701 379.667 154.485 379.754 154.284C379.844 154.08 379.889 153.867 379.889 153.645C379.889 153.389 379.828 153.168 379.705 152.981C379.584 152.794 379.418 152.649 379.207 152.548C378.997 152.446 378.76 152.395 378.497 152.395C378.218 152.395 377.974 152.453 377.766 152.569C377.56 152.683 377.4 152.842 377.286 153.048C377.175 153.254 377.119 153.496 377.119 153.773H376.281C376.281 153.347 376.379 152.973 376.576 152.651C376.772 152.329 377.04 152.078 377.379 151.898C377.719 151.718 378.102 151.628 378.526 151.628C378.952 151.628 379.329 151.718 379.658 151.898C379.987 152.078 380.246 152.32 380.433 152.626C380.62 152.931 380.713 153.271 380.713 153.645C380.713 153.912 380.665 154.174 380.567 154.43C380.473 154.683 380.307 154.966 380.07 155.278C379.836 155.589 379.51 155.967 379.094 156.415L377.46 158.162V158.219H380.841V159H376.253ZM384.68 159.099C384.145 159.099 383.689 158.954 383.312 158.663C382.936 158.369 382.648 157.944 382.45 157.388C382.251 156.829 382.151 156.154 382.151 155.364C382.151 154.578 382.251 153.906 382.45 153.35C382.651 152.791 382.94 152.365 383.316 152.072C383.695 151.776 384.149 151.628 384.68 151.628C385.21 151.628 385.663 151.776 386.04 152.072C386.419 152.365 386.707 152.791 386.906 153.35C387.107 153.906 387.208 154.578 387.208 155.364C387.208 156.154 387.109 156.829 386.91 157.388C386.711 157.944 386.423 158.369 386.047 158.663C385.67 158.954 385.215 159.099 384.68 159.099ZM384.68 158.318C385.21 158.318 385.622 158.062 385.915 157.551C386.209 157.04 386.356 156.311 386.356 155.364C386.356 154.734 386.288 154.198 386.153 153.755C386.021 153.312 385.829 152.975 385.578 152.743C385.33 152.511 385.03 152.395 384.68 152.395C384.154 152.395 383.743 152.654 383.447 153.173C383.152 153.689 383.004 154.419 383.004 155.364C383.004 155.993 383.07 156.528 383.202 156.969C383.335 157.409 383.526 157.744 383.774 157.974C384.025 158.203 384.327 158.318 384.68 158.318ZM388.589 159L391.842 152.565V152.509H388.092V151.727H392.751V152.551L389.513 159H388.589ZM396.25 159.099C395.834 159.099 395.458 159.017 395.124 158.851C394.791 158.685 394.523 158.458 394.322 158.169C394.121 157.88 394.011 157.551 393.992 157.182H394.844C394.877 157.511 395.026 157.783 395.291 157.999C395.559 158.212 395.878 158.318 396.25 158.318C396.548 158.318 396.814 158.248 397.046 158.109C397.28 157.969 397.463 157.777 397.596 157.533C397.731 157.287 397.798 157.009 397.798 156.699C397.798 156.382 397.729 156.099 397.589 155.85C397.452 155.599 397.262 155.402 397.021 155.257C396.779 155.113 396.503 155.039 396.193 155.037C395.971 155.035 395.742 155.069 395.508 155.14C395.274 155.209 395.081 155.297 394.929 155.406L394.105 155.307L394.546 151.727H398.324V152.509H395.284L395.029 154.653H395.071C395.22 154.535 395.407 154.437 395.632 154.359C395.857 154.281 396.092 154.241 396.335 154.241C396.78 154.241 397.177 154.348 397.525 154.561C397.875 154.772 398.15 155.061 398.349 155.428C398.55 155.795 398.651 156.214 398.651 156.685C398.651 157.149 398.547 157.563 398.338 157.928C398.132 158.29 397.848 158.576 397.486 158.787C397.124 158.995 396.712 159.099 396.25 159.099ZM400.189 159V151.727H404.578V152.509H401.07V154.966H404.351V155.747H401.07V158.219H404.635V159H400.189ZM406.166 159V151.727H408.708C409.215 151.727 409.633 151.815 409.962 151.99C410.291 152.163 410.536 152.396 410.697 152.69C410.858 152.981 410.939 153.304 410.939 153.659C410.939 153.972 410.883 154.23 410.772 154.433C410.663 154.637 410.518 154.798 410.338 154.916C410.161 155.035 409.968 155.122 409.76 155.179V155.25C409.982 155.264 410.206 155.342 410.431 155.484C410.656 155.626 410.844 155.83 410.995 156.095C411.147 156.36 411.223 156.685 411.223 157.068C411.223 157.433 411.14 157.761 410.974 158.052C410.808 158.343 410.547 158.574 410.189 158.744C409.832 158.915 409.367 159 408.794 159H406.166ZM407.047 158.219H408.794C409.369 158.219 409.777 158.107 410.019 157.885C410.263 157.66 410.385 157.388 410.385 157.068C410.385 156.822 410.322 156.595 410.196 156.386C410.071 156.176 409.892 156.008 409.66 155.882C409.428 155.754 409.154 155.69 408.836 155.69H407.047V158.219ZM407.047 154.923H408.68C408.945 154.923 409.184 154.871 409.397 154.767C409.613 154.663 409.783 154.516 409.909 154.327C410.037 154.137 410.1 153.915 410.1 153.659C410.1 153.339 409.989 153.068 409.767 152.846C409.544 152.621 409.191 152.509 408.708 152.509H407.047V154.923Z" fill="#2075EB"/>
<rect x="374" y="142" width="100" height="40" rx="20" transform="rotate(-90 374 142)" fill="#2075EB"/>
<path d="M432.082 157.509V156.784L435.278 151.727H435.804V152.849H435.449L433.034 156.67V156.727H437.338V157.509H432.082ZM435.506 159V157.288V156.951V151.727H436.344V159H435.506ZM440.984 151.628C441.282 151.63 441.581 151.687 441.879 151.798C442.177 151.91 442.45 152.094 442.696 152.352C442.942 152.608 443.14 152.957 443.289 153.4C443.438 153.843 443.513 154.398 443.513 155.065C443.513 155.712 443.451 156.286 443.328 156.788C443.207 157.287 443.032 157.709 442.802 158.052C442.575 158.395 442.298 158.656 441.971 158.833C441.647 159.011 441.28 159.099 440.871 159.099C440.463 159.099 440.1 159.019 439.78 158.858C439.463 158.695 439.203 158.469 438.999 158.18C438.798 157.888 438.669 157.551 438.612 157.168H439.479C439.557 157.501 439.712 157.777 439.944 157.995C440.178 158.21 440.487 158.318 440.871 158.318C441.432 158.318 441.874 158.073 442.199 157.583C442.525 157.093 442.689 156.401 442.689 155.506H442.632C442.499 155.705 442.342 155.876 442.16 156.021C441.977 156.165 441.775 156.276 441.552 156.354C441.33 156.433 441.093 156.472 440.842 156.472C440.425 156.472 440.043 156.369 439.695 156.163C439.349 155.954 439.073 155.669 438.864 155.307C438.658 154.942 438.555 154.526 438.555 154.057C438.555 153.612 438.655 153.205 438.854 152.835C439.055 152.464 439.336 152.168 439.699 151.947C440.063 151.727 440.492 151.621 440.984 151.628ZM440.984 152.409C440.686 152.409 440.417 152.484 440.178 152.633C439.941 152.78 439.753 152.978 439.613 153.229C439.476 153.478 439.407 153.754 439.407 154.057C439.407 154.36 439.474 154.636 439.606 154.884C439.741 155.13 439.925 155.327 440.157 155.474C440.391 155.618 440.657 155.69 440.956 155.69C441.181 155.69 441.39 155.647 441.584 155.559C441.778 155.469 441.948 155.347 442.092 155.193C442.239 155.037 442.354 154.861 442.437 154.664C442.519 154.465 442.561 154.258 442.561 154.043C442.561 153.759 442.492 153.492 442.355 153.244C442.22 152.995 442.033 152.794 441.794 152.64C441.557 152.486 441.287 152.409 440.984 152.409ZM447.224 151.628C447.523 151.63 447.821 151.687 448.119 151.798C448.418 151.91 448.69 152.094 448.936 152.352C449.182 152.608 449.38 152.957 449.529 153.4C449.678 153.843 449.753 154.398 449.753 155.065C449.753 155.712 449.691 156.286 449.568 156.788C449.447 157.287 449.272 157.709 449.043 158.052C448.815 158.395 448.538 158.656 448.212 158.833C447.887 159.011 447.52 159.099 447.111 159.099C446.704 159.099 446.34 159.019 446.021 158.858C445.703 158.695 445.443 158.469 445.239 158.18C445.038 157.888 444.909 157.551 444.852 157.168H445.719C445.797 157.501 445.952 157.777 446.184 157.995C446.418 158.21 446.727 158.318 447.111 158.318C447.672 158.318 448.115 158.073 448.439 157.583C448.766 157.093 448.929 156.401 448.929 155.506H448.872C448.74 155.705 448.582 155.876 448.4 156.021C448.218 156.165 448.015 156.276 447.793 156.354C447.57 156.433 447.333 156.472 447.082 156.472C446.666 156.472 446.283 156.369 445.935 156.163C445.59 155.954 445.313 155.669 445.104 155.307C444.898 154.942 444.795 154.526 444.795 154.057C444.795 153.612 444.895 153.205 445.094 152.835C445.295 152.464 445.577 152.168 445.939 151.947C446.304 151.727 446.732 151.621 447.224 151.628ZM447.224 152.409C446.926 152.409 446.657 152.484 446.418 152.633C446.182 152.78 445.993 152.978 445.854 153.229C445.716 153.478 445.648 153.754 445.648 154.057C445.648 154.36 445.714 154.636 445.847 154.884C445.982 155.13 446.165 155.327 446.397 155.474C446.631 155.618 446.898 155.69 447.196 155.69C447.421 155.69 447.63 155.647 447.825 155.559C448.019 155.469 448.188 155.347 448.332 155.193C448.479 155.037 448.594 154.861 448.677 154.664C448.76 154.465 448.801 154.258 448.801 154.043C448.801 153.759 448.732 153.492 448.595 153.244C448.46 152.995 448.273 152.794 448.034 152.64C447.797 152.486 447.527 152.409 447.224 152.409ZM451.181 159L454.434 152.565V152.509H450.684V151.727H455.343V152.551L452.105 159H451.181ZM456.795 159V151.727H461.156V152.509H457.675V154.966H460.829V155.747H457.675V159H456.795ZM462.054 159H461.131L463.801 151.727H464.71L467.381 159H466.457L464.284 152.878H464.227L462.054 159ZM462.395 156.159H466.116V156.94H462.395V156.159Z" fill="#4997FA"/>
<rect x="430" y="142" width="100" height="40" rx="20" transform="rotate(-90 430 142)" fill="#4997FA"/>
<path d="M487.582 157.509V156.784L490.778 151.727H491.304V152.849H490.949L488.534 156.67V156.727H492.838V157.509H487.582ZM491.006 159V157.288V156.951V151.727H491.844V159H491.006ZM496.484 151.628C496.782 151.63 497.081 151.687 497.379 151.798C497.677 151.91 497.95 152.094 498.196 152.352C498.442 152.608 498.64 152.957 498.789 153.4C498.938 153.843 499.013 154.398 499.013 155.065C499.013 155.712 498.951 156.286 498.828 156.788C498.707 157.287 498.532 157.709 498.302 158.052C498.075 158.395 497.798 158.656 497.471 158.833C497.147 159.011 496.78 159.099 496.371 159.099C495.963 159.099 495.6 159.019 495.28 158.858C494.963 158.695 494.703 158.469 494.499 158.18C494.298 157.888 494.169 157.551 494.112 157.168H494.979C495.057 157.501 495.212 157.777 495.444 157.995C495.678 158.21 495.987 158.318 496.371 158.318C496.932 158.318 497.374 158.073 497.699 157.583C498.025 157.093 498.189 156.401 498.189 155.506H498.132C497.999 155.705 497.842 155.876 497.66 156.021C497.477 156.165 497.275 156.276 497.052 156.354C496.83 156.433 496.593 156.472 496.342 156.472C495.925 156.472 495.543 156.369 495.195 156.163C494.849 155.954 494.573 155.669 494.364 155.307C494.158 154.942 494.055 154.526 494.055 154.057C494.055 153.612 494.155 153.205 494.354 152.835C494.555 152.464 494.836 152.168 495.199 151.947C495.563 151.727 495.992 151.621 496.484 151.628ZM496.484 152.409C496.186 152.409 495.917 152.484 495.678 152.633C495.441 152.78 495.253 152.978 495.113 153.229C494.976 153.478 494.907 153.754 494.907 154.057C494.907 154.36 494.974 154.636 495.106 154.884C495.241 155.13 495.425 155.327 495.657 155.474C495.891 155.618 496.157 155.69 496.456 155.69C496.681 155.69 496.89 155.647 497.084 155.559C497.278 155.469 497.448 155.347 497.592 155.193C497.739 155.037 497.854 154.861 497.937 154.664C498.019 154.465 498.061 154.258 498.061 154.043C498.061 153.759 497.992 153.492 497.855 153.244C497.72 152.995 497.533 152.794 497.294 152.64C497.057 152.486 496.787 152.409 496.484 152.409ZM500.537 159V151.727H503.08C503.586 151.727 504.004 151.815 504.333 151.99C504.662 152.163 504.907 152.396 505.068 152.69C505.229 152.981 505.31 153.304 505.31 153.659C505.31 153.972 505.254 154.23 505.143 154.433C505.034 154.637 504.889 154.798 504.71 154.916C504.532 155.035 504.339 155.122 504.131 155.179V155.25C504.353 155.264 504.577 155.342 504.802 155.484C505.027 155.626 505.215 155.83 505.366 156.095C505.518 156.36 505.594 156.685 505.594 157.068C505.594 157.433 505.511 157.761 505.345 158.052C505.179 158.343 504.918 158.574 504.56 158.744C504.203 158.915 503.738 159 503.165 159H500.537ZM501.418 158.219H503.165C503.74 158.219 504.148 158.107 504.39 157.885C504.634 157.66 504.756 157.388 504.756 157.068C504.756 156.822 504.693 156.595 504.567 156.386C504.442 156.176 504.263 156.008 504.031 155.882C503.799 155.754 503.525 155.69 503.207 155.69H501.418V158.219ZM501.418 154.923H503.051C503.316 154.923 503.555 154.871 503.768 154.767C503.984 154.663 504.154 154.516 504.28 154.327C504.408 154.137 504.472 153.915 504.472 153.659C504.472 153.339 504.36 153.068 504.138 152.846C503.915 152.621 503.563 152.509 503.08 152.509H501.418V154.923ZM509.37 159.099C508.902 159.099 508.484 159.019 508.117 158.858C507.752 158.697 507.462 158.473 507.247 158.187C507.034 157.898 506.918 157.563 506.899 157.182H507.794C507.813 157.416 507.893 157.619 508.035 157.789C508.177 157.957 508.363 158.087 508.593 158.18C508.822 158.272 509.077 158.318 509.356 158.318C509.669 158.318 509.946 158.264 510.187 158.155C510.429 158.046 510.618 157.894 510.755 157.7C510.893 157.506 510.961 157.281 510.961 157.026C510.961 156.758 510.895 156.522 510.762 156.319C510.63 156.113 510.436 155.952 510.18 155.836C509.924 155.72 509.612 155.662 509.243 155.662H508.66V154.881H509.243C509.531 154.881 509.785 154.829 510.002 154.724C510.223 154.62 510.394 154.473 510.517 154.284C510.643 154.095 510.706 153.872 510.706 153.616C510.706 153.37 510.651 153.156 510.542 152.974C510.433 152.791 510.279 152.649 510.081 152.548C509.884 152.446 509.652 152.395 509.385 152.395C509.134 152.395 508.897 152.441 508.674 152.533C508.454 152.623 508.274 152.755 508.135 152.928C507.995 153.098 507.919 153.304 507.907 153.545H507.055C507.069 153.164 507.184 152.83 507.4 152.544C507.615 152.255 507.897 152.03 508.245 151.869C508.595 151.708 508.98 151.628 509.399 151.628C509.849 151.628 510.234 151.719 510.556 151.901C510.878 152.081 511.126 152.319 511.299 152.615C511.471 152.911 511.558 153.231 511.558 153.574C511.558 153.983 511.45 154.333 511.235 154.621C511.022 154.91 510.732 155.11 510.365 155.222V155.278C510.824 155.354 511.183 155.549 511.441 155.864C511.699 156.177 511.828 156.564 511.828 157.026C511.828 157.421 511.72 157.776 511.505 158.091C511.292 158.403 511 158.65 510.631 158.83C510.262 159.009 509.842 159.099 509.37 159.099ZM513.408 159V151.727H517.769V152.509H514.289V154.966H517.442V155.747H514.289V159H513.408ZM521.422 159.099C521.005 159.099 520.63 159.017 520.296 158.851C519.963 158.685 519.695 158.458 519.494 158.169C519.293 157.88 519.182 157.551 519.164 157.182H520.016C520.049 157.511 520.198 157.783 520.463 157.999C520.731 158.212 521.05 158.318 521.422 158.318C521.72 158.318 521.985 158.248 522.218 158.109C522.452 157.969 522.635 157.777 522.768 157.533C522.903 157.287 522.97 157.009 522.97 156.699C522.97 156.382 522.901 156.099 522.761 155.85C522.624 155.599 522.434 155.402 522.193 155.257C521.951 155.113 521.675 155.039 521.365 155.037C521.143 155.035 520.914 155.069 520.68 155.14C520.445 155.209 520.253 155.297 520.101 155.406L519.277 155.307L519.718 151.727H523.496V152.509H520.456L520.2 154.653H520.243C520.392 154.535 520.579 154.437 520.804 154.359C521.029 154.281 521.263 154.241 521.507 154.241C521.952 154.241 522.349 154.348 522.697 154.561C523.047 154.772 523.322 155.061 523.521 155.428C523.722 155.795 523.823 156.214 523.823 156.685C523.823 157.149 523.718 157.563 523.51 157.928C523.304 158.29 523.02 158.576 522.658 158.787C522.296 158.995 521.884 159.099 521.422 159.099Z" fill="#49B3F5"/>
<rect x="486" y="142" width="100" height="40" rx="20" transform="rotate(-90 486 142)" fill="#49B3F5"/>
<rect x="411" y="197" width="134" height="150" rx="20" fill="white"/>
<rect x="430" y="315" width="100" height="40" rx="20" transform="rotate(-90 430 315)" fill="#00C2A1"/>
<path d="M434.625 332.099C434.09 332.099 433.634 331.954 433.258 331.663C432.881 331.369 432.594 330.944 432.395 330.388C432.196 329.829 432.097 329.154 432.097 328.364C432.097 327.578 432.196 326.906 432.395 326.35C432.596 325.791 432.885 325.365 433.261 325.072C433.64 324.776 434.095 324.628 434.625 324.628C435.155 324.628 435.609 324.776 435.985 325.072C436.364 325.365 436.653 325.791 436.852 326.35C437.053 326.906 437.153 327.578 437.153 328.364C437.153 329.154 437.054 329.829 436.855 330.388C436.656 330.944 436.369 331.369 435.992 331.663C435.616 331.954 435.16 332.099 434.625 332.099ZM434.625 331.318C435.155 331.318 435.567 331.062 435.861 330.551C436.154 330.04 436.301 329.311 436.301 328.364C436.301 327.734 436.234 327.198 436.099 326.755C435.966 326.312 435.774 325.975 435.523 325.743C435.275 325.511 434.975 325.395 434.625 325.395C434.099 325.395 433.689 325.654 433.393 326.173C433.097 326.689 432.949 327.419 432.949 328.364C432.949 328.993 433.015 329.528 433.148 329.969C433.28 330.409 433.471 330.744 433.719 330.974C433.97 331.203 434.272 331.318 434.625 331.318ZM440.875 332.099C440.34 332.099 439.884 331.954 439.508 331.663C439.131 331.369 438.844 330.944 438.645 330.388C438.446 329.829 438.347 329.154 438.347 328.364C438.347 327.578 438.446 326.906 438.645 326.35C438.846 325.791 439.135 325.365 439.511 325.072C439.89 324.776 440.345 324.628 440.875 324.628C441.405 324.628 441.859 324.776 442.235 325.072C442.614 325.365 442.903 325.791 443.102 326.35C443.303 326.906 443.403 327.578 443.403 328.364C443.403 329.154 443.304 329.829 443.105 330.388C442.906 330.944 442.619 331.369 442.242 331.663C441.866 331.954 441.41 332.099 440.875 332.099ZM440.875 331.318C441.405 331.318 441.817 331.062 442.111 330.551C442.404 330.04 442.551 329.311 442.551 328.364C442.551 327.734 442.484 327.198 442.349 326.755C442.216 326.312 442.024 325.975 441.773 325.743C441.525 325.511 441.225 325.395 440.875 325.395C440.349 325.395 439.939 325.654 439.643 326.173C439.347 326.689 439.199 327.419 439.199 328.364C439.199 328.993 439.265 329.528 439.398 329.969C439.53 330.409 439.721 330.744 439.969 330.974C440.22 331.203 440.522 331.318 440.875 331.318ZM450.733 327H449.852C449.8 326.747 449.709 326.524 449.579 326.332C449.451 326.141 449.295 325.98 449.11 325.849C448.928 325.717 448.725 325.617 448.503 325.551C448.28 325.485 448.048 325.452 447.807 325.452C447.366 325.452 446.968 325.563 446.61 325.786C446.255 326.008 445.972 326.336 445.761 326.769C445.553 327.202 445.449 327.734 445.449 328.364C445.449 328.993 445.553 329.525 445.761 329.958C445.972 330.391 446.255 330.719 446.61 330.942C446.968 331.164 447.366 331.276 447.807 331.276C448.048 331.276 448.28 331.242 448.503 331.176C448.725 331.11 448.928 331.012 449.11 330.881C449.295 330.749 449.451 330.587 449.579 330.395C449.709 330.201 449.8 329.978 449.852 329.727H450.733C450.667 330.099 450.546 330.432 450.371 330.725C450.196 331.019 449.978 331.268 449.717 331.474C449.457 331.678 449.165 331.833 448.84 331.94C448.518 332.046 448.174 332.099 447.807 332.099C447.187 332.099 446.635 331.948 446.152 331.645C445.669 331.342 445.289 330.911 445.012 330.352C444.735 329.794 444.597 329.131 444.597 328.364C444.597 327.597 444.735 326.934 445.012 326.375C445.289 325.816 445.669 325.385 446.152 325.082C446.635 324.779 447.187 324.628 447.807 324.628C448.174 324.628 448.518 324.681 448.84 324.788C449.165 324.894 449.457 325.05 449.717 325.256C449.978 325.46 450.196 325.709 450.371 326.002C450.546 326.293 450.667 326.626 450.733 327ZM452.028 332V331.361L454.429 328.733C454.711 328.425 454.943 328.158 455.125 327.93C455.307 327.701 455.442 327.485 455.53 327.284C455.62 327.08 455.665 326.867 455.665 326.645C455.665 326.389 455.603 326.168 455.48 325.981C455.359 325.794 455.193 325.649 454.983 325.548C454.772 325.446 454.535 325.395 454.273 325.395C453.993 325.395 453.749 325.453 453.541 325.569C453.335 325.683 453.175 325.842 453.062 326.048C452.95 326.254 452.895 326.496 452.895 326.773H452.057C452.057 326.347 452.155 325.973 452.351 325.651C452.548 325.329 452.815 325.078 453.154 324.898C453.495 324.718 453.877 324.628 454.301 324.628C454.727 324.628 455.105 324.718 455.434 324.898C455.763 325.078 456.021 325.32 456.208 325.626C456.395 325.931 456.488 326.271 456.488 326.645C456.488 326.912 456.44 327.174 456.343 327.43C456.248 327.683 456.082 327.966 455.846 328.278C455.611 328.589 455.286 328.967 454.869 329.415L453.236 331.162V331.219H456.616V332H452.028ZM458.509 332H457.586L460.256 324.727H461.165L463.836 332H462.912L460.739 325.878H460.682L458.509 332ZM458.85 329.159H462.572V329.94H458.85V329.159ZM467.056 324.727V332H466.175V325.651H466.132L464.357 326.83V325.935L466.175 324.727H467.056Z" fill="#00C2A1"/>
<rect x="486" y="315" width="100" height="40" rx="20" transform="rotate(-90 486 315)" fill="#E66060"/>
<path d="M487.881 332V324.727H492.27V325.509H488.761V327.966H492.043V328.747H488.761V331.219H492.327V332H487.881ZM496.144 332.099C495.846 332.095 495.548 332.038 495.249 331.929C494.951 331.82 494.679 331.637 494.433 331.379C494.186 331.118 493.989 330.767 493.839 330.324C493.69 329.879 493.616 329.32 493.616 328.648C493.616 328.004 493.676 327.433 493.797 326.936C493.918 326.437 494.093 326.016 494.322 325.675C494.552 325.332 494.829 325.072 495.153 324.894C495.48 324.717 495.848 324.628 496.258 324.628C496.665 324.628 497.027 324.71 497.344 324.873C497.664 325.034 497.924 325.259 498.126 325.548C498.327 325.836 498.457 326.169 498.516 326.545H497.65C497.569 326.219 497.413 325.948 497.181 325.732C496.949 325.517 496.641 325.409 496.258 325.409C495.694 325.409 495.25 325.654 494.926 326.144C494.604 326.634 494.442 327.322 494.44 328.207H494.496C494.629 328.006 494.786 327.835 494.969 327.692C495.153 327.548 495.357 327.437 495.58 327.359C495.802 327.281 496.038 327.241 496.286 327.241C496.703 327.241 497.084 327.346 497.43 327.554C497.775 327.76 498.052 328.045 498.261 328.41C498.469 328.772 498.573 329.188 498.573 329.656C498.573 330.106 498.473 330.518 498.271 330.892C498.07 331.264 497.787 331.56 497.423 331.78C497.06 331.998 496.634 332.104 496.144 332.099ZM496.144 331.318C496.442 331.318 496.71 331.244 496.947 331.094C497.186 330.945 497.374 330.745 497.511 330.494C497.651 330.243 497.721 329.964 497.721 329.656C497.721 329.356 497.653 329.082 497.518 328.836C497.386 328.587 497.202 328.39 496.968 328.243C496.736 328.096 496.471 328.023 496.173 328.023C495.948 328.023 495.738 328.068 495.544 328.158C495.35 328.245 495.179 328.366 495.033 328.52C494.888 328.674 494.775 328.85 494.692 329.049C494.609 329.246 494.567 329.453 494.567 329.67C494.567 329.959 494.635 330.229 494.77 330.48C494.907 330.731 495.094 330.933 495.331 331.087C495.57 331.241 495.841 331.318 496.144 331.318ZM502.384 332.099C502.086 332.095 501.788 332.038 501.49 331.929C501.191 331.82 500.919 331.637 500.673 331.379C500.427 331.118 500.229 330.767 500.08 330.324C499.931 329.879 499.856 329.32 499.856 328.648C499.856 328.004 499.916 327.433 500.037 326.936C500.158 326.437 500.333 326.016 500.563 325.675C500.792 325.332 501.069 325.072 501.394 324.894C501.72 324.717 502.088 324.628 502.498 324.628C502.905 324.628 503.267 324.71 503.585 324.873C503.904 325.034 504.165 325.259 504.366 325.548C504.567 325.836 504.697 326.169 504.757 326.545H503.89C503.81 326.219 503.653 325.948 503.421 325.732C503.189 325.517 502.882 325.409 502.498 325.409C501.935 325.409 501.491 325.654 501.166 326.144C500.844 326.634 500.682 327.322 500.68 328.207H500.737C500.869 328.006 501.027 327.835 501.209 327.692C501.394 327.548 501.597 327.437 501.82 327.359C502.042 327.281 502.278 327.241 502.526 327.241C502.943 327.241 503.324 327.346 503.67 327.554C504.016 327.76 504.293 328.045 504.501 328.41C504.709 328.772 504.813 329.188 504.813 329.656C504.813 330.106 504.713 330.518 504.512 330.892C504.31 331.264 504.027 331.56 503.663 331.78C503.301 331.998 502.874 332.104 502.384 332.099ZM502.384 331.318C502.683 331.318 502.95 331.244 503.187 331.094C503.426 330.945 503.614 330.745 503.752 330.494C503.891 330.243 503.961 329.964 503.961 329.656C503.961 329.356 503.894 329.082 503.759 328.836C503.626 328.587 503.443 328.39 503.208 328.243C502.976 328.096 502.711 328.023 502.413 328.023C502.188 328.023 501.978 328.068 501.784 328.158C501.59 328.245 501.42 328.366 501.273 328.52C501.128 328.674 501.015 328.85 500.932 329.049C500.849 329.246 500.808 329.453 500.808 329.67C500.808 329.959 500.875 330.229 501.01 330.48C501.147 330.731 501.334 330.933 501.571 331.087C501.81 331.241 502.081 331.318 502.384 331.318ZM508.582 332.099C508.047 332.099 507.591 331.954 507.215 331.663C506.838 331.369 506.551 330.944 506.352 330.388C506.153 329.829 506.054 329.154 506.054 328.364C506.054 327.578 506.153 326.906 506.352 326.35C506.553 325.791 506.842 325.365 507.218 325.072C507.597 324.776 508.052 324.628 508.582 324.628C509.112 324.628 509.566 324.776 509.942 325.072C510.321 325.365 510.61 325.791 510.809 326.35C511.01 326.906 511.11 327.578 511.11 328.364C511.11 329.154 511.011 329.829 510.812 330.388C510.613 330.944 510.326 331.369 509.949 331.663C509.573 331.954 509.117 332.099 508.582 332.099ZM508.582 331.318C509.112 331.318 509.524 331.062 509.818 330.551C510.111 330.04 510.258 329.311 510.258 328.364C510.258 327.734 510.191 327.198 510.056 326.755C509.923 326.312 509.731 325.975 509.48 325.743C509.232 325.511 508.932 325.395 508.582 325.395C508.056 325.395 507.646 325.654 507.35 326.173C507.054 326.689 506.906 327.419 506.906 328.364C506.906 328.993 506.972 329.528 507.105 329.969C507.237 330.409 507.428 330.744 507.676 330.974C507.927 331.203 508.229 331.318 508.582 331.318ZM514.875 332.099C514.576 332.095 514.278 332.038 513.98 331.929C513.681 331.82 513.409 331.637 513.163 331.379C512.917 331.118 512.719 330.767 512.57 330.324C512.421 329.879 512.346 329.32 512.346 328.648C512.346 328.004 512.407 327.433 512.527 326.936C512.648 326.437 512.823 326.016 513.053 325.675C513.283 325.332 513.56 325.072 513.884 324.894C514.211 324.717 514.579 324.628 514.988 324.628C515.395 324.628 515.758 324.71 516.075 324.873C516.395 325.034 516.655 325.259 516.856 325.548C517.057 325.836 517.188 326.169 517.247 326.545H516.38C516.3 326.219 516.144 325.948 515.912 325.732C515.68 325.517 515.372 325.409 514.988 325.409C514.425 325.409 513.981 325.654 513.657 326.144C513.335 326.634 513.172 327.322 513.17 328.207H513.227C513.359 328.006 513.517 327.835 513.699 327.692C513.884 327.548 514.087 327.437 514.31 327.359C514.533 327.281 514.768 327.241 515.017 327.241C515.433 327.241 515.815 327.346 516.16 327.554C516.506 327.76 516.783 328.045 516.991 328.41C517.199 328.772 517.304 329.188 517.304 329.656C517.304 330.106 517.203 330.518 517.002 330.892C516.801 331.264 516.518 331.56 516.153 331.78C515.791 331.998 515.365 332.104 514.875 332.099ZM514.875 331.318C515.173 331.318 515.44 331.244 515.677 331.094C515.916 330.945 516.105 330.745 516.242 330.494C516.382 330.243 516.451 329.964 516.451 329.656C516.451 329.356 516.384 329.082 516.249 328.836C516.116 328.587 515.933 328.39 515.699 328.243C515.467 328.096 515.201 328.023 514.903 328.023C514.678 328.023 514.469 328.068 514.275 328.158C514.08 328.245 513.91 328.366 513.763 328.52C513.619 328.674 513.505 328.85 513.422 329.049C513.339 329.246 513.298 329.453 513.298 329.67C513.298 329.959 513.365 330.229 513.5 330.48C513.638 330.731 513.825 330.933 514.061 331.087C514.301 331.241 514.572 331.318 514.875 331.318ZM521.072 332.099C520.537 332.099 520.081 331.954 519.705 331.663C519.329 331.369 519.041 330.944 518.842 330.388C518.643 329.829 518.544 329.154 518.544 328.364C518.544 327.578 518.643 326.906 518.842 326.35C519.043 325.791 519.332 325.365 519.709 325.072C520.087 324.776 520.542 324.628 521.072 324.628C521.603 324.628 522.056 324.776 522.432 325.072C522.811 325.365 523.1 325.791 523.299 326.35C523.5 326.906 523.601 327.578 523.601 328.364C523.601 329.154 523.501 329.829 523.302 330.388C523.104 330.944 522.816 331.369 522.439 331.663C522.063 331.954 521.607 332.099 521.072 332.099ZM521.072 331.318C521.603 331.318 522.015 331.062 522.308 330.551C522.602 330.04 522.748 329.311 522.748 328.364C522.748 327.734 522.681 327.198 522.546 326.755C522.413 326.312 522.222 325.975 521.971 325.743C521.722 325.511 521.423 325.395 521.072 325.395C520.547 325.395 520.136 325.654 519.84 326.173C519.544 326.689 519.396 327.419 519.396 328.364C519.396 328.993 519.462 329.528 519.595 329.969C519.728 330.409 519.918 330.744 520.167 330.974C520.418 331.203 520.72 331.318 521.072 331.318Z" fill="#E66060"/>
<rect x="24" y="197" width="362" height="150" rx="20" fill="white"/>
<path d="M47.2528 334V333.361L49.6534 330.733C49.9351 330.425 50.1671 330.158 50.3494 329.93C50.5317 329.701 50.6667 329.485 50.7543 329.284C50.8442 329.08 50.8892 328.867 50.8892 328.645C50.8892 328.389 50.8277 328.168 50.7045 327.981C50.5838 327.794 50.4181 327.649 50.2074 327.548C49.9967 327.446 49.7599 327.395 49.4972 327.395C49.2178 327.395 48.974 327.453 48.7656 327.569C48.5597 327.683 48.3999 327.842 48.2862 328.048C48.175 328.254 48.1193 328.496 48.1193 328.773H47.2812C47.2812 328.347 47.3795 327.973 47.576 327.651C47.7725 327.329 48.04 327.078 48.3786 326.898C48.7195 326.718 49.1018 326.628 49.5256 326.628C49.9517 326.628 50.3293 326.718 50.6584 326.898C50.9875 327.078 51.2455 327.32 51.4325 327.626C51.6196 327.931 51.7131 328.271 51.7131 328.645C51.7131 328.912 51.6645 329.174 51.5675 329.43C51.4728 329.683 51.3071 329.966 51.0703 330.278C50.8359 330.589 50.5104 330.967 50.0938 331.415L48.4602 333.162V333.219H51.8409V334H47.2528ZM52.9808 332.509V331.784L56.1768 326.727H56.7024V327.849H56.3473L53.9325 331.67V331.727H58.2365V332.509H52.9808ZM56.4041 334V332.288V331.951V326.727H57.2422V334H56.4041ZM59.5673 334V333.361L61.9679 330.733C62.2496 330.425 62.4816 330.158 62.6639 329.93C62.8462 329.701 62.9811 329.485 63.0687 329.284C63.1587 329.08 63.2037 328.867 63.2037 328.645C63.2037 328.389 63.1421 328.168 63.019 327.981C62.8983 327.794 62.7325 327.649 62.5218 327.548C62.3111 327.446 62.0744 327.395 61.8116 327.395C61.5323 327.395 61.2884 327.453 61.0801 327.569C60.8741 327.683 60.7143 327.842 60.6007 328.048C60.4894 328.254 60.4338 328.496 60.4338 328.773H59.5957C59.5957 328.347 59.694 327.973 59.8904 327.651C60.0869 327.329 60.3545 327.078 60.693 326.898C61.0339 326.718 61.4163 326.628 61.84 326.628C62.2662 326.628 62.6438 326.718 62.9728 326.898C63.3019 327.078 63.56 327.32 63.747 327.626C63.934 327.931 64.0275 328.271 64.0275 328.645C64.0275 328.912 63.979 329.174 63.8819 329.43C63.7872 329.683 63.6215 329.966 63.3848 330.278C63.1504 330.589 62.8249 330.967 62.4082 331.415L60.7747 333.162V333.219H64.1554V334H59.5673ZM65.8493 334L69.1021 327.565V327.509H65.3521V326.727H70.0112V327.551L66.7725 334H65.8493ZM71.3349 334V333.361L73.7354 330.733C74.0172 330.425 74.2492 330.158 74.4315 329.93C74.6138 329.701 74.7487 329.485 74.8363 329.284C74.9263 329.08 74.9712 328.867 74.9712 328.645C74.9712 328.389 74.9097 328.168 74.7866 327.981C74.6658 327.794 74.5001 327.649 74.2894 327.548C74.0787 327.446 73.842 327.395 73.5792 327.395C73.2998 327.395 73.056 327.453 72.8477 327.569C72.6417 327.683 72.4819 327.842 72.3683 328.048C72.257 328.254 72.2013 328.496 72.2013 328.773H71.3633C71.3633 328.347 71.4615 327.973 71.658 327.651C71.8545 327.329 72.122 327.078 72.4606 326.898C72.8015 326.718 73.1838 326.628 73.6076 326.628C74.0337 326.628 74.4113 326.718 74.7404 326.898C75.0695 327.078 75.3275 327.32 75.5146 327.626C75.7016 327.931 75.7951 328.271 75.7951 328.645C75.7951 328.912 75.7466 329.174 75.6495 329.43C75.5548 329.683 75.3891 329.966 75.1523 330.278C74.918 330.589 74.5924 330.967 74.1758 331.415L72.5423 333.162V333.219H75.9229V334H71.3349ZM77.5174 334V326.727H80.06C80.5666 326.727 80.9845 326.815 81.3136 326.99C81.6426 327.163 81.8877 327.396 82.0487 327.69C82.2096 327.981 82.2901 328.304 82.2901 328.659C82.2901 328.972 82.2345 329.23 82.1232 329.433C82.0143 329.637 81.8699 329.798 81.69 329.916C81.5124 330.035 81.3195 330.122 81.1112 330.179V330.25C81.3337 330.264 81.5574 330.342 81.7823 330.484C82.0072 330.626 82.1954 330.83 82.3469 331.095C82.4985 331.36 82.5742 331.685 82.5742 332.068C82.5742 332.433 82.4914 332.761 82.3256 333.052C82.1599 333.343 81.8983 333.574 81.5408 333.744C81.1834 333.915 80.7182 334 80.1452 334H77.5174ZM78.3981 333.219H80.1452C80.7205 333.219 81.1289 333.107 81.3704 332.885C81.6142 332.66 81.7362 332.388 81.7362 332.068C81.7362 331.822 81.6734 331.595 81.5479 331.386C81.4225 331.176 81.2437 331.008 81.0117 330.882C80.7797 330.754 80.5051 330.69 80.1879 330.69H78.3981V333.219ZM78.3981 329.923H80.0316C80.2968 329.923 80.5359 329.871 80.7489 329.767C80.9644 329.663 81.1348 329.516 81.2603 329.327C81.3881 329.137 81.4521 328.915 81.4521 328.659C81.4521 328.339 81.3408 328.068 81.1183 327.846C80.8957 327.621 80.543 327.509 80.06 327.509H78.3981V329.923Z" fill="#24272B"/>
<rect x="45" y="316" width="100" height="40" rx="20" transform="rotate(-90 45 316)" fill="#24272B"/>
<path d="M103.253 334V333.361L105.653 330.733C105.935 330.425 106.167 330.158 106.349 329.93C106.532 329.701 106.667 329.485 106.754 329.284C106.844 329.08 106.889 328.867 106.889 328.645C106.889 328.389 106.828 328.168 106.705 327.981C106.584 327.794 106.418 327.649 106.207 327.548C105.997 327.446 105.76 327.395 105.497 327.395C105.218 327.395 104.974 327.453 104.766 327.569C104.56 327.683 104.4 327.842 104.286 328.048C104.175 328.254 104.119 328.496 104.119 328.773H103.281C103.281 328.347 103.379 327.973 103.576 327.651C103.772 327.329 104.04 327.078 104.379 326.898C104.719 326.718 105.102 326.628 105.526 326.628C105.952 326.628 106.329 326.718 106.658 326.898C106.987 327.078 107.246 327.32 107.433 327.626C107.62 327.931 107.713 328.271 107.713 328.645C107.713 328.912 107.665 329.174 107.567 329.43C107.473 329.683 107.307 329.966 107.07 330.278C106.836 330.589 106.51 330.967 106.094 331.415L104.46 333.162V333.219H107.841V334H103.253ZM109.435 334V326.727H113.825V327.509H110.316V329.966H113.597V330.747H110.316V333.219H113.881V334H109.435ZM117.741 334.099C117.273 334.099 116.855 334.019 116.488 333.858C116.123 333.697 115.833 333.473 115.618 333.187C115.405 332.898 115.289 332.563 115.27 332.182H116.165C116.184 332.416 116.264 332.619 116.406 332.789C116.548 332.957 116.734 333.087 116.964 333.18C117.193 333.272 117.448 333.318 117.727 333.318C118.04 333.318 118.317 333.264 118.558 333.155C118.8 333.046 118.989 332.894 119.126 332.7C119.264 332.506 119.332 332.281 119.332 332.026C119.332 331.758 119.266 331.522 119.134 331.319C119.001 331.113 118.807 330.952 118.551 330.836C118.295 330.72 117.983 330.662 117.614 330.662H117.031V329.881H117.614C117.902 329.881 118.156 329.829 118.374 329.724C118.594 329.62 118.765 329.473 118.888 329.284C119.014 329.095 119.077 328.872 119.077 328.616C119.077 328.37 119.022 328.156 118.913 327.974C118.804 327.791 118.651 327.649 118.452 327.548C118.255 327.446 118.023 327.395 117.756 327.395C117.505 327.395 117.268 327.441 117.045 327.533C116.825 327.623 116.645 327.755 116.506 327.928C116.366 328.098 116.29 328.304 116.278 328.545H115.426C115.44 328.164 115.555 327.83 115.771 327.544C115.986 327.255 116.268 327.03 116.616 326.869C116.966 326.708 117.351 326.628 117.77 326.628C118.22 326.628 118.606 326.719 118.928 326.901C119.25 327.081 119.497 327.319 119.67 327.615C119.843 327.911 119.929 328.231 119.929 328.574C119.929 328.983 119.821 329.333 119.606 329.621C119.393 329.91 119.103 330.11 118.736 330.222V330.278C119.195 330.354 119.554 330.549 119.812 330.864C120.07 331.177 120.199 331.564 120.199 332.026C120.199 332.421 120.091 332.776 119.876 333.091C119.663 333.403 119.371 333.65 119.002 333.83C118.633 334.009 118.213 334.099 117.741 334.099ZM121.651 334V333.361L124.052 330.733C124.334 330.425 124.566 330.158 124.748 329.93C124.93 329.701 125.065 329.485 125.153 329.284C125.243 329.08 125.288 328.867 125.288 328.645C125.288 328.389 125.226 328.168 125.103 327.981C124.982 327.794 124.817 327.649 124.606 327.548C124.395 327.446 124.158 327.395 123.896 327.395C123.616 327.395 123.372 327.453 123.164 327.569C122.958 327.683 122.798 327.842 122.685 328.048C122.573 328.254 122.518 328.496 122.518 328.773H121.68C121.68 328.347 121.778 327.973 121.974 327.651C122.171 327.329 122.438 327.078 122.777 326.898C123.118 326.718 123.5 326.628 123.924 326.628C124.35 326.628 124.728 326.718 125.057 326.898C125.386 327.078 125.644 327.32 125.831 327.626C126.018 327.931 126.112 328.271 126.112 328.645C126.112 328.912 126.063 329.174 125.966 329.43C125.871 329.683 125.705 329.966 125.469 330.278C125.234 330.589 124.909 330.967 124.492 331.415L122.859 333.162V333.219H126.239V334H121.651ZM130.163 334.099C129.695 334.099 129.277 334.019 128.91 333.858C128.545 333.697 128.255 333.473 128.04 333.187C127.827 332.898 127.711 332.563 127.692 332.182H128.587C128.606 332.416 128.686 332.619 128.828 332.789C128.97 332.957 129.156 333.087 129.386 333.18C129.615 333.272 129.87 333.318 130.149 333.318C130.462 333.318 130.739 333.264 130.98 333.155C131.222 333.046 131.411 332.894 131.548 332.7C131.686 332.506 131.754 332.281 131.754 332.026C131.754 331.758 131.688 331.522 131.555 331.319C131.423 331.113 131.229 330.952 130.973 330.836C130.717 330.72 130.405 330.662 130.036 330.662H129.453V329.881H130.036C130.324 329.881 130.578 329.829 130.795 329.724C131.016 329.62 131.187 329.473 131.31 329.284C131.436 329.095 131.499 328.872 131.499 328.616C131.499 328.37 131.444 328.156 131.335 327.974C131.226 327.791 131.072 327.649 130.874 327.548C130.677 327.446 130.445 327.395 130.178 327.395C129.927 327.395 129.69 327.441 129.467 327.533C129.247 327.623 129.067 327.755 128.928 327.928C128.788 328.098 128.712 328.304 128.7 328.545H127.848C127.862 328.164 127.977 327.83 128.192 327.544C128.408 327.255 128.69 327.03 129.038 326.869C129.388 326.708 129.773 326.628 130.192 326.628C130.642 326.628 131.027 326.719 131.349 326.901C131.671 327.081 131.919 327.319 132.092 327.615C132.264 327.911 132.351 328.231 132.351 328.574C132.351 328.983 132.243 329.333 132.028 329.621C131.815 329.91 131.525 330.11 131.158 330.222V330.278C131.617 330.354 131.976 330.549 132.234 330.864C132.492 331.177 132.621 331.564 132.621 332.026C132.621 332.421 132.513 332.776 132.298 333.091C132.085 333.403 131.793 333.65 131.424 333.83C131.055 334.009 130.634 334.099 130.163 334.099ZM136.403 334.099C135.915 334.099 135.484 334.013 135.11 333.84C134.738 333.665 134.448 333.425 134.24 333.119C134.032 332.812 133.929 332.461 133.931 332.068C133.929 331.76 133.989 331.476 134.112 331.216C134.235 330.953 134.403 330.734 134.616 330.559C134.832 330.381 135.072 330.269 135.337 330.222V330.179C134.989 330.089 134.712 329.894 134.506 329.593C134.3 329.29 134.199 328.946 134.201 328.56C134.199 328.19 134.292 327.86 134.482 327.569C134.671 327.278 134.931 327.048 135.263 326.88C135.597 326.712 135.977 326.628 136.403 326.628C136.824 326.628 137.201 326.712 137.532 326.88C137.863 327.048 138.124 327.278 138.313 327.569C138.505 327.86 138.602 328.19 138.604 328.56C138.602 328.946 138.497 329.29 138.288 329.593C138.082 329.894 137.809 330.089 137.468 330.179V330.222C137.731 330.269 137.968 330.381 138.178 330.559C138.389 330.734 138.557 330.953 138.683 331.216C138.808 331.476 138.872 331.76 138.874 332.068C138.872 332.461 138.765 332.812 138.555 333.119C138.346 333.425 138.056 333.665 137.685 333.84C137.315 334.013 136.888 334.099 136.403 334.099ZM136.403 333.318C136.732 333.318 137.016 333.265 137.255 333.158C137.494 333.052 137.679 332.902 137.809 332.707C137.939 332.513 138.005 332.286 138.008 332.026C138.005 331.751 137.934 331.508 137.795 331.298C137.655 331.087 137.464 330.921 137.223 330.8C136.984 330.68 136.71 330.619 136.403 330.619C136.093 330.619 135.816 330.68 135.572 330.8C135.33 330.921 135.14 331.087 135 331.298C134.863 331.508 134.795 331.751 134.798 332.026C134.795 332.286 134.858 332.513 134.986 332.707C135.116 332.902 135.302 333.052 135.543 333.158C135.785 333.265 136.071 333.318 136.403 333.318ZM136.403 329.866C136.663 329.866 136.894 329.814 137.095 329.71C137.299 329.606 137.459 329.46 137.575 329.273C137.691 329.086 137.75 328.867 137.752 328.616C137.75 328.37 137.692 328.156 137.578 327.974C137.464 327.789 137.307 327.647 137.106 327.548C136.905 327.446 136.67 327.395 136.403 327.395C136.13 327.395 135.893 327.446 135.689 327.548C135.485 327.647 135.328 327.789 135.217 327.974C135.105 328.156 135.051 328.37 135.053 328.616C135.051 328.867 135.107 329.086 135.22 329.273C135.336 329.46 135.496 329.606 135.7 329.71C135.903 329.814 136.138 329.866 136.403 329.866Z" fill="#2E3238"/>
<rect x="101" y="316" width="100" height="40" rx="20" transform="rotate(-90 101 316)" fill="#2E3238"/>
<path d="M161.21 334.099C160.741 334.099 160.324 334.019 159.957 333.858C159.592 333.697 159.302 333.473 159.087 333.187C158.874 332.898 158.758 332.563 158.739 332.182H159.634C159.652 332.416 159.733 332.619 159.875 332.789C160.017 332.957 160.203 333.087 160.433 333.18C160.662 333.272 160.917 333.318 161.196 333.318C161.509 333.318 161.786 333.264 162.027 333.155C162.268 333.046 162.458 332.894 162.595 332.7C162.732 332.506 162.801 332.281 162.801 332.026C162.801 331.758 162.735 331.522 162.602 331.319C162.47 331.113 162.276 330.952 162.02 330.836C161.764 330.72 161.452 330.662 161.082 330.662H160.5V329.881H161.082C161.371 329.881 161.625 329.829 161.842 329.724C162.063 329.62 162.234 329.473 162.357 329.284C162.483 329.095 162.545 328.872 162.545 328.616C162.545 328.37 162.491 328.156 162.382 327.974C162.273 327.791 162.119 327.649 161.92 327.548C161.724 327.446 161.492 327.395 161.224 327.395C160.973 327.395 160.737 327.441 160.514 327.533C160.294 327.623 160.114 327.755 159.974 327.928C159.835 328.098 159.759 328.304 159.747 328.545H158.895C158.909 328.164 159.024 327.83 159.239 327.544C159.455 327.255 159.737 327.03 160.085 326.869C160.435 326.708 160.82 326.628 161.239 326.628C161.688 326.628 162.074 326.719 162.396 326.901C162.718 327.081 162.966 327.319 163.138 327.615C163.311 327.911 163.398 328.231 163.398 328.574C163.398 328.983 163.29 329.333 163.075 329.621C162.862 329.91 162.571 330.11 162.205 330.222V330.278C162.664 330.354 163.022 330.549 163.281 330.864C163.539 331.177 163.668 331.564 163.668 332.026C163.668 332.421 163.56 332.776 163.344 333.091C163.131 333.403 162.84 333.65 162.471 333.83C162.102 334.009 161.681 334.099 161.21 334.099ZM165.347 334L168.6 327.565V327.509H164.85V326.727H169.509V327.551L166.271 334H165.347ZM173.124 334.099C172.656 334.099 172.238 334.019 171.871 333.858C171.506 333.697 171.216 333.473 171.001 333.187C170.788 332.898 170.672 332.563 170.653 332.182H171.548C171.567 332.416 171.647 332.619 171.789 332.789C171.931 332.957 172.117 333.087 172.347 333.18C172.576 333.272 172.831 333.318 173.11 333.318C173.423 333.318 173.7 333.264 173.941 333.155C174.183 333.046 174.372 332.894 174.509 332.7C174.647 332.506 174.715 332.281 174.715 332.026C174.715 331.758 174.649 331.522 174.516 331.319C174.384 331.113 174.19 330.952 173.934 330.836C173.678 330.72 173.366 330.662 172.996 330.662H172.414V329.881H172.996C173.285 329.881 173.539 329.829 173.756 329.724C173.977 329.62 174.148 329.473 174.271 329.284C174.397 329.095 174.46 328.872 174.46 328.616C174.46 328.37 174.405 328.156 174.296 327.974C174.187 327.791 174.033 327.649 173.835 327.548C173.638 327.446 173.406 327.395 173.138 327.395C172.888 327.395 172.651 327.441 172.428 327.533C172.208 327.623 172.028 327.755 171.888 327.928C171.749 328.098 171.673 328.304 171.661 328.545H170.809C170.823 328.164 170.938 327.83 171.153 327.544C171.369 327.255 171.651 327.03 171.999 326.869C172.349 326.708 172.734 326.628 173.153 326.628C173.603 326.628 173.988 326.719 174.31 326.901C174.632 327.081 174.88 327.319 175.053 327.615C175.225 327.911 175.312 328.231 175.312 328.574C175.312 328.983 175.204 329.333 174.989 329.621C174.776 329.91 174.486 330.11 174.119 330.222V330.278C174.578 330.354 174.937 330.549 175.195 330.864C175.453 331.177 175.582 331.564 175.582 332.026C175.582 332.421 175.474 332.776 175.259 333.091C175.045 333.403 174.754 333.65 174.385 333.83C174.016 334.009 173.595 334.099 173.124 334.099ZM177.162 334V326.727H179.705C180.211 326.727 180.629 326.815 180.958 326.99C181.287 327.163 181.532 327.396 181.693 327.69C181.854 327.981 181.935 328.304 181.935 328.659C181.935 328.972 181.879 329.23 181.768 329.433C181.659 329.637 181.514 329.798 181.335 329.916C181.157 330.035 180.964 330.122 180.756 330.179V330.25C180.978 330.264 181.202 330.342 181.427 330.484C181.652 330.626 181.84 330.83 181.991 331.095C182.143 331.36 182.219 331.685 182.219 332.068C182.219 332.433 182.136 332.761 181.97 333.052C181.804 333.343 181.543 333.574 181.185 333.744C180.828 333.915 180.363 334 179.79 334H177.162ZM178.043 333.219H179.79C180.365 333.219 180.773 333.107 181.015 332.885C181.259 332.66 181.381 332.388 181.381 332.068C181.381 331.822 181.318 331.595 181.192 331.386C181.067 331.176 180.888 331.008 180.656 330.882C180.424 330.754 180.15 330.69 179.832 330.69H178.043V333.219ZM178.043 329.923H179.676C179.941 329.923 180.18 329.871 180.393 329.767C180.609 329.663 180.779 329.516 180.905 329.327C181.033 329.137 181.097 328.915 181.097 328.659C181.097 328.339 180.985 328.068 180.763 327.846C180.54 327.621 180.188 327.509 179.705 327.509H178.043V329.923ZM183.368 332.509V331.784L186.564 326.727H187.089V327.849H186.734L184.319 331.67V331.727H188.623V332.509H183.368ZM186.791 334V332.288V331.951V326.727H187.629V334H186.791ZM189.954 334V333.361L192.355 330.733C192.636 330.425 192.868 330.158 193.051 329.93C193.233 329.701 193.368 329.485 193.455 329.284C193.545 329.08 193.59 328.867 193.59 328.645C193.59 328.389 193.529 328.168 193.406 327.981C193.285 327.794 193.119 327.649 192.909 327.548C192.698 327.446 192.461 327.395 192.198 327.395C191.919 327.395 191.675 327.453 191.467 327.569C191.261 327.683 191.101 327.842 190.987 328.048C190.876 328.254 190.82 328.496 190.82 328.773H189.982C189.982 328.347 190.081 327.973 190.277 327.651C190.474 327.329 190.741 327.078 191.08 326.898C191.421 326.718 191.803 326.628 192.227 326.628C192.653 326.628 193.03 326.718 193.36 326.898C193.689 327.078 193.947 327.32 194.134 327.626C194.321 327.931 194.414 328.271 194.414 328.645C194.414 328.912 194.366 329.174 194.269 329.43C194.174 329.683 194.008 329.966 193.771 330.278C193.537 330.589 193.212 330.967 192.795 331.415L191.161 333.162V333.219H194.542V334H189.954Z" fill="#373B42"/>
<rect x="157" y="316" width="100" height="40" rx="20" transform="rotate(-90 157 316)" fill="#373B42"/>
<path d="M214.582 332.509V331.784L217.778 326.727H218.304V327.849H217.949L215.534 331.67V331.727H219.838V332.509H214.582ZM218.006 334V332.288V331.951V326.727H218.844V334H218.006ZM223.626 334.099C223.157 334.099 222.74 334.019 222.373 333.858C222.008 333.697 221.718 333.473 221.503 333.187C221.29 332.898 221.174 332.563 221.155 332.182H222.05C222.068 332.416 222.149 332.619 222.291 332.789C222.433 332.957 222.619 333.087 222.849 333.18C223.078 333.272 223.333 333.318 223.612 333.318C223.925 333.318 224.202 333.264 224.443 333.155C224.684 333.046 224.874 332.894 225.011 332.7C225.148 332.506 225.217 332.281 225.217 332.026C225.217 331.758 225.151 331.522 225.018 331.319C224.886 331.113 224.692 330.952 224.436 330.836C224.18 330.72 223.868 330.662 223.498 330.662H222.916V329.881H223.498C223.787 329.881 224.041 329.829 224.258 329.724C224.479 329.62 224.65 329.473 224.773 329.284C224.899 329.095 224.961 328.872 224.961 328.616C224.961 328.37 224.907 328.156 224.798 327.974C224.689 327.791 224.535 327.649 224.336 327.548C224.14 327.446 223.908 327.395 223.64 327.395C223.39 327.395 223.153 327.441 222.93 327.533C222.71 327.623 222.53 327.755 222.39 327.928C222.251 328.098 222.175 328.304 222.163 328.545H221.311C221.325 328.164 221.44 327.83 221.655 327.544C221.871 327.255 222.153 327.03 222.501 326.869C222.851 326.708 223.236 326.628 223.655 326.628C224.104 326.628 224.49 326.719 224.812 326.901C225.134 327.081 225.382 327.319 225.555 327.615C225.727 327.911 225.814 328.231 225.814 328.574C225.814 328.983 225.706 329.333 225.491 329.621C225.278 329.91 224.988 330.11 224.621 330.222V330.278C225.08 330.354 225.439 330.549 225.697 330.864C225.955 331.177 226.084 331.564 226.084 332.026C226.084 332.421 225.976 332.776 225.76 333.091C225.547 333.403 225.256 333.65 224.887 333.83C224.518 334.009 224.097 334.099 223.626 334.099ZM227.366 332.509V331.784L230.562 326.727H231.087V327.849H230.732L228.317 331.67V331.727H232.621V332.509H227.366ZM230.789 334V332.288V331.951V326.727H231.627V334H230.789ZM236.267 326.628C236.566 326.63 236.864 326.687 237.162 326.798C237.461 326.91 237.733 327.094 237.979 327.352C238.225 327.608 238.423 327.957 238.572 328.4C238.721 328.843 238.796 329.398 238.796 330.065C238.796 330.712 238.734 331.286 238.611 331.788C238.49 332.287 238.315 332.709 238.086 333.052C237.858 333.395 237.581 333.656 237.255 333.833C236.93 334.011 236.563 334.099 236.154 334.099C235.747 334.099 235.383 334.019 235.064 333.858C234.746 333.695 234.486 333.469 234.282 333.18C234.081 332.888 233.952 332.551 233.895 332.168H234.762C234.84 332.501 234.995 332.777 235.227 332.995C235.461 333.21 235.77 333.318 236.154 333.318C236.715 333.318 237.158 333.073 237.482 332.583C237.809 332.093 237.972 331.401 237.972 330.506H237.915C237.783 330.705 237.625 330.876 237.443 331.021C237.261 331.165 237.058 331.276 236.836 331.354C236.613 331.433 236.376 331.472 236.125 331.472C235.709 331.472 235.326 331.369 234.978 331.163C234.633 330.954 234.356 330.669 234.147 330.307C233.941 329.942 233.838 329.526 233.838 329.057C233.838 328.612 233.938 328.205 234.137 327.835C234.338 327.464 234.62 327.168 234.982 326.947C235.346 326.727 235.775 326.621 236.267 326.628ZM236.267 327.409C235.969 327.409 235.7 327.484 235.461 327.633C235.225 327.78 235.036 327.978 234.897 328.229C234.759 328.478 234.691 328.754 234.691 329.057C234.691 329.36 234.757 329.636 234.89 329.884C235.025 330.13 235.208 330.327 235.44 330.474C235.674 330.618 235.941 330.69 236.239 330.69C236.464 330.69 236.673 330.647 236.868 330.559C237.062 330.469 237.231 330.347 237.375 330.193C237.522 330.037 237.637 329.861 237.72 329.664C237.803 329.465 237.844 329.258 237.844 329.043C237.844 328.759 237.775 328.492 237.638 328.244C237.503 327.995 237.316 327.794 237.077 327.64C236.84 327.486 236.57 327.409 236.267 327.409ZM242.465 334.099C242.048 334.099 241.673 334.017 241.339 333.851C241.006 333.685 240.738 333.458 240.537 333.169C240.336 332.88 240.225 332.551 240.206 332.182H241.059C241.092 332.511 241.241 332.783 241.506 332.999C241.774 333.212 242.093 333.318 242.465 333.318C242.763 333.318 243.028 333.248 243.26 333.109C243.495 332.969 243.678 332.777 243.811 332.533C243.946 332.287 244.013 332.009 244.013 331.699C244.013 331.382 243.943 331.099 243.804 330.85C243.666 330.599 243.477 330.402 243.236 330.257C242.994 330.113 242.718 330.039 242.408 330.037C242.186 330.035 241.957 330.069 241.723 330.14C241.488 330.209 241.296 330.297 241.144 330.406L240.32 330.307L240.76 326.727H244.539V327.509H241.499L241.243 329.653H241.286C241.435 329.535 241.622 329.437 241.847 329.359C242.072 329.281 242.306 329.241 242.55 329.241C242.995 329.241 243.392 329.348 243.74 329.561C244.09 329.772 244.365 330.061 244.564 330.428C244.765 330.795 244.866 331.214 244.866 331.685C244.866 332.149 244.761 332.563 244.553 332.928C244.347 333.29 244.063 333.576 243.701 333.787C243.339 333.995 242.927 334.099 242.465 334.099ZM246.276 334V333.361L248.677 330.733C248.959 330.425 249.191 330.158 249.373 329.93C249.555 329.701 249.69 329.485 249.778 329.284C249.868 329.08 249.913 328.867 249.913 328.645C249.913 328.389 249.851 328.168 249.728 327.981C249.607 327.794 249.442 327.649 249.231 327.548C249.02 327.446 248.783 327.395 248.521 327.395C248.241 327.395 247.997 327.453 247.789 327.569C247.583 327.683 247.423 327.842 247.31 328.048C247.198 328.254 247.143 328.496 247.143 328.773H246.305C246.305 328.347 246.403 327.973 246.599 327.651C246.796 327.329 247.063 327.078 247.402 326.898C247.743 326.718 248.125 326.628 248.549 326.628C248.975 326.628 249.353 326.718 249.682 326.898C250.011 327.078 250.269 327.32 250.456 327.626C250.643 327.931 250.737 328.271 250.737 328.645C250.737 328.912 250.688 329.174 250.591 329.43C250.496 329.683 250.33 329.966 250.094 330.278C249.859 330.589 249.534 330.967 249.117 331.415L247.484 333.162V333.219H250.864V334H246.276Z" fill="#434952"/>
<rect x="213" y="316" width="100" height="40" rx="20" transform="rotate(-90 213 316)" fill="#434952"/>
<path d="M273.026 334.099C272.609 334.099 272.234 334.017 271.9 333.851C271.566 333.685 271.299 333.458 271.097 333.169C270.896 332.88 270.786 332.551 270.767 332.182H271.619C271.652 332.511 271.802 332.783 272.067 332.999C272.334 333.212 272.654 333.318 273.026 333.318C273.324 333.318 273.589 333.248 273.821 333.109C274.055 332.969 274.239 332.777 274.371 332.533C274.506 332.287 274.574 332.009 274.574 331.699C274.574 331.382 274.504 331.099 274.364 330.85C274.227 330.599 274.038 330.402 273.796 330.257C273.555 330.113 273.279 330.039 272.969 330.037C272.746 330.035 272.518 330.069 272.283 330.14C272.049 330.209 271.856 330.297 271.705 330.406L270.881 330.307L271.321 326.727H275.099V327.509H272.06L271.804 329.653H271.847C271.996 329.535 272.183 329.437 272.408 329.359C272.633 329.281 272.867 329.241 273.111 329.241C273.556 329.241 273.952 329.348 274.3 329.561C274.651 329.772 274.925 330.061 275.124 330.428C275.326 330.795 275.426 331.214 275.426 331.685C275.426 332.149 275.322 332.563 275.114 332.928C274.908 333.29 274.624 333.576 274.261 333.787C273.899 333.995 273.487 334.099 273.026 334.099ZM276.965 334V326.727H279.507C280.014 326.727 280.432 326.815 280.761 326.99C281.09 327.163 281.335 327.396 281.496 327.69C281.657 327.981 281.737 328.304 281.737 328.659C281.737 328.972 281.682 329.23 281.57 329.433C281.462 329.637 281.317 329.798 281.137 329.916C280.96 330.035 280.767 330.122 280.558 330.179V330.25C280.781 330.264 281.005 330.342 281.23 330.484C281.454 330.626 281.643 330.83 281.794 331.095C281.946 331.36 282.021 331.685 282.021 332.068C282.021 332.433 281.939 332.761 281.773 333.052C281.607 333.343 281.346 333.574 280.988 333.744C280.631 333.915 280.165 334 279.593 334H276.965ZM277.845 333.219H279.593C280.168 333.219 280.576 333.107 280.818 332.885C281.061 332.66 281.183 332.388 281.183 332.068C281.183 331.822 281.121 331.595 280.995 331.386C280.87 331.176 280.691 331.008 280.459 330.882C280.227 330.754 279.952 330.69 279.635 330.69H277.845V333.219ZM277.845 329.923H279.479C279.744 329.923 279.983 329.871 280.196 329.767C280.412 329.663 280.582 329.516 280.708 329.327C280.835 329.137 280.899 328.915 280.899 328.659C280.899 328.339 280.788 328.068 280.566 327.846C280.343 327.621 279.99 327.509 279.507 327.509H277.845V329.923ZM285.756 334.099C285.457 334.095 285.159 334.038 284.861 333.929C284.562 333.82 284.29 333.637 284.044 333.379C283.798 333.118 283.6 332.767 283.451 332.324C283.302 331.879 283.227 331.32 283.227 330.648C283.227 330.004 283.287 329.433 283.408 328.936C283.529 328.437 283.704 328.016 283.934 327.675C284.163 327.332 284.44 327.072 284.765 326.894C285.091 326.717 285.46 326.628 285.869 326.628C286.276 326.628 286.639 326.71 286.956 326.873C287.275 327.034 287.536 327.259 287.737 327.548C287.938 327.836 288.068 328.169 288.128 328.545H287.261C287.181 328.219 287.024 327.948 286.792 327.732C286.56 327.517 286.253 327.409 285.869 327.409C285.306 327.409 284.862 327.654 284.537 328.144C284.215 328.634 284.053 329.322 284.051 330.207H284.108C284.24 330.006 284.398 329.835 284.58 329.692C284.765 329.548 284.968 329.437 285.191 329.359C285.413 329.281 285.649 329.241 285.898 329.241C286.314 329.241 286.695 329.346 287.041 329.554C287.387 329.76 287.664 330.045 287.872 330.41C288.08 330.772 288.184 331.188 288.184 331.656C288.184 332.106 288.084 332.518 287.883 332.892C287.681 333.264 287.398 333.56 287.034 333.78C286.672 333.998 286.246 334.104 285.756 334.099ZM285.756 333.318C286.054 333.318 286.321 333.244 286.558 333.094C286.797 332.945 286.985 332.745 287.123 332.494C287.262 332.243 287.332 331.964 287.332 331.656C287.332 331.356 287.265 331.082 287.13 330.836C286.997 330.587 286.814 330.39 286.579 330.243C286.347 330.096 286.082 330.023 285.784 330.023C285.559 330.023 285.349 330.068 285.155 330.158C284.961 330.245 284.791 330.366 284.644 330.52C284.5 330.674 284.386 330.85 284.303 331.049C284.22 331.246 284.179 331.453 284.179 331.67C284.179 331.959 284.246 332.229 284.381 332.48C284.519 332.731 284.706 332.933 284.942 333.087C285.181 333.241 285.452 333.318 285.756 333.318ZM291.896 326.628C292.195 326.63 292.493 326.687 292.791 326.798C293.089 326.91 293.362 327.094 293.608 327.352C293.854 327.608 294.052 327.957 294.201 328.4C294.35 328.843 294.425 329.398 294.425 330.065C294.425 330.712 294.363 331.286 294.24 331.788C294.119 332.287 293.944 332.709 293.714 333.052C293.487 333.395 293.21 333.656 292.884 333.833C292.559 334.011 292.192 334.099 291.783 334.099C291.375 334.099 291.012 334.019 290.692 333.858C290.375 333.695 290.115 333.469 289.911 333.18C289.71 332.888 289.581 332.551 289.524 332.168H290.391C290.469 332.501 290.624 332.777 290.856 332.995C291.09 333.21 291.399 333.318 291.783 333.318C292.344 333.318 292.786 333.073 293.111 332.583C293.438 332.093 293.601 331.401 293.601 330.506H293.544C293.411 330.705 293.254 330.876 293.072 331.021C292.889 331.165 292.687 331.276 292.464 331.354C292.242 331.433 292.005 331.472 291.754 331.472C291.338 331.472 290.955 331.369 290.607 331.163C290.262 330.954 289.985 330.669 289.776 330.307C289.57 329.942 289.467 329.526 289.467 329.057C289.467 328.612 289.567 328.205 289.766 327.835C289.967 327.464 290.249 327.168 290.611 326.947C290.975 326.727 291.404 326.621 291.896 326.628ZM291.896 327.409C291.598 327.409 291.329 327.484 291.09 327.633C290.853 327.78 290.665 327.978 290.526 328.229C290.388 328.478 290.32 328.754 290.32 329.057C290.32 329.36 290.386 329.636 290.518 329.884C290.653 330.13 290.837 330.327 291.069 330.474C291.303 330.618 291.57 330.69 291.868 330.69C292.093 330.69 292.302 330.647 292.496 330.559C292.691 330.469 292.86 330.347 293.004 330.193C293.151 330.037 293.266 329.861 293.349 329.664C293.432 329.465 293.473 329.258 293.473 329.043C293.473 328.759 293.404 328.492 293.267 328.244C293.132 327.995 292.945 327.794 292.706 327.64C292.469 327.486 292.199 327.409 291.896 327.409ZM295.853 334L299.106 327.565V327.509H295.356V326.727H300.015V327.551L296.776 334H295.853ZM307.319 329H306.438C306.386 328.747 306.295 328.524 306.165 328.332C306.037 328.141 305.881 327.98 305.696 327.849C305.514 327.717 305.311 327.617 305.089 327.551C304.866 327.485 304.634 327.452 304.393 327.452C303.952 327.452 303.554 327.563 303.196 327.786C302.841 328.008 302.558 328.336 302.347 328.769C302.139 329.202 302.035 329.734 302.035 330.364C302.035 330.993 302.139 331.525 302.347 331.958C302.558 332.391 302.841 332.719 303.196 332.942C303.554 333.164 303.952 333.276 304.393 333.276C304.634 333.276 304.866 333.242 305.089 333.176C305.311 333.11 305.514 333.012 305.696 332.881C305.881 332.749 306.037 332.587 306.165 332.395C306.295 332.201 306.386 331.978 306.438 331.727H307.319C307.253 332.099 307.132 332.432 306.957 332.725C306.781 333.019 306.564 333.268 306.303 333.474C306.043 333.678 305.75 333.833 305.426 333.94C305.104 334.046 304.76 334.099 304.393 334.099C303.772 334.099 303.221 333.948 302.738 333.645C302.255 333.342 301.875 332.911 301.598 332.352C301.321 331.794 301.183 331.131 301.183 330.364C301.183 329.597 301.321 328.934 301.598 328.375C301.875 327.816 302.255 327.385 302.738 327.082C303.221 326.779 303.772 326.628 304.393 326.628C304.76 326.628 305.104 326.681 305.426 326.788C305.75 326.894 306.043 327.05 306.303 327.256C306.564 327.46 306.781 327.709 306.957 328.002C307.132 328.293 307.253 328.626 307.319 329Z" fill="#5B697C"/>
<rect x="269" y="316" width="100" height="40" rx="20" transform="rotate(-90 269 316)" fill="#5B697C"/>
<path d="M326.679 334H325.756L328.426 326.727H329.335L332.006 334H331.082L328.909 327.878H328.852L326.679 334ZM327.02 331.159H330.741V331.94H327.02V331.159ZM335.326 326.628C335.624 326.63 335.923 326.687 336.221 326.798C336.519 326.91 336.791 327.094 337.038 327.352C337.284 327.608 337.482 327.957 337.631 328.4C337.78 328.843 337.854 329.398 337.854 330.065C337.854 330.712 337.793 331.286 337.67 331.788C337.549 332.287 337.374 332.709 337.144 333.052C336.917 333.395 336.64 333.656 336.313 333.833C335.989 334.011 335.622 334.099 335.212 334.099C334.805 334.099 334.442 334.019 334.122 333.858C333.805 333.695 333.545 333.469 333.341 333.18C333.14 332.888 333.011 332.551 332.954 332.168H333.82C333.898 332.501 334.054 332.777 334.286 332.995C334.52 333.21 334.829 333.318 335.212 333.318C335.773 333.318 336.216 333.073 336.54 332.583C336.867 332.093 337.031 331.401 337.031 330.506H336.974C336.841 330.705 336.684 330.876 336.501 331.021C336.319 331.165 336.117 331.276 335.894 331.354C335.672 331.433 335.435 331.472 335.184 331.472C334.767 331.472 334.385 331.369 334.037 331.163C333.691 330.954 333.414 330.669 333.206 330.307C333 329.942 332.897 329.526 332.897 329.057C332.897 328.612 332.996 328.205 333.195 327.835C333.397 327.464 333.678 327.168 334.04 326.947C334.405 326.727 334.834 326.621 335.326 326.628ZM335.326 327.409C335.028 327.409 334.759 327.484 334.52 327.633C334.283 327.78 334.095 327.978 333.955 328.229C333.818 328.478 333.749 328.754 333.749 329.057C333.749 329.36 333.816 329.636 333.948 329.884C334.083 330.13 334.267 330.327 334.499 330.474C334.733 330.618 334.999 330.69 335.298 330.69C335.522 330.69 335.732 330.647 335.926 330.559C336.12 330.469 336.29 330.347 336.434 330.193C336.581 330.037 336.696 329.861 336.778 329.664C336.861 329.465 336.903 329.258 336.903 329.043C336.903 328.759 336.834 328.492 336.697 328.244C336.562 327.995 336.375 327.794 336.136 327.64C335.899 327.486 335.629 327.409 335.326 327.409ZM339.379 334V326.727H341.921C342.428 326.727 342.846 326.815 343.175 326.99C343.504 327.163 343.749 327.396 343.91 327.69C344.071 327.981 344.151 328.304 344.151 328.659C344.151 328.972 344.096 329.23 343.985 329.433C343.876 329.637 343.731 329.798 343.551 329.916C343.374 330.035 343.181 330.122 342.972 330.179V330.25C343.195 330.264 343.419 330.342 343.644 330.484C343.869 330.626 344.057 330.83 344.208 331.095C344.36 331.36 344.436 331.685 344.436 332.068C344.436 332.433 344.353 332.761 344.187 333.052C344.021 333.343 343.76 333.574 343.402 333.744C343.045 333.915 342.579 334 342.007 334H339.379ZM340.259 333.219H342.007C342.582 333.219 342.99 333.107 343.232 332.885C343.476 332.66 343.597 332.388 343.597 332.068C343.597 331.822 343.535 331.595 343.409 331.386C343.284 331.176 343.105 331.008 342.873 330.882C342.641 330.754 342.366 330.69 342.049 330.69H340.259V333.219ZM340.259 329.923H341.893C342.158 329.923 342.397 329.871 342.61 329.767C342.826 329.663 342.996 329.516 343.122 329.327C343.249 329.137 343.313 328.915 343.313 328.659C343.313 328.339 343.202 328.068 342.98 327.846C342.757 327.621 342.404 327.509 341.921 327.509H340.259V329.923ZM345.982 334L349.235 327.565V327.509H345.485V326.727H350.144V327.551L346.905 334H345.982ZM357.448 329H356.567C356.515 328.747 356.424 328.524 356.294 328.332C356.166 328.141 356.01 327.98 355.825 327.849C355.643 327.717 355.44 327.617 355.218 327.551C354.995 327.485 354.763 327.452 354.522 327.452C354.081 327.452 353.682 327.563 353.325 327.786C352.97 328.008 352.687 328.336 352.476 328.769C352.268 329.202 352.164 329.734 352.164 330.364C352.164 330.993 352.268 331.525 352.476 331.958C352.687 332.391 352.97 332.719 353.325 332.942C353.682 333.164 354.081 333.276 354.522 333.276C354.763 333.276 354.995 333.242 355.218 333.176C355.44 333.11 355.643 333.012 355.825 332.881C356.01 332.749 356.166 332.587 356.294 332.395C356.424 332.201 356.515 331.978 356.567 331.727H357.448C357.382 332.099 357.261 332.432 357.086 332.725C356.91 333.019 356.693 333.268 356.432 333.474C356.172 333.678 355.879 333.833 355.555 333.94C355.233 334.046 354.889 334.099 354.522 334.099C353.901 334.099 353.35 333.948 352.867 333.645C352.384 333.342 352.004 332.911 351.727 332.352C351.45 331.794 351.311 331.131 351.311 330.364C351.311 329.597 351.45 328.934 351.727 328.375C352.004 327.816 352.384 327.385 352.867 327.082C353.35 326.779 353.901 326.628 354.522 326.628C354.889 326.628 355.233 326.681 355.555 326.788C355.879 326.894 356.172 327.05 356.432 327.256C356.693 327.46 356.91 327.709 357.086 328.002C357.261 328.293 357.382 328.626 357.448 329ZM361.158 334.099C360.86 334.095 360.561 334.038 360.263 333.929C359.965 333.82 359.692 333.637 359.446 333.379C359.2 333.118 359.002 332.767 358.853 332.324C358.704 331.879 358.629 331.32 358.629 330.648C358.629 330.004 358.69 329.433 358.811 328.936C358.931 328.437 359.106 328.016 359.336 327.675C359.566 327.332 359.843 327.072 360.167 326.894C360.494 326.717 360.862 326.628 361.271 326.628C361.679 326.628 362.041 326.71 362.358 326.873C362.678 327.034 362.938 327.259 363.139 327.548C363.341 327.836 363.471 328.169 363.53 328.545H362.664C362.583 328.219 362.427 327.948 362.195 327.732C361.963 327.517 361.655 327.409 361.271 327.409C360.708 327.409 360.264 327.654 359.94 328.144C359.618 328.634 359.456 329.322 359.453 330.207H359.51C359.643 330.006 359.8 329.835 359.982 329.692C360.167 329.548 360.371 329.437 360.593 329.359C360.816 329.281 361.051 329.241 361.3 329.241C361.717 329.241 362.098 329.346 362.443 329.554C362.789 329.76 363.066 330.045 363.274 330.41C363.483 330.772 363.587 331.188 363.587 331.656C363.587 332.106 363.486 332.518 363.285 332.892C363.084 333.264 362.801 333.56 362.436 333.78C362.074 333.998 361.648 334.104 361.158 334.099ZM361.158 333.318C361.456 333.318 361.724 333.244 361.96 333.094C362.2 332.945 362.388 332.745 362.525 332.494C362.665 332.243 362.735 331.964 362.735 331.656C362.735 331.356 362.667 331.082 362.532 330.836C362.4 330.587 362.216 330.39 361.982 330.243C361.75 330.096 361.485 330.023 361.186 330.023C360.961 330.023 360.752 330.068 360.558 330.158C360.364 330.245 360.193 330.366 360.046 330.52C359.902 330.674 359.788 330.85 359.705 331.049C359.623 331.246 359.581 331.453 359.581 331.67C359.581 331.959 359.649 332.229 359.784 332.48C359.921 332.731 360.108 332.933 360.345 333.087C360.584 333.241 360.855 333.318 361.158 333.318Z" fill="#A9B7C6"/>
<rect x="325" y="316" width="100" height="40" rx="20" transform="rotate(-90 325 316)" fill="#A9B7C6"/>
</svg>
