<svg width="64" height="64" viewBox="0 0 64 64" fill="none" xmlns="http://www.w3.org/2000/svg">
<path d="M10.2762 51.9238L7.5623 54.6377C7.49837 54.702 7.4166 54.7455 7.32759 54.7628C7.23858 54.78 7.14644 54.7701 7.06314 54.7343C6.97983 54.6986 6.90919 54.6386 6.8604 54.5622C6.8116 54.4858 6.7869 54.3964 6.78949 54.3058C6.93579 52.393 7.49528 50.5346 8.42937 48.859C9.36346 47.1833 10.6499 45.7303 12.2 44.6C11.6167 46.4066 10.4723 49.7864 10.4033 51.631C10.4003 51.7413 10.3547 51.8463 10.2762 51.9238ZM43.4247 22.306L41.4025 21.2949C41.2968 21.2416 41.1815 21.2097 41.0634 21.201C40.9453 21.1923 40.8266 21.207 40.7142 21.2443C40.6017 21.2816 40.4978 21.3407 40.4082 21.4182C40.3187 21.4958 40.2453 21.5902 40.1924 21.6961C40.1394 21.8021 40.1078 21.9174 40.0995 22.0356C40.0912 22.1537 40.1063 22.2724 40.144 22.3847C40.1816 22.497 40.241 22.6008 40.3189 22.6901C40.3967 22.7794 40.4914 22.8524 40.5975 22.905L41.4652 23.339C38.3183 24.8472 35.472 26.9153 33.0652 29.4423C31.5925 30.0066 30.0202 30.2644 28.4444 30.2C28.3239 30.1955 28.2037 30.2155 28.0912 30.2588C27.9786 30.3021 27.876 30.3679 27.7897 30.452C27.7033 30.5362 27.6349 30.637 27.5887 30.7484C27.5424 30.8598 27.5193 30.9794 27.5207 31.1C27.5214 31.2236 27.5474 31.3457 27.597 31.4589C27.6467 31.5721 27.7189 31.6739 27.8093 31.7582C27.8997 31.8424 28.0064 31.9074 28.1228 31.9489C28.2391 31.9905 28.3628 32.0079 28.4861 32C29.3989 32.0072 30.311 31.9467 31.2148 31.8189C30.1838 33.3546 29.3139 34.9925 28.6192 36.7067C26.283 38.2164 24.7521 38.3 22.1 38.3C21.8613 38.3 21.6324 38.3948 21.4636 38.5636C21.2948 38.7324 21.2 38.9613 21.2 39.2C21.2 39.4387 21.2948 39.6676 21.4636 39.8364C21.6324 40.0051 21.8613 40.1 22.1 40.1C23.821 40.1971 25.5451 39.9754 27.1855 39.4462C23.9706 44.5058 20.0654 44.2124 15.6238 43.8731C15.0789 43.8316 14.5233 43.7934 13.9645 43.761C19.2032 31.356 30.4055 22.3282 48.5076 15.7459C48.7313 15.6638 48.9133 15.4964 49.0137 15.2803C49.1142 15.0643 49.1248 14.8172 49.0434 14.5933C48.962 14.3694 48.7951 14.1869 48.5794 14.0858C48.3636 13.9847 48.1166 13.9733 47.8924 14.054C31.8673 19.8816 21.0857 27.6098 14.9343 37.8557C14.9151 37.8823 14.8974 37.9099 14.8811 37.9383C14.093 39.2776 13.2253 40.5685 12.2826 41.8039C10.492 37.7606 10.5221 34.3581 11.5097 31.5297C11.6413 32.4455 11.9022 33.338 12.2844 34.1805C12.3344 34.2876 12.405 34.3839 12.4921 34.4637C12.5793 34.5435 12.6813 34.6054 12.7924 34.6458C12.9035 34.6862 13.0214 34.7043 13.1395 34.6991C13.2576 34.694 13.3735 34.6656 13.4806 34.6156C13.5877 34.5656 13.6839 34.495 13.7638 34.4079C13.8436 34.3207 13.9055 34.2187 13.9459 34.1076C13.9863 33.9965 14.0044 33.8786 13.9992 33.7605C13.994 33.6424 13.9656 33.5265 13.9157 33.4194C13.2735 31.831 12.9917 30.1199 13.0908 28.4095C14.7562 26.0981 16.8444 24.1232 19.245 22.5892C18.2708 24.0513 17.7031 25.7461 17.6 27.5C17.6 27.7387 17.6948 27.9676 17.8636 28.1364C18.0324 28.3051 18.2613 28.4 18.5 28.4C18.7387 28.4 18.9676 28.3051 19.1364 28.1364C19.3052 27.9676 19.4 27.7387 19.4 27.5C19.4 26.783 19.7026 24.1241 23.5193 19.8817C27.6491 17.4744 32.0717 15.609 36.678 14.3314L36.595 14.4974C36.4891 14.7109 36.4722 14.9575 36.5479 15.1834C36.6236 15.4093 36.7857 15.596 36.9988 15.7025C37.2119 15.809 37.4585 15.8268 37.6846 15.7518C37.9107 15.6768 38.0979 15.5153 38.2051 15.3025L39.0206 13.6715C41.4555 13.0166 43.825 12.4634 46.0331 11.9499C49.1078 11.334 52.1336 10.4946 55.0862 9.43843C55.1695 9.40416 55.2611 9.39574 55.3492 9.41425C55.4374 9.43276 55.5179 9.47736 55.5803 9.54224C55.6428 9.60712 55.6842 9.68928 55.6994 9.77805C55.7145 9.86681 55.7025 9.95808 55.6651 10.04C52.5458 17.1905 48.1213 19.8232 43.4247 22.306Z" fill="url(#paint0_linear_209_2)"/>
<defs>
<linearGradient id="paint0_linear_209_2" x1="31.2475" y1="9.40466" x2="31.2475" y2="54.771" gradientUnits="userSpaceOnUse">
<stop stop-color="#00C9A7"/>
<stop offset="1" stop-color="#2077F1"/>
</linearGradient>
</defs>
</svg>
