<svg width="64" height="64" viewBox="0 0 64 64" fill="none" xmlns="http://www.w3.org/2000/svg">
<rect width="64" height="64" rx="32" fill="#222429"/>
<g clip-path="url(#clip0_1_39)">
<g filter="url(#filter0_d_1_39)">
<path d="M15.3968 50.1032L13.1353 52.3647C13.082 52.4183 13.0138 52.4546 12.9397 52.469C12.8655 52.4834 12.7887 52.4751 12.7193 52.4453C12.6499 52.4155 12.591 52.3655 12.5503 52.3018C12.5097 52.2382 12.4891 52.1637 12.4912 52.0882C12.6132 50.4942 13.0794 48.9456 13.8578 47.5492C14.6362 46.1528 15.7083 44.9419 17 44C16.5139 45.5055 15.5603 48.322 15.5028 49.8592C15.5002 49.9511 15.4623 50.0386 15.3968 50.1032V50.1032ZM43.0206 25.4217L41.3355 24.5791C41.2473 24.5347 41.1513 24.5081 41.0528 24.5009C40.9544 24.4936 40.8555 24.5059 40.7618 24.537C40.6681 24.568 40.5815 24.6173 40.5069 24.6819C40.4322 24.7465 40.3711 24.8252 40.327 24.9135C40.2828 25.0018 40.2565 25.0979 40.2496 25.1964C40.2427 25.2948 40.2553 25.3937 40.2866 25.4873C40.318 25.5809 40.3675 25.6673 40.4324 25.7417C40.4972 25.8162 40.5761 25.877 40.6646 25.9209L41.3877 26.2825C38.7652 27.5394 36.3933 29.2628 34.3877 31.3686C33.1605 31.8389 31.8501 32.0537 30.537 32C30.4366 31.9962 30.3364 32.0129 30.2426 32.049C30.1488 32.0851 30.0634 32.1399 29.9914 32.21C29.9194 32.2802 29.8624 32.3642 29.8239 32.457C29.7854 32.5498 29.7661 32.6495 29.7672 32.75C29.7678 32.853 29.7895 32.9548 29.8309 33.0491C29.8722 33.1434 29.9324 33.2283 30.0078 33.2985C30.0831 33.3687 30.172 33.4228 30.269 33.4575C30.366 33.4921 30.469 33.5066 30.5718 33.5C31.3324 33.506 32.0925 33.4556 32.8457 33.3491C31.9865 34.6288 31.2616 35.9938 30.6827 37.4223C28.7358 38.6804 27.46 38.75 25.25 38.75C25.0511 38.75 24.8603 38.829 24.7197 38.9697C24.579 39.1103 24.5 39.3011 24.5 39.5C24.5 39.6989 24.579 39.8897 24.7197 40.0303C24.8603 40.171 25.0511 40.25 25.25 40.25C26.6841 40.3309 28.1209 40.1462 29.4879 39.7052C26.8089 43.9215 23.5545 43.677 19.8532 43.3943C19.3991 43.3597 18.9361 43.3279 18.4704 43.3009C22.836 32.9634 32.1713 25.4402 47.2564 19.955C47.4428 19.8865 47.5944 19.747 47.6781 19.567C47.7618 19.3869 47.7707 19.181 47.7029 18.9944C47.635 18.8078 47.4959 18.6557 47.3161 18.5715C47.1363 18.4873 46.9305 18.4778 46.7437 18.545C33.3894 23.4014 24.4048 29.8415 19.2786 38.3798C19.2626 38.4019 19.2478 38.4249 19.2343 38.4486C18.5775 39.5647 17.8544 40.6404 17.0688 41.6699C15.5767 38.3005 15.6018 35.4651 16.4248 33.1081C16.5344 33.8713 16.7518 34.615 17.0703 35.3171C17.112 35.4064 17.1708 35.4866 17.2434 35.5531C17.3161 35.6196 17.4011 35.6712 17.4937 35.7049C17.5862 35.7385 17.6845 35.7536 17.7829 35.7493C17.8813 35.745 17.9779 35.7213 18.0672 35.6797C18.1564 35.638 18.2366 35.5792 18.3031 35.5066C18.3697 35.434 18.4212 35.3489 18.4549 35.2564C18.4886 35.1638 18.5037 35.0655 18.4993 34.9671C18.495 34.8687 18.4714 34.7721 18.4297 34.6829C17.8945 33.3592 17.6598 31.9333 17.7423 30.508C19.1301 28.5818 20.8703 26.936 22.8708 25.6577C22.059 26.8761 21.5859 28.2885 21.5 29.75C21.5 29.9489 21.579 30.1397 21.7197 30.2803C21.8603 30.421 22.0511 30.5 22.25 30.5C22.4489 30.5 22.6397 30.421 22.7803 30.2803C22.921 30.1397 23 29.9489 23 29.75C23 29.1525 23.2522 26.9367 26.4328 23.4014C29.8743 21.3954 33.5597 19.8409 37.3983 18.7762L37.3291 18.9146C37.2409 19.0924 37.2268 19.298 37.2899 19.4862C37.353 19.6744 37.4881 19.83 37.6657 19.9188C37.8432 20.0076 38.0487 20.0223 38.2372 19.9598C38.4256 19.8974 38.5816 19.7627 38.6709 19.5855L39.3505 18.2263C41.3796 17.6806 43.3542 17.2195 45.1943 16.7916C47.7565 16.2783 50.278 15.5788 52.7385 14.6987C52.8079 14.6702 52.8843 14.6631 52.9577 14.6786C53.0311 14.694 53.0982 14.7312 53.1503 14.7852C53.2023 14.8393 53.2369 14.9078 53.2495 14.9817C53.2621 15.0557 53.2521 15.1318 53.2209 15.2C50.6215 21.1588 46.9344 23.3527 43.0206 25.4217Z" fill="url(#paint0_linear_1_39)"/>
</g>
</g>
<defs>
<filter id="filter0_d_1_39" x="8.39109" y="10.5706" width="52.9637" height="50.0053" filterUnits="userSpaceOnUse" color-interpolation-filters="sRGB">
<feFlood flood-opacity="0" result="BackgroundImageFix"/>
<feColorMatrix in="SourceAlpha" type="matrix" values="0 0 0 0 0 0 0 0 0 0 0 0 0 0 0 0 0 0 127 0" result="hardAlpha"/>
<feOffset dx="2" dy="2"/>
<feGaussianBlur stdDeviation="3.05"/>
<feComposite in2="hardAlpha" operator="out"/>
<feColorMatrix type="matrix" values="0 0 0 0 0 0 0 0 0 0 0 0 0 0 0 0 0 0 0.25 0"/>
<feBlend mode="normal" in2="BackgroundImageFix" result="effect1_dropShadow_1_39"/>
<feBlend mode="normal" in="SourceGraphic" in2="effect1_dropShadow_1_39" result="shape"/>
</filter>
<linearGradient id="paint0_linear_1_39" x1="32.8729" y1="14.6706" x2="32.8729" y2="52.4759" gradientUnits="userSpaceOnUse">
<stop stop-color="#00C2A1"/>
<stop offset="1" stop-color="#2075EB"/>
</linearGradient>
<clipPath id="clip0_1_39">
<rect width="45" height="45" fill="white" transform="translate(11 11)"/>
</clipPath>
</defs>
</svg>
